<svg xmlns="http://www.w3.org/2000/svg" viewBox="0 0 511 210"><g fill="none" stroke-width="2"><path stroke="#dff0f5" d="M148.29 86.5q-.48.8-1.64.06-3.04-1.95-6.86-.61-1.27.44-.19 1.22 3.15 2.29 4.03 6.35" vector-effect="non-scaling-stroke"/><path stroke="#88b1d2" d="M143.63 93.52c-4.11-5.13-8.76-9.7-15.59-10.52" vector-effect="non-scaling-stroke"/><path stroke="#879fb9" d="m128.04 83-2.79-.54" vector-effect="non-scaling-stroke"/><path stroke="#eff7f9" d="m125.25 82.46-.04-.71" vector-effect="non-scaling-stroke"/><path stroke="#6ea7cc" d="m143.63 93.52 4.16 7.65" vector-effect="non-scaling-stroke"/><path stroke="#579fc7" d="m147.79 101.17 1.56 4.4" vector-effect="non-scaling-stroke"/><path stroke="#1e79b3" d="M149.35 105.57q-1.74-3.9-4.84-6.65a1.34.89 55 0 0-.87-.34l-7.43.67" vector-effect="non-scaling-stroke"/><path stroke="#11609b" d="m136.21 99.25-1.42-2" vector-effect="non-scaling-stroke"/><path stroke="#7e9bb6" d="m125.25 82.46-9.75.83" vector-effect="non-scaling-stroke"/><path stroke="#b6dfe9" d="M115.5 83.29q-14.13-1.29-28.29.03" vector-effect="non-scaling-stroke"/><path stroke="#74accc" d="M87.21 83.32c-3.72-.86-10.95-1.45-14.25.93" vector-effect="non-scaling-stroke"/><path stroke="#8cc2dc" d="M72.96 84.25q-4.13-.04-7.24 2.72-1.55 1.37-2.01-.22" vector-effect="non-scaling-stroke"/><path stroke="#dff0f5" d="M150.25 87.79q-.69.65.19 1.52 3.8 3.77 6.81 10.4" vector-effect="non-scaling-stroke"/><path stroke="#aeddea" d="M157.25 99.71q-5.3-2.04-9.46 1.46" vector-effect="non-scaling-stroke"/><path stroke="#175690" d="m128.04 83-.69.94a1.07.18-6 0 1-.86.24l-2.43.32q-.85.12.08.76 6.79 4.72 10.65 11.99" vector-effect="non-scaling-stroke"/><path stroke="#114e81" d="M134.79 97.25q-.06 1.9-2.3 1.62-4.19-.51-23.79.91" vector-effect="non-scaling-stroke"/><path stroke="#135a8f" d="m108.7 99.78-2.87-3.9a.54.5-36.8 0 0-.73-.08l-2.6 1.99" vector-effect="non-scaling-stroke"/><path stroke="#84cfe1" d="m162.05 111.5-10.12.02" vector-effect="non-scaling-stroke"/><path stroke="#5eafd1" d="M149.35 105.57q1.68 2.49 2.58 5.95" vector-effect="non-scaling-stroke"/><path stroke="#4ba9cd" d="m151.93 111.52.61 1.98" vector-effect="non-scaling-stroke"/><path stroke="#2a94c2" d="M152.54 113.5q-.5 1.13-1.2-.74a1.29 1.26-12.9 0 0-1.33-.81l-5.02.53a1.61.7-15.4 0 1-.96-.14q-1.3-.8-2.07.41" vector-effect="non-scaling-stroke"/><path stroke="#1871a5" d="M136.21 99.25q3.31 6.54 5.58 13.5" vector-effect="non-scaling-stroke"/><path stroke="#4597bf" d="M87.21 83.32q6.58 3.46 11.33 8.68" vector-effect="non-scaling-stroke"/><path stroke="#0c548c" d="m98.54 92 3.96 5.79" vector-effect="non-scaling-stroke"/><path stroke="#096ba5" d="m102.5 97.79-.71 1.21" vector-effect="non-scaling-stroke"/><path stroke="#0e7fb3" d="m101.79 99-2.83 2.5" vector-effect="non-scaling-stroke"/><path stroke="#499bc3" d="m98.96 101.5-2.74-7.04a.57.53 59.5 0 0-.86-.25L88.54 100" vector-effect="non-scaling-stroke"/><path stroke="#025f9d" d="M88.54 100q-.2-1.63-1.88-.84c-6.1 2.86-12.65 2.35-19.25 4.27-3.39.99-6.11.03-9.5 1.82a1.62.51-34.4 0 1-.98.3q-3.15-.4-1.11-3.03a.91.75-44.5 0 0 .1-.96q-.16-.25-.42-.35" vector-effect="non-scaling-stroke"/><path stroke="#1a7bb2" d="M55.5 101.21q6.28-10.26 16.79-16c.43-.24.55-.52.67-.96" vector-effect="non-scaling-stroke"/><path stroke="#1a75ad" d="M55.5 101.21Q46.57 114.56 39.54 129" vector-effect="non-scaling-stroke"/><path stroke="#2172a9" d="m39.54 129-7.33 14.75" vector-effect="non-scaling-stroke"/><path stroke="#2969a1" d="m32.21 143.75-7.92 14.5" vector-effect="non-scaling-stroke"/><path stroke="#79b9d8" d="m24.29 158.25 2-7.5" vector-effect="non-scaling-stroke"/><path stroke="#63afd2" d="M26.29 150.75q3.82-11.46 8.75-22.5" vector-effect="non-scaling-stroke"/><path stroke="#48a4cc" d="M35.04 128.25q7.55-15.77 18.85-29.01a.8.64-42.5 0 0 .13-.84c-.53-.88-1.07-.28-1.42.35q-.97 1.74-2.86 1.84" vector-effect="non-scaling-stroke"/><path stroke="#8cc2dc" d="M49.74 100.59c1.35-1.48 8.58-8.18 8.76-9.34" vector-effect="non-scaling-stroke"/><path stroke="#95c6df" d="M58.5 91.25q.16.05.25.19a.2.17 55 0 0 .27.07l2.35-1.9a.63.26-36.8 0 0 .31-.52l-.14-.34" vector-effect="non-scaling-stroke"/><path stroke="#2d7194" stroke-opacity=".702" d="M61.54 88.75h.67" vector-effect="non-scaling-stroke"/><path stroke="#95c6df" d="M62.21 88.75q1.73-.01 1.29-1.96" vector-effect="non-scaling-stroke"/><path stroke="#4f87a9" d="M115.5 83.29q-9.1 3.18-16.96 8.71" vector-effect="non-scaling-stroke"/><path stroke="#eff7f9" d="M166 109.54h.5m9 38.67-.54.54" vector-effect="non-scaling-stroke"/><path stroke="#aab0ac" stroke-opacity=".996" d="m174.54 153.25-.25.5" vector-effect="non-scaling-stroke"/><path stroke="#bbbdbd" stroke-opacity=".702" d="m184.79 136.25.75-.75" vector-effect="non-scaling-stroke"/><path stroke="#cee7f0" d="M185.54 135.5c.92.42-.58 3.19-.64 4.23" vector-effect="non-scaling-stroke"/><path stroke="#dff0f5" d="M184.9 139.73c-1.34 2.79-3.22 7.17-3 9.72a1.54 1.17 67 0 1-.25.98q-1.42 1.82-.65 4.08.35 1.03.99.24 4-4.94 8.84-9.08" vector-effect="non-scaling-stroke"/><path stroke="#7dc1dc" d="M190.83 145.67q-6.35 9.33-14.33 16.87" vector-effect="non-scaling-stroke"/><path stroke="#8bb7d7" d="M176.5 162.54c-1.46-.25-4.77-15.07-5.29-17.29" vector-effect="non-scaling-stroke"/><path stroke="#94cde1" d="m171.21 145.25-3.5-14.5" vector-effect="non-scaling-stroke"/><path stroke="#a3dce9" d="m167.71 130.75-3.83-13.95" vector-effect="non-scaling-stroke"/><path stroke="#b5e2ec" d="m163.88 116.8-1.83-5.3" vector-effect="non-scaling-stroke"/><path stroke="#c8e8f0" d="M162.05 111.5c-.5-3.96-2.4-7.03-4.8-11.79" vector-effect="non-scaling-stroke"/><path stroke="#0d659a" d="m108.7 99.78 5.85 11.68a2.42 2.36 74.5 0 0 2.3 1.34q7.9-.56 16.51-.14c2.82.14 5.76-1.85 7.97 1.36q.34.49.38-.06l.08-1.21" vector-effect="non-scaling-stroke"/><path stroke="#1a7db3" d="M141.79 112.75h.17" vector-effect="non-scaling-stroke"/><path stroke="#1f88b8" d="m141.96 112.75 9.75 30" vector-effect="non-scaling-stroke"/><path stroke="#0d659f" d="M151.71 142.75q-5 1.8-10.22.56a1.26.91-51.6 0 0-.92.26q-1.73 1.32-3.64.23a1.44.53-17.3 0 0-.93-.05q-3.25.61-6.34-.63-3.01-1.2-1.27 1.81.23.4-.35.32" vector-effect="non-scaling-stroke"/><path stroke="#1f88b8" d="m128.04 145.25-11.24-28.56a.83.83 0 0 0-1.04-.48q-2.57.91-5.22.54" vector-effect="non-scaling-stroke"/><path stroke="#248bba" d="m110.54 116.75-3.58-9.25" vector-effect="non-scaling-stroke"/><path stroke="#1485b6" d="M106.96 107.5c-.77-1.92-3.45-8.91-5.17-8.5" vector-effect="non-scaling-stroke"/><path stroke="#5fc3da" d="M163.88 116.8q-2.29 3.07-6.08 1.64-.28-.1-.93-.01l-2.33.32" vector-effect="non-scaling-stroke"/><path stroke="#50b4d2" d="m154.54 118.75-2-5.25" vector-effect="non-scaling-stroke"/><path stroke="#3eaecf" d="m154.54 118.75 2.86 9.96a.83.56 79.6 0 0 .6.61l7.75.24a1.18.65-8.4 0 1 .8.3q.48.58 1.16.89" vector-effect="non-scaling-stroke"/><path stroke="#278abd" d="m171.21 145.25-8.15 1.29a.71.57-3.3 0 0-.58.52q-.22 1.75.48 3.44" vector-effect="non-scaling-stroke"/><path stroke="#2398c3" d="M162.96 150.5c-.5 1.77-5.18 1.42-7.46 2.29" vector-effect="non-scaling-stroke"/><path stroke="#1d7caf" d="m155.5 152.79-3.79-10.04" vector-effect="non-scaling-stroke"/><path stroke="#299fc8" d="M106.96 107.5q-2.36-.48-4.38.9a.86.71-44.2 0 1-.84.07q-.58-.36-.95-.97" vector-effect="non-scaling-stroke"/><path stroke="#89cae0" d="m100.79 107.5-1.83-5.5" vector-effect="non-scaling-stroke"/><path stroke="#3286b4" d="m80.71 108.25-6.57 7.16" vector-effect="non-scaling-stroke"/><path stroke="#085694" d="M74.14 115.41q-4.71 4.05-8.51 8.84a2.14 2.09 25.4 0 1-2.13.73q-4.28-1.01-7.96 1.07-1.74.98-4.11.67-3.14-.4-5.95.95a1.08 1.03-41.9 0 1-.98-.03q-1.85-1.08-3 1.18a.61.36 19.3 0 1-.64.13q-.64-.19-1.32.05" vector-effect="non-scaling-stroke"/><path stroke="#54b6d4" d="M98.96 101.5v.5" vector-effect="non-scaling-stroke"/><path stroke="#c4e6ef" d="M98.96 102c-2.47.73-2.83 3.17-4.19 3.7q-.58.23-.81.5l-10.81 12.71a1.26.54 5 0 1-.85.28l-1.26.06" vector-effect="non-scaling-stroke"/><path stroke="#79c3d9" d="M81.04 119.25q1.4-4.76 3.23-9.38c1.83-4.65-2.77.36-3.56-1.62" vector-effect="non-scaling-stroke"/><path stroke="#4896be" d="m80.71 108.25 7.83-8.25" vector-effect="non-scaling-stroke"/><path stroke="#79c2dc" d="M35.04 128.25q-.3-1.83-.87-.47-.21.52-.56.79-2.82 2.17-2.65-1.82" vector-effect="non-scaling-stroke"/><path stroke="#abd9e9" d="M30.96 126.75q2.26-2.2 2.04-5.21" vector-effect="non-scaling-stroke"/><path stroke="#247cae" d="M70.96 120q-5.11 6.27-9.25 13.15" vector-effect="non-scaling-stroke"/><path stroke="#1476aa" d="m61.71 133.15-3.67 5.6" vector-effect="non-scaling-stroke"/><path stroke="#096ea6" d="m58.04 138.75-6.54 11.21" vector-effect="non-scaling-stroke"/><path stroke="#095c99" d="m51.5 149.96-.96 1.04" vector-effect="non-scaling-stroke"/><path stroke="#174a88" d="M50.54 151q.22-1.06 1.45-3 1.89-2.96 2.94-7.49.11-.49-.33-.24-5.92 3.28-12.73 3.47c-1.03.03-1.47.42-2.23 1a.99.84 37.3 0 1-.94.05q-2.16-1.05-4.27.18a.46.37 73.2 0 1-.56-.39q-.25-1.74-1.66-.83" vector-effect="non-scaling-stroke"/><path stroke="#a2d5e6" d="M49.74 100.59q-8.6 8.96-12.99 16.66-1.76 3.09-3 3.96" vector-effect="non-scaling-stroke"/><path stroke="#eff7f9" d="m42.5 105.29.54-.54" vector-effect="non-scaling-stroke"/><path stroke="#bbbdbd" stroke-opacity=".702" d="m62.21 88.75-.96-2.04m.29 2.04-.58-1.5" vector-effect="non-scaling-stroke"/><path stroke="#aad7e7" d="M26.29 150.75q.26-1.66-.55-1.47a1.02.55-78.1 0 0-.54.64q-.84 2.35-2.97 1.12a1.36.63-26.3 0 0-.98.02q-1.7.54-.77-1.34.3-.6.28-.99l-.05-.98" vector-effect="non-scaling-stroke"/><path stroke="#c6e4ee" d="M20.71 147.75q.94-2.09 1.68-4.23c1.01-2.94 2.83-5.39 3.99-8.32a1.1.69 49.5 0 0-.12-.8l-.22-.4" vector-effect="non-scaling-stroke"/><path stroke="#bde0ec" d="M26.79 133.5q1.73-.56.46-1.71" vector-effect="non-scaling-stroke"/><path stroke="#69888e" stroke-opacity=".992" d="m27.25 131.79.54-.54" vector-effect="non-scaling-stroke"/><path stroke="#115291" d="M50.54 151q-2.15 4.15-4.37 8.26c-1.27 2.36-4.43 4.97.56 6.46q1.84.55 5.72-.28a.43.42-7.5 0 1 .52.39l.07 1.67" vector-effect="non-scaling-stroke"/><path stroke="#10679f" d="M53.04 167.5q-4.52 10.27-14.34 15.64" vector-effect="non-scaling-stroke"/><path stroke="#8c9dbe" d="M38.7 183.14q-9.48 1.53-19.2.82" vector-effect="non-scaling-stroke"/><path stroke="#10679f" d="M19.5 183.96q1.05-10.96 3.46-21.71" vector-effect="non-scaling-stroke"/><path stroke="#6f91b7" d="m22.96 162.25 1.33-4" vector-effect="non-scaling-stroke"/><path stroke="#60b8d5" d="m22.96 162.25-4.21 6.79" vector-effect="non-scaling-stroke"/><path stroke="#1f5a99" d="M176.46 163.75c-.93-.74-6.17 3.97-7.42 4.75" vector-effect="non-scaling-stroke"/><path stroke="#1a83b9" d="M169.04 168.5q-3.67-8.78-6.08-18" vector-effect="non-scaling-stroke"/><path stroke="#b5ddea" d="M196.54 135.5q.18-1.73-.78-.91a1.58 1.09 82.9 0 0-.44.85c-.22 1.25-.35 4.5-1.81 4.94a1.52.71-7.6 0 0-.85.54q-.81 1.4-1.13.09a.96.64 1 0 0-.77-.53l-5.86-.75" vector-effect="non-scaling-stroke"/><path stroke="#7ea1ad" stroke-opacity=".702" d="m185.54 135.5-.04-.46" vector-effect="non-scaling-stroke"/><path stroke="#096ea6" d="M192.95 146.75q-3.34 10.3-7.7 19.71" vector-effect="non-scaling-stroke"/><path stroke="#11649e" d="M185.25 166.46q-1.74 3.49-4.35 6.36a.36.34-36.5 0 1-.58-.07l-3.86-9" vector-effect="non-scaling-stroke"/><path stroke="#107eb7" d="m176.46 163.75.04-1.21" vector-effect="non-scaling-stroke"/><path stroke="#64b7d6" d="M192.96 143.75q-.94 1.25-2.13 1.92" vector-effect="non-scaling-stroke"/><path stroke="#1075ab" d="M155.5 152.79q2.26 6.11 5.32 11.49" vector-effect="non-scaling-stroke"/><path stroke="#154d8b" d="M160.82 164.28q-2.28-.46-4.59-.22-3.86.39-4.51.4-6.89.1-13.83.88" vector-effect="non-scaling-stroke"/><path stroke="#1d7caf" d="M128.04 145.25q3.94 10.77 9.85 20.09" vector-effect="non-scaling-stroke"/><path stroke="#2770a4" d="m137.89 165.34 1.86 3.12" vector-effect="non-scaling-stroke"/><path stroke="#1ba0c8" d="M139.75 168.46q-2.35-1.62-5.02-.86-.49.13-.97.05-1.98-.35-3.8.35" vector-effect="non-scaling-stroke"/><path stroke="#2f94c2" d="m129.96 168-3.46-6.04" vector-effect="non-scaling-stroke"/><path stroke="#379dc7" d="m126.5 161.96-3.63-8.16" vector-effect="non-scaling-stroke"/><path stroke="#42a8cd" d="m122.87 153.8-5.08-14.3" vector-effect="non-scaling-stroke"/><path stroke="#4cb2d2" d="m117.79 139.5-7.08-22" vector-effect="non-scaling-stroke"/><path stroke="#34a2c9" d="m110.54 116.75.17.75" vector-effect="non-scaling-stroke"/><path stroke="#51b5d4" d="M110.71 117.5q-3.48 1.07-7.33.58" vector-effect="non-scaling-stroke"/><path stroke="#99d0e3" d="m103.38 118.08-.67-2.83" vector-effect="non-scaling-stroke"/><path stroke="#1b69a0" d="M169.04 168.5q-1.05 1.85-3 2.54a.78.75 58.3 0 1-.82-.21q-2.64-2.8-4.4-6.55" vector-effect="non-scaling-stroke"/><path stroke="#99d0e3" d="m100.79 107.5 1.92 7.75" vector-effect="non-scaling-stroke"/><path stroke="#f9fbfc" stroke-opacity=".996" d="m102.71 115.25-.71-.79M76.71 134l-.42-.25" vector-effect="non-scaling-stroke"/><path stroke="#99d0e3" d="m76.29 133.75.49-3.74q.09-.7.22-.94 2.54-4.39 3.79-9.32" vector-effect="non-scaling-stroke"/><path stroke="#aed7e5" d="m80.79 119.75.25-.5" vector-effect="non-scaling-stroke"/><path stroke="#4eaccd" d="M80.79 119.75c.05-1.34-5-.48-6.25-.71a1.26 1.1-53.6 0 0-.89.2q-1.27.85-2.69.76" vector-effect="non-scaling-stroke"/><path stroke="#3983b0" d="m70.96 120 3.18-4.59" vector-effect="non-scaling-stroke"/><path stroke="#c6e4ee" d="m30.96 126.75-3.17 4.5" vector-effect="non-scaling-stroke"/><path stroke="#9c9f9b" stroke-opacity=".992" d="m27.79 131.25-.54-.96" vector-effect="non-scaling-stroke"/><path stroke="#99d0e3" d="M76.29 133.75 72 147.21m0 0-.46 1.04" vector-effect="non-scaling-stroke"/><path stroke="#1d9ac4" d="M71.54 148.25q-.77-1.24-2.23-1.09a1.96.97-19.9 0 1-.96-.11l-2.71-1.24" vector-effect="non-scaling-stroke"/><path stroke="#1e97c4" d="m65.64 145.81 3.94-6.5" vector-effect="non-scaling-stroke"/><path stroke="#299fc8" d="m69.58 139.31 3.42-5.26a.38.37 23.1 0 0-.24-.56q-5.45-1.32-11.05-.34" vector-effect="non-scaling-stroke"/><path stroke="#0e91c0" d="M69.58 139.31q-5.73-1.08-11.54-.56" vector-effect="non-scaling-stroke"/><path stroke="#018bbd" d="m65.64 145.81-3.6 5.69" vector-effect="non-scaling-stroke"/><path stroke="#0276af" d="m62.04 151.5-9.04-.48a1.48.77 55 0 1-.81-.42l-.69-.64" vector-effect="non-scaling-stroke"/><path stroke="#eff7f9" d="m62.25 85.96-1 .33" vector-effect="non-scaling-stroke"/><path stroke="#dceef4" d="m20.71 147.75-1.85 3.6a.34.33 30.6 0 1-.49.12l-.33-.22" vector-effect="non-scaling-stroke"/><path stroke="#929b98" stroke-opacity=".992" d="m27.25 131.79-.5-.08" vector-effect="non-scaling-stroke"/><path stroke="#dceef4" d="M11 171.96q1.66 1.55.07 2.93a1.42 1.08-23.2 0 0-.46.81q-.6 5.46 2.39 1.59 2.59-3.35 4.45-8.39a.95.61-76.8 0 1 .65-.63q.54-.03.65.77" vector-effect="non-scaling-stroke"/><path stroke="#7cc4dc" d="m18.75 169.04-7.66 14.2a.52.47-74.8 0 0 .39.76l8.02-.04m52.04-35.71c-4.25 18.1-12.75 32.77-32.84 34.89" vector-effect="non-scaling-stroke"/><path stroke="#0179b0" d="m53.04 167.5 9-16" vector-effect="non-scaling-stroke"/><path stroke="#829abb" d="m194 180.96-7.8-.17" vector-effect="non-scaling-stroke"/><path stroke="#17468e" d="M186.2 180.79q-2.09-3.32-5.05-6.02a.68.48 45.4 0 0-.75-.14l-4.09 3.19a1.1.88 72.4 0 0-.34.88q.15 2.04 2.28 2.26" vector-effect="non-scaling-stroke"/><path stroke="#829abb" d="m178.25 180.96-7.5.25" vector-effect="non-scaling-stroke"/><path stroke="#17468e" d="M170.75 181.21c6.42-.41-3.99-7.83-5.13-8.78a.84.56 44.3 0 0-.86-.16q-5.12 3.55-10.81 6.13a.96.69 82 0 0-.42.8l-.03 1.76" vector-effect="non-scaling-stroke"/><path stroke="#829abb" d="m153.5 180.96-8.25.25" vector-effect="non-scaling-stroke"/><path stroke="#1f5a99" d="M145.25 181.21v-.67" vector-effect="non-scaling-stroke"/><path stroke="#1370a4" d="M145.25 180.54q2.88.09 5.32-1.28a.31.31 0 0 0 .01-.53q-6.33-4.16-10.83-10.27" vector-effect="non-scaling-stroke"/><path stroke="#8fcbe0" d="m198.29 130.5 1.54-7.22q.11-.5-.22-.13-.58.64-.64 1.58a.61.51-89.6 0 1-.47.55q-2.57.29-5.07-.45a1.36.53 24.5 0 0-.92-.05l-1.92.83a.54.52 68.6 0 1-.71-.32l-.38-1.08" vector-effect="non-scaling-stroke"/><path stroke="#99d0e3" d="M205.5 89.21q-6.23 5.8-9.21 13.79" vector-effect="non-scaling-stroke"/><path stroke="#abd9e9" d="m196.29 103-2.08 6" vector-effect="non-scaling-stroke"/><path stroke="#b9deeb" d="m194.21 109-4.71 15.21" vector-effect="non-scaling-stroke"/><path stroke="#cee7f0" d="M189.5 124.21c-.35 1.38-2.71 11.06-4 10.83" vector-effect="non-scaling-stroke"/><path stroke="#bbbdbd" stroke-opacity=".702" d="m185.5 135.04-.75-1.5" vector-effect="non-scaling-stroke"/><path stroke="#0a7baf" d="M201.21 132q-1.66 3.33-4.89 5.34" vector-effect="non-scaling-stroke"/><path stroke="#63bad6" d="m196.32 137.34.22-1.84" vector-effect="non-scaling-stroke"/><path stroke="#52b1d1" d="m196.54 135.5 1.75-5" vector-effect="non-scaling-stroke"/><path stroke="#3da8cc" d="m198.29 130.5 5.42-17" vector-effect="non-scaling-stroke"/><path stroke="#2fa3ca" d="m203.71 113.5 2.5-7.75" vector-effect="non-scaling-stroke"/><path stroke="#1d9ac4" d="M206.21 105.75q2.66-8.52 8.98-15.34" vector-effect="non-scaling-stroke"/><path stroke="#bbbdbd" stroke-opacity=".702" d="M184.25 133.54q.74 1.28 0 2.42" vector-effect="non-scaling-stroke"/><path stroke="#115d99" d="M218.57 147.73q-5.79-.29-11.56-.63-1.94-.11-7.02 0-3.48.08-7.04-.35" vector-effect="non-scaling-stroke"/><path stroke="#0b78af" d="M192.95 146.75q.89-1.22.01-3" vector-effect="non-scaling-stroke"/><path stroke="#6ca6c8" d="m192.96 143.75 3.36-6.41" vector-effect="non-scaling-stroke"/><path stroke="#174a88" d="M208.36 165.42q-4.5-1.86-9.14-.75a1.75 1.41 43.2 0 1-.94-.07c-2.09-.78-3.99.19-5.47.16q-2.44-.07-4.76-.84a.62.6-64.6 0 0-.72.27q-.82 1.4-2.08 2.27" vector-effect="non-scaling-stroke"/><path stroke="#128abd" d="M145.25 180.54q-7.3-2.09-12.04-8.04" vector-effect="non-scaling-stroke"/><path stroke="#1a94c2" d="m129.96 168 3.25 4.5" vector-effect="non-scaling-stroke"/><path stroke="#267eb7" d="m133.21 172.5-10.2.5" vector-effect="non-scaling-stroke"/><path stroke="#93c1dc" d="m123.01 173-5.8-8.5" vector-effect="non-scaling-stroke"/><path stroke="#49a6cc" d="M122.87 153.8q-3.67 1.58-8.05 1.28-.92-.07-1.11.92" vector-effect="non-scaling-stroke"/><path stroke="#a6d6e7" d="m113.71 156-.25-.5" vector-effect="non-scaling-stroke"/><path stroke="#9dd2e4" d="m113.46 155.5-3.17-9.75" vector-effect="non-scaling-stroke"/><path stroke="#a6d6e7" d="m110.29 145.75-.58-2.5" vector-effect="non-scaling-stroke"/><path stroke="#3692c1" d="m126.5 161.96-9.85.77" vector-effect="non-scaling-stroke"/><path stroke="#92c7de" d="m116.65 162.73-2.11-4.23" vector-effect="non-scaling-stroke"/><path stroke="#9bcbe1" d="m114.54 158.5-.83-2.5" vector-effect="non-scaling-stroke"/><path stroke="#5ebbd7" d="m117.79 139.5-.56.66a.87.79 28.6 0 1-.91.22q-3.12-1.09-6.28.01a.47.38-21.7 0 0-.31.56q.52.98.06 2.05" vector-effect="non-scaling-stroke"/><path stroke="#a7dce9" d="m109.79 143-2.29-7.29" vector-effect="non-scaling-stroke"/><path stroke="#b0e0ec" d="m103.38 118.08 4.12 17.63" vector-effect="non-scaling-stroke"/><path stroke="#eff7f9" d="m107.5 135.71-.75.33" vector-effect="non-scaling-stroke"/><path stroke="#f9fbfc" stroke-opacity=".996" d="m72.5 147.29-.5-.08" vector-effect="non-scaling-stroke"/><path stroke="#7a9fc9" d="m170.75 181.21-17.25-.25" vector-effect="non-scaling-stroke"/><path stroke="#7cadcc" d="m209.5 173.29-.34.01a.94.9 21.9 0 0-.6.24q-6.24 5.77-14.56 7.42" vector-effect="non-scaling-stroke"/><path stroke="#195491" d="M194 180.96q-1-.26-1.04-1.21a.91.74-18 0 1 .48-.74q6.13-3.47 11.04-8.37" vector-effect="non-scaling-stroke"/><path stroke="#929b98" stroke-opacity=".992" d="m179.25 182.54-1.5-.08" vector-effect="non-scaling-stroke"/><path stroke="#7a9fc9" d="M178.25 180.96q3.72.5 7.95-.17" vector-effect="non-scaling-stroke"/><path stroke="#3192c2" d="m232.46 137.75-13 19.25" vector-effect="non-scaling-stroke"/><path stroke="#1c78af" d="M219.46 157c-1.58 1.66-2.36 3.83-4.49 4.83a1.72 1.22-5.9 0 0-.74.65q-1.12 2.09-3.29 2.93a1.57 1.22-81.5 0 0-.73.7q-1.87 3.52-5.73 4.53" vector-effect="non-scaling-stroke"/><path stroke="#22659f" d="m204.48 170.64 3.88-5.22" vector-effect="non-scaling-stroke"/><path stroke="#1a6ea7" d="M208.36 165.42q5.66-8 10.21-17.69" vector-effect="non-scaling-stroke"/><path stroke="#1c78af" d="m218.57 147.73 7.07-13.92" vector-effect="non-scaling-stroke"/><path stroke="#82b4d4" d="m145.25 181.21-7.25.08" vector-effect="non-scaling-stroke"/><path stroke="#6cbdd9" d="m203.71 113.5-.63-1.99a.86.49 76.5 0 0-.58-.62l-7.25.03a.97.49-5.9 0 1-.79-.3q-.39-.73-.25-1.62" vector-effect="non-scaling-stroke"/><path stroke="#1787b9" d="M230.5 80.29c-1.87.88-1.63 2.88-3.5 3.25" vector-effect="non-scaling-stroke"/><path stroke="#0d94c1" d="M227 83.54q-6.97 1.92-11.81 6.87" vector-effect="non-scaling-stroke"/><path stroke="#299fc8" d="M215.19 90.41q-2.62-1.5-5.46-1.18-.08.01-1.89.66-1.27.46-2.34-.68" vector-effect="non-scaling-stroke"/><path stroke="#89cae0" d="m205.5 89.21-.21-1.21" vector-effect="non-scaling-stroke"/><path stroke="#7fc6dd" d="M205.71 88q-.08.46.11.65a.86.18-35.3 0 0 .78-.34l4.24-3.01a.6.18-33.3 0 0 .36-.43q-.05-.19-.2-.33" vector-effect="non-scaling-stroke"/><path stroke="#4caed1" d="M206.21 105.75q-.27-.59-.26-1.29a.49.32 4.5 0 0-.44-.34l-4.5-.48a1.27.2 8.4 0 0-.94.01q-2.17 1.03-3.78-.65" vector-effect="non-scaling-stroke"/><path stroke="#55a1c8" d="M245.63 94.65q-4.07 6.22-7.17 13.1" vector-effect="non-scaling-stroke"/><path stroke="#358ebe" d="m238.46 107.75-6.06 12.1" vector-effect="non-scaling-stroke"/><path stroke="#1d7fb6" d="m232.4 119.85-6.76 13.96" vector-effect="non-scaling-stroke"/><path stroke="#146ea8" d="M225.64 133.81q-3.11 0-6.1.12c-5.12.21-10.24-.62-15.37-.86a1.79 1.58-54.7 0 0-.93.22q-2.91 1.59-2.03-1.29" vector-effect="non-scaling-stroke"/><path stroke="#0b81b6" d="M201.21 132q14.43-22.31 25.83-46.3a1.86 1.28 62.8 0 0 .12-.94l-.16-1.22" vector-effect="non-scaling-stroke"/><path stroke="#8bb7d7" d="M123.01 173q5.89 7.37 14.99 8.29" vector-effect="non-scaling-stroke"/><path stroke="#eff7f9" d="m138 181.29.04.71" vector-effect="non-scaling-stroke"/><path stroke="#8abed9" d="m116.65 162.73.56 1.77" vector-effect="non-scaling-stroke"/><path stroke="#eff7f9" d="M117.21 164.5h-.67m-2-6-1 .5m-.08-3.5-.96-.29" vector-effect="non-scaling-stroke"/><path stroke="#9dd2e4" d="m109.79 143-.08.25" vector-effect="non-scaling-stroke"/><path stroke="#eff7f9" d="m109.71 143.25-.92-.25m1.5 2.75-.29.79" vector-effect="non-scaling-stroke"/><path stroke="#cdd2cd" stroke-opacity=".992" d="m107.75 145.54-.46-.04" vector-effect="non-scaling-stroke"/><path stroke="#eff7f9" d="m225.5 157.79.75.5m-11.5 11.92-.75.33" vector-effect="non-scaling-stroke"/><path stroke="#86b1ce" d="M209.75 173.21q-.39-.54.31-1.15 6.33-5.45 11.73-13.56" vector-effect="non-scaling-stroke"/><path stroke="#9bcbe1" d="m221.79 158.5 1.21-.46" vector-effect="non-scaling-stroke"/><path stroke="#bbbdbd" stroke-opacity=".702" d="M223 158.04q.13 1.1 1 1.66.51.34.34-.25-.27-.92-1.09-1.49" vector-effect="non-scaling-stroke"/><path stroke="#9bcbe1" d="M223.25 157.96q-.07-.14-.19-.21a.22.18 31.6 0 1-.1-.28l12.37-18.5" vector-effect="non-scaling-stroke"/><path stroke="#367897" stroke-opacity=".702" d="m223.25 157.96-.25.08" vector-effect="non-scaling-stroke"/><path stroke="#2981b4" d="M221.79 158.5q-.32-1.86-2.33-1.5" vector-effect="non-scaling-stroke"/><path stroke="#72bdd8" d="m245.18 111.85-3.93 8.19" vector-effect="non-scaling-stroke"/><path stroke="#3d99c5" d="M241.25 120.04q-4.43 1.49-8.85-.19" vector-effect="non-scaling-stroke"/><path stroke="#c4e6ef" d="m241.04 130-5.71 8.97" vector-effect="non-scaling-stroke"/><path stroke="#67b7d5" d="M235.33 138.97q-1.26-.94-2.87-1.22" vector-effect="non-scaling-stroke"/><path stroke="#5aaed0" d="M232.46 137.75q4.89-8.61 8.79-17.71" vector-effect="non-scaling-stroke"/><path stroke="#eff7f9" d="m252.75 113.54-1.25.5m-9.95 16.36-.51-.4" vector-effect="non-scaling-stroke"/><path stroke="#bae3ed" d="m241.04 130 11.06-19.5" vector-effect="non-scaling-stroke"/><path stroke="#d5ecf3" d="m252.1 110.5 9.7-17.98q1.34-2.47-1.54-2.5l-7.26-.06" vector-effect="non-scaling-stroke"/><path stroke="#bde0ec" d="M253 89.96c.23-1.19 2.53-7.23.64-7.41a.82.62-71.9 0 0-.7.49q-2.95 6.25-7.31 11.61" vector-effect="non-scaling-stroke"/><path stroke="#7db4d2" d="m245.63 94.65 7.07-13.48a.62.59-75.7 0 0-.51-.9l-21.69.02" vector-effect="non-scaling-stroke"/><path stroke="#7fc6dd" d="m230.5 80.29-11.75 1.92" vector-effect="non-scaling-stroke"/><path stroke="#eff7f9" d="m218.71 82 .04.21" vector-effect="non-scaling-stroke"/><path stroke="#89cae0" d="M218.75 82.21q-3.61.77-6.77 2.65a.39.24-31.7 0 1-.45 0q-.09-.12-.03-.32" vector-effect="non-scaling-stroke"/><path stroke="#add9e8" d="m253 89.96-5.71 16.29" vector-effect="non-scaling-stroke"/><path stroke="#75bbd7" d="m247.29 106.25-6.11-.08a.87.68-72.8 0 0-.69.48q-.7 1.38-2.03 1.1" vector-effect="non-scaling-stroke"/><path stroke="#aadce9" d="M252.1 110.5q-.99-2.62-3.61-1.93a.88.74-88.2 0 0-.57.64q-.52 2.18-2.74 2.64" vector-effect="non-scaling-stroke"/><path stroke="#8dc7de" d="m245.18 111.85 2.11-5.6" vector-effect="non-scaling-stroke"/><path stroke="#eff7f9" d="m192 96.96.54.29m71.96 3.96.46.54" vector-effect="non-scaling-stroke"/><path stroke="#1e201c" stroke-opacity=".992" d="M351.16 111.96q1.15.75 2.65.73a1.21.92-16.5 0 1 .85.32q1.27 1.4 1.09 3.52" vector-effect="non-scaling-stroke"/><path stroke="#3b383c" d="M345.75 115.96c-2.25-.29-8.63 1.47-7.54 4.79" vector-effect="non-scaling-stroke"/><path stroke="#2d322d" stroke-opacity=".996" d="M338.25 122.21c-.05 3.33 4.92 5.4 7 6.25" vector-effect="non-scaling-stroke"/><path stroke="#3b383c" d="m345.25 128.46 8.25 4.33" vector-effect="non-scaling-stroke"/><path stroke="#50544e" stroke-opacity=".992" d="M353.5 132.79q6.56 5.89 2.17 11.92c-4.52 6.23-16.42 5.15-22.73 2.86" vector-effect="non-scaling-stroke"/><path stroke="#50544e" stroke-opacity=".992" d="M351.75 138.04q-.52-2.02-2.5-2.83" vector-effect="non-scaling-stroke"/><path stroke="#3b383c" d="M349.25 135.21q-4.39-2.79-9.25-4.67m0 0c-8.29-3.69-9.84-13.61-.24-16.95q2.01-.7 3.95-1.59" vector-effect="non-scaling-stroke"/><path stroke="#8b8d8b" stroke-opacity=".992" d="m349.25 135.21-.29.29" vector-effect="non-scaling-stroke"/><path stroke="#696b6a" stroke-opacity=".996" d="M345.25 128.04v.42" vector-effect="non-scaling-stroke"/><path stroke="#8b8d8b" stroke-opacity=".992" d="m354 132.71-.5.08" vector-effect="non-scaling-stroke"/><path stroke="#767179" stroke-opacity=".996" d="m340 130.54-.25.25" vector-effect="non-scaling-stroke"/><path stroke="#696b6a" stroke-opacity=".996" d="m317.25 121.71-.29.29" vector-effect="non-scaling-stroke"/><path stroke="#3b383c" d="m316.96 122-3.59-8.23a1.27 1.1 85.8 0 0-.65-.65q-2.28-.83-4.68-.12" vector-effect="non-scaling-stroke"/><path stroke="#5a5959" stroke-opacity=".992" d="m308.04 113-.08-.25" vector-effect="non-scaling-stroke"/><path stroke="#1e201c" stroke-opacity=".992" d="M308.04 113q-.8 3.28-2.75 6" vector-effect="non-scaling-stroke"/><path stroke="#2d322d" stroke-opacity=".996" d="m316.96 122 10.88 24.61" vector-effect="non-scaling-stroke"/><path stroke="#1e201c" stroke-opacity=".992" d="M321.99 146.22q.3-1.52-.53-2.47" vector-effect="non-scaling-stroke"/><path stroke="#3b383c" d="m321.46 143.75-1.68-4.18a2.33 2.19-11.1 0 0-2.18-1.37q-7.34.18-14.33-.1c-.69-.03-1.67.28-1.02 1.19" vector-effect="non-scaling-stroke"/><path stroke="#1e201c" stroke-opacity=".992" d="M298.79 134.25q2.95-4.51 4.25-9.75" vector-effect="non-scaling-stroke"/><path stroke="#5a5959" stroke-opacity=".992" d="m321.46 143.75-.46.04" vector-effect="non-scaling-stroke"/><path stroke="#3b383c" d="m446.19 112.44 18.01.32a.93.77-11.1 0 1 .76.41q1.14 2.1-.96 3.29m-12 0q-1.21-.55-2.31.07a.87.8-16 0 0-.44.72V128a.75.75 0 0 0 .75.75h13a.95.84-14 0 1 .78.41q.94 1.5.22 3.3m-13.41-.02c-2.18-1.78-1.32 11.05-1.31 11.76a1.54 1.53-.2 0 0 1.54 1.52l14.43.04a.62.52 84.2 0 1 .53.51l.47 2.69" vector-effect="non-scaling-stroke"/><path stroke="#2d322d" stroke-opacity=".996" d="m380.04 112.5-12.04.12q-2.71.03-2.59 2.51.83 16.91-.15 33.03" vector-effect="non-scaling-stroke"/><path stroke="#3b383c" d="M382.18 113.15c5.45 1.41 8.34 5.35 7.86 11.03q-.72 8.34-10.02 10.61" vector-effect="non-scaling-stroke"/><path stroke="#646565" stroke-opacity=".996" d="M370.72 135.19q-1.26 6.89-.29 13.75" vector-effect="non-scaling-stroke"/><path stroke="#2d322d" stroke-opacity=".996" d="M427.9 140.87 408 113.44a1.68 1.28 74.6 0 0-.76-.58q-3.4-1.1-6.01 1.05" vector-effect="non-scaling-stroke"/><path stroke="#1e201c" stroke-opacity=".992" d="M426.75 147.29q-.95-3.27-3.75-5.25" vector-effect="non-scaling-stroke"/><path stroke="#2d322d" stroke-opacity=".996" d="M422.71 141.25q-.18-1.5-1.46-2.29" vector-effect="non-scaling-stroke"/><path stroke="#1e201c" stroke-opacity=".992" d="m421.25 138.96-5.71-7.96" vector-effect="non-scaling-stroke"/><path stroke="#2d322d" stroke-opacity=".996" d="m415.54 131-7.25-10.25" vector-effect="non-scaling-stroke"/><path stroke="#646565" stroke-opacity=".996" d="M408.29 120.75q-2.57-4.56-1.8-.75" vector-effect="non-scaling-stroke"/><path stroke="#50544e" stroke-opacity=".992" d="M429 141.04c-1.61.29 1.75 4.18.25-.08" vector-effect="non-scaling-stroke"/><path stroke="#4c534a" stroke-opacity=".988" d="m421.25 138.96-.29.29" vector-effect="non-scaling-stroke"/><path stroke="#929893" stroke-opacity=".992" d="m408.29 120.75-.54.29" vector-effect="non-scaling-stroke"/><path stroke="#4c534a" stroke-opacity=".988" d="m415.54 131-.08.5" vector-effect="non-scaling-stroke"/><path stroke="#50544e" stroke-opacity=".992" d="M497.6 116.64q.88-1.92.11-3.45a.88.79-12 0 0-.76-.44l-26.67.21" vector-effect="non-scaling-stroke"/><path stroke="#3b383c" d="M489 116.71q-1.05-.94-2.15-.31a.92.87 76.2 0 0-.45.79l.06 13.06" vector-effect="non-scaling-stroke"/><path stroke="#2d322d" stroke-opacity=".996" d="M486.46 130.25c-.08 1.44-1.02 15.7.11 17.44q.33.5.38-.23l.26-3.71" vector-effect="non-scaling-stroke"/><path stroke="#696b6a" stroke-opacity=".996" d="M487.21 132q-1.18 0-.75-1.75" vector-effect="non-scaling-stroke"/><path stroke="#2d322d" stroke-opacity=".996" d="M392.96 148q-2.93 2.17-6.2.31" vector-effect="non-scaling-stroke"/><path stroke="#d7dfe0" stroke-opacity=".996" d="M224.5 177.21q-1.17.74.04 1.54" vector-effect="non-scaling-stroke"/><path stroke="#646565" stroke-opacity=".996" d="m224.54 178.75-.79 1.29" vector-effect="non-scaling-stroke"/><path stroke="#989a99" stroke-opacity=".698" d="m223.75 180.04-.5-.33" vector-effect="non-scaling-stroke"/><path stroke="#646565" stroke-opacity=".996" d="M223.25 179.71q.46-1.98.06-3.88a.92.33 76.1 0 0-.58-.88l-1 .49a.97.33 61.2 0 0 .18 1.03q.92 1.64.8 3.53" vector-effect="non-scaling-stroke"/><path stroke="#989a99" stroke-opacity=".698" d="m222.71 180 .29 1.21" vector-effect="non-scaling-stroke"/><path stroke="#929893" stroke-opacity=".992" d="m220.5 180.46.25-1.17" vector-effect="non-scaling-stroke"/><path stroke="#646565" stroke-opacity=".996" d="M220.25 175.96q-1.65-2.12-3.04-.21" vector-effect="non-scaling-stroke"/><path stroke="#b5bab4" stroke-opacity=".988" d="m217.21 175.75-1.21.21" vector-effect="non-scaling-stroke"/><path stroke="#7c7d7e" d="m226.04 179-.33 1.75" vector-effect="non-scaling-stroke"/><path stroke="#646565" stroke-opacity=".996" d="m225.71 180.75-1.71-.29" vector-effect="non-scaling-stroke"/><path stroke="#090a0a" stroke-opacity=".702" d="m224 180.46-.25-.42m-.5-.33-.54.29" vector-effect="non-scaling-stroke"/><path stroke="#eff7f9" d="m226.29 178.75-.25.25" vector-effect="non-scaling-stroke"/><path stroke="#737a7b" d="m226.04 179-1.5-.25" vector-effect="non-scaling-stroke"/><path stroke="#50544e" stroke-opacity=".992" d="M219.75 176.04q-1.42.6-2.54-.29" vector-effect="non-scaling-stroke"/><path stroke="#8b8d8b" stroke-opacity=".992" d="M219.46 177.5q-.38-.15-.69-.12a.72.42 89.8 0 0-.39.68q-.03.7-.84.94" vector-effect="non-scaling-stroke"/><path stroke="#989a99" stroke-opacity=".698" d="m224 180.46-.29.79" vector-effect="non-scaling-stroke"/><path stroke="#e1e3e3" stroke-opacity=".996" d="m226 181.21-.29-.46" vector-effect="non-scaling-stroke"/><path stroke="#2d322d" stroke-opacity=".996" d="M227.96 177.5q-1.34.13-1.21 1.21" vector-effect="non-scaling-stroke"/><path stroke="#7c7d7e" d="m226.75 178.71-.46.04" vector-effect="non-scaling-stroke"/><path stroke="#737a7b" d="m226.29 178.75-.33-1.25" vector-effect="non-scaling-stroke"/><path stroke="#696b6a" stroke-opacity=".996" d="m219.54 179.25.25 1.25" vector-effect="non-scaling-stroke"/><path stroke="#e1e3e3" stroke-opacity=".996" d="m226.75 181.29.54-.54" vector-effect="non-scaling-stroke"/><path stroke="#929893" stroke-opacity=".992" d="M227.29 180.75c1.64 2.01.9-2.53.67-3.25" vector-effect="non-scaling-stroke"/><path stroke="#646565" stroke-opacity=".996" d="M227.96 177.5q1.15-2.49-.71-2.33a.52.45 83.7 0 0-.4.58q.15 1.09-.64 1.25" vector-effect="non-scaling-stroke"/><path stroke="#aab0ac" stroke-opacity=".996" d="M227.29 180.75q.26-1.23-.54-2.04" vector-effect="non-scaling-stroke"/><path stroke="#eff7f9" d="m146.75 186.04-.54-.79" vector-effect="non-scaling-stroke"/><path stroke="#1e201c" stroke-opacity=".992" d="M385.29 124q.73-2.5-.79-4.54" vector-effect="non-scaling-stroke"/><path stroke="#3b383c" d="M384.5 119.46q-3.08-3.84-8-3" vector-effect="non-scaling-stroke"/><path stroke="#50544e" stroke-opacity=".992" d="M373.75 116.46q-1.89-.8-3.33.24a1.03.37 85.4 0 0-.22.8l-.03 12a1.14.1-89.3 0 0 .07.97q1.71 2.67 5.09.6" vector-effect="non-scaling-stroke"/><path stroke="#5a5959" stroke-opacity=".992" d="m384.5 119.46-.5.08" vector-effect="non-scaling-stroke"/><path stroke="#2d322d" stroke-opacity=".996" d="M309.71 120q-.85.23-.8 1.02a1.85.85 74.6 0 1-.15.93q-1.78 3.36-2.51 7.09m10.21 5.46q.34.31.75.3a.43.37 76.1 0 0 .3-.59l-4.51-11" vector-effect="non-scaling-stroke"/><path stroke="#3b383c" d="m313 123.21-2.07-4.95q-.33-.81-.69-.26-.15.23.05.75" vector-effect="non-scaling-stroke"/><path stroke="#696b6a" stroke-opacity=".996" d="m313 123.21-.46.04" vector-effect="non-scaling-stroke"/></g><path fill="#e5f3f6" d="M58.01 80.53q-1.66-.42-.57-1.56a.75.46 45.1 0 1 .87.21l1.38 1.38a.86.48 44.3 0 1 .27.91q-1.03 1.24-1.49-.49a.64.64 0 0 0-.46-.45Zm27.09-.54c-.93-2.3 3.62.24.71.44a.73.69-11.6 0 1-.71-.44Z"/><path fill="#f9fbfc" fill-opacity=".996" d="M94 79q.78-.03.75.75-.03 1.02-.59.62l-1.01-.73q-.82-.58.85-.64Zm16.16.13q1.36-.33 2.66.01 1.34.36-.15 1.06-1 .47-2.06-.12-1.32-.73-.45-.95Zm38.13 7.37q-.48.8-1.64.06-3.04-1.95-6.86-.61-1.27.44-.19 1.22 3.15 2.29 4.03 6.35c-4.11-5.13-8.76-9.7-15.59-10.52l-2.79-.54-.04-.71q.43-.75.17-1.57a.86.49 71.6 0 1 .19-.94q1.99-.8 1.37 1.76a.8.63-2.1 0 0 .98.71c2.57-.53 4.95.64 8.27-.27a1.32 1.27-39.6 0 1 .92.07c3.06 1.41 5.85.68 8.31 2.91a.96.83-29 0 0 .84.18q1.77-.44 2.03 1.9Z"/><path fill="#f9fbfc" fill-opacity=".996" d="M132.22 80a.54.54 0 0 1-.75.23c-2.08-1.18 1.63-2.02.75-.23Z"/><ellipse fill="#f9fbfc" fill-opacity=".996" rx=".69" ry=".62" transform="rotate(45.2 -28.313 201.478)"/><ellipse fill="#e5f3f6" rx=".81" ry=".72" transform="rotate(45 5.177 284.644)"/><path fill="#e5f3f6" d="M206.47 79.86q-.6-1.47 1.11-.39.67.42.09.72l-.46.24a.8.43 66.1 0 1-.74-.57Z"/><path fill="#f9fbfc" fill-opacity=".996" d="m218.71 82 .04.21q-3.61.77-6.77 2.65a.39.24-31.7 0 1-.45 0q-.09-.12-.03-.32.45-2.26 2.49-1.78a.84.75 25.5 0 0 .8-.23c.39-.44 3.73-5.3 4.14-2.92a.61.55-14 0 1-.43.63q-2.73.81.21 1.76Z"/><path fill="#e5f3f6" d="m252.75 113.54-1.25.5q-2.91 4.08-4.85 8.71a1.67 1.08-84.3 0 1-.6.75q-2.11 1.19-.83 2.95a.71.58 52.2 0 1-.02.89l-3.65 3.06-.51-.4 11.06-19.5 9.7-17.98q1.34-2.47-1.54-2.5l-7.26-.06c.23-1.19 2.53-7.23.64-7.41a.82.62-71.9 0 0-.7.49q-2.95 6.25-7.31 11.61l7.07-13.48a.62.59-75.7 0 0-.51-.9l-21.69.02-11.75 1.92-.04-.21q.09-.76.47-1.39a1.04.66 9 0 1 .82-.35l5 .04a1.42 1.18 18.8 0 0 .94-.36l.62-.63a1.46 1 15.2 0 1 .94-.33l41.25.1a1.1.63-8.1 0 1 .86.34l.91 1.56a.84.3-28 0 1-.62.68q-1.99 1.02.46 1.75a.6.42 18.6 0 1 .46.62q-.28.7-3.33.92-.83.06-.33.61 1.42 1.54-.66 1.9a1.16.58-68.6 0 0-.64.58q-3.07 5.49-5.97 11.03c-1.46 2.79-4.17 6.16-5.5 9.82q-.3.84-1.78 2.6-1.18 1.42.14 2.05ZM68.99 80.25q.7.25.77 1a.51.49-1.4 0 1-.54.54q-1.61-.08-1.65-1.83-.02-.84.5-.28l.25.26q.08.09.67.31Z"/><ellipse fill="#f9fbfc" fill-opacity=".996" rx=".96" ry=".73" transform="rotate(72.7 17.05 138.549)"/><rect width="3.24" height="103.18" x="276.5" y="80.04" rx="1.1"/><path fill="#e5f3f6" d="m125.21 81.75.04.71-9.75.83q-14.13-1.29-28.29.03c-3.72-.86-10.95-1.45-14.25.93q-4.13-.04-7.24 2.72-1.55 1.37-2.01-.22c.75-1.16 4.31-.36 2.11-2.46a.83.42 41.3 0 1-.33-.82q.73-1.02 1.44.11a.67.52-28.6 0 0 .8.13q1.93-.96 4.03-.52a.94.36 15.9 0 0 .8-.07q1.42-1.49 3.44-1.4a.72.54-76.6 0 0 .59-.49c1.3-3.76 1.07 3.3 3.22-.52a1.13.96-58.8 0 1 1.46-.49l1.79 1.22a1.39.67 42.5 0 0 .95.29q2-.47 4.06.22a.59.4 17.6 0 0 .7-.21q.7-2.58 2.05-.59a1.14.52 62.5 0 0 .73.57q13.69.06 27.37.02c.75-.01 1.82.72 2.17-.54a1.22.64-82 0 1 .57-.8q1.08-.36 1.11.85a.85.54 13.5 0 0 .57.59q.89.33 1.87-.09Z"/><path fill="#1999c4" d="M230.5 80.29c-1.87.88-1.63 2.88-3.5 3.25q-6.97 1.92-11.81 6.87-2.62-1.5-5.46-1.18-.08.01-1.89.66-1.27.46-2.34-.68l-.21-1.21h.42q-.08.46.11.65a.86.18-35.3 0 0 .78-.34l4.24-3.01a.6.18-33.3 0 0 .36-.43q-.05-.19-.2-.33h.5q-.06.2.03.32a.39.24-31.7 0 0 .45 0q3.16-1.88 6.77-2.65l11.75-1.92Z"/><path fill="#1574ae" d="m230.5 80.29 21.69-.02a.62.59-75.7 0 1 .51.9l-7.07 13.48q-4.07 6.22-7.17 13.1l-6.06 12.1-6.76 13.96q-3.11 0-6.1.12c-5.12.21-10.24-.62-15.37-.86a1.79 1.58-54.7 0 0-.93.22q-2.91 1.59-2.03-1.29 14.43-22.31 25.83-46.3a1.86 1.28 62.8 0 0 .12-.94l-.16-1.22c1.87-.37 1.63-2.37 3.5-3.25Z"/><path fill="#e5f3f6" d="M205.23 82.01c1.93-.86.99 2.56.88 3.28q-.18 1.18-.52.05l-.79-2.65a.69.51-21.5 0 1 .43-.68Z"/><path fill="#f9fbfc" fill-opacity=".996" d="M209.74 81.74q1.61.02.59 1.09a.76.5-39.6 0 1-1.05.12l-.32-.68a.7.39-5.1 0 1 .78-.53Z"/><path fill="#0264a2" d="M87.21 83.32q6.58 3.46 11.33 8.68l3.96 5.79-.71 1.21-2.83 2.5-2.74-7.04a.57.53 59.5 0 0-.86-.25L88.54 100q-.2-1.63-1.88-.84c-6.1 2.86-12.65 2.35-19.25 4.27-3.39.99-6.11.03-9.5 1.82a1.62.51-34.4 0 1-.98.3q-3.15-.4-1.11-3.03a.91.75-44.5 0 0 .1-.96q-.16-.25-.42-.35 6.28-10.26 16.79-16c.43-.24.55-.52.67-.96 3.3-2.38 10.53-1.79 14.25-.93Z"/><path fill="#87cadb" d="M115.5 83.29q-9.1 3.18-16.96 8.71-4.75-5.22-11.33-8.68 14.16-1.32 28.29-.03Z"/><path fill="#164376" d="m125.25 82.46 2.79.54-.69.94a1.07.18-6 0 1-.86.24l-2.43.32q-.85.12.08.76 6.79 4.72 10.65 11.99-.06 1.9-2.3 1.62-4.19-.51-23.79.91l-2.87-3.9a.54.5-36.8 0 0-.73-.08l-2.6 1.99L98.54 92q7.86-5.53 16.96-8.71l9.75-.83Z"/><path fill="#94cde1" d="m253 89.96-5.71 16.29-6.11-.08a.87.68-72.8 0 0-.69.48q-.7 1.38-2.03 1.1 3.1-6.88 7.17-13.1 4.36-5.36 7.31-11.61a.82.62-71.9 0 1 .7-.49c1.89.18-.41 6.22-.64 7.41Z"/><path fill="#1768a9" d="M128.04 83c6.83.82 11.48 5.39 15.59 10.52l4.16 7.65 1.56 4.4q-1.74-3.9-4.84-6.65a1.34.89 55 0 0-.87-.34l-7.43.67-1.42-2q-3.86-7.27-10.65-11.99-.93-.64-.08-.76l2.43-.32a1.07.18-6 0 0 .86-.24l.69-.94Z"/><path fill="#e5f3f6" d="M152.26 84.6a.67.47-76.4 0 1-.35-.91q.53-1.34 1.36-.2.73.98-.08 1.04l-.93.07Z"/><path fill="#008ebd" d="m227 83.54.16 1.22a1.86 1.28 62.8 0 1-.12.94q-11.4 23.99-25.83 46.3-1.66 3.33-4.89 5.34l.22-1.84 1.75-5 5.42-17 2.5-7.75q2.66-8.52 8.98-15.34 4.84-4.95 11.81-6.87Z"/><path fill="#3291c2" d="M72.96 84.25c-.12.44-.24.72-.67.96q-10.51 5.74-16.79 16-8.93 13.35-15.96 27.79l-7.33 14.75-7.92 14.5 2-7.5q3.82-11.46 8.75-22.5 7.55-15.77 18.85-29.01a.8.64-42.5 0 0 .13-.84c-.53-.88-1.07-.28-1.42.35q-.97 1.74-2.86 1.84c1.35-1.48 8.58-8.18 8.76-9.34q.16.05.25.19a.2.17 55 0 0 .27.07l2.35-1.9a.63.26-36.8 0 0 .31-.52l-.14-.34h.67q1.73-.01 1.29-1.96l.21-.04q.46 1.59 2.01.22 3.11-2.76 7.24-2.72Z"/><path fill="#e5f3f6" d="m62.25 85.96-1 .33q-.75-.14-1.19-.61a1.01.1-86.8 0 1-.04-.92q.01-.36.47-.26a1.29.39 66.1 0 1 .66.77q.31.6 1.1.69ZM211 84.54q.15.14.2.33a.6.18-33.3 0 1-.36.43l-4.24 3.01a.86.18-35.3 0 1-.78.34q-.19-.19-.11-.65 1.01-1.29 2.51-1.89a1.32 1.02-84.4 0 0 .62-.66q.54-1.25 2.16-.91Z"/><path fill="#c5e5ef" d="M148.29 86.5q.63 1.11 1.96 1.29-.69.65.19 1.52 3.8 3.77 6.81 10.4-5.3-2.04-9.46 1.46l-4.16-7.65q-.88-4.06-4.03-6.35-1.08-.78.19-1.22 3.82-1.34 6.86.61 1.16.74 1.64-.06Z"/><path fill="#f9fbfc" fill-opacity=".996" d="m62.25 85.96 1.25.83q.44 1.95-1.29 1.96l-.96-2.04v-.42l1-.33Z"/><path fill="#212322" fill-opacity=".404" d="m61.25 86.71.96 2.04h-.67l-.58-1.5.29-.54Z"/><path fill="#f9fbfc" fill-opacity=".996" d="m60.96 87.25.58 1.5.14.34a.63.26-36.8 0 1-.31.52l-2.35 1.9a.2.17 55 0 1-.27-.07q-.09-.14-.25-.19-.03-2.78 2.46-4ZM166 109.54h.5q-.79 2.09-2.78 1.18a.52.35 15.9 0 0-.71.23q.14 2.48 2.44 2.92a1.09.34 7.6 0 1 .84.39q.52 1.35-1.31.96-1.49-.31-.54.84 1.77 2.14 1.29 4.91a1.22.19 57.6 0 0 .41.94q2.09 3.49 2.62 7.59a1.03.72 14.9 0 0 .57.67q1.87.88-.15 1.74-.77.34-.27.67l.91.61a.88.68-70.2 0 1 .27.83q-.67 3.41 1.14 6.21a1.56 1.34 34.3 0 1 .26.96q-.49 5.04 4.01 7.02l-.54.54q-1.46-1.82-2.06-.23a1.31.58 59.1 0 0 .11.9l1.53 3.83-.25.5-.22.34a.72.43 47.6 0 0 .14.69q1.57 2.06 1.44 4.97-.05.98.63.91a1.02.56-78 0 0 .6-.7l3.34-10.42a1.32.63-64.4 0 0 0-1.03l-.52-.73a.73.33-28.2 0 1 .52-.67c3.7-1.82-1.4-5.64 2.22-5.72a.79.64 7.1 0 0 .7-.44l1.65-4.7.75-.75c.92.42-.58 3.19-.64 4.23-1.34 2.79-3.22 7.17-3 9.72a1.54 1.17 67 0 1-.25.98q-1.42 1.82-.65 4.08.35 1.03.99.24 4-4.94 8.84-9.08-6.35 9.33-14.33 16.87c-1.46-.25-4.77-15.07-5.29-17.29l-3.5-14.5-3.83-13.95-1.83-5.3c-.5-3.96-2.4-7.03-4.8-11.79q-3.01-6.63-6.81-10.4-.88-.87-.19-1.52l1-.44a.53.44 70.9 0 1 .62.38c1.06 3.71 3.54 5.91 5.12 9.09q1.03 2.06 2.33 3.96a1.87.59 48.3 0 1 .43.96q.14 2.14 1.52 3.73a1.53.91 35.1 0 1 .39.87q-.03 3.98 4.34 3.2Z"/><path fill="#f9fbfc" fill-opacity=".996" d="m205.29 88 .21 1.21q-6.23 5.8-9.21 13.79l-2.08 6-4.71 15.21c-.35 1.38-2.71 11.06-4 10.83l-.75-1.5q2.64-1.42-.04-2.15-.58-.16-.4-.33l.13-.12.37.04 1.49.19a.82.51 87.5 0 0 .52-.93l-.29-2.68a.61.53 83.5 0 1 .46-.67q2.21-.24.7-2.38a.66.43-30.8 0 1 .36-.74q2.23-1.22 1.21-3.78a.6.29 68.5 0 1 .05-.67l.19-.07a.44.37-82.4 0 0 .23-.21q2.54-4.72 2.61-10.02a.86.6 84.4 0 1 .42-.75l.55-.18a.85.67 79.7 0 0 .45-.84q-.18-1.73.95-3.06a1.24.76-39.8 0 0 .32-.94q-.37-1.45.75-2.2a1.17.44-27.6 0 0 .54-.61q.91-4.38 4.47-7.18a1.02.35-36.1 0 0 .54-.78l-.43-1.32a.89.18 72.9 0 1-.1-.95l2.26-.12a.82.42-89.4 0 0 .41-.79q.05-3.25 1.82-1.3Z"/><path fill="#39a5cb" d="M215.19 90.41q-6.32 6.82-8.98 15.34-.27-.59-.26-1.29a.49.32 4.5 0 0-.44-.34l-4.5-.48a1.27.2 8.4 0 0-.94.01q-2.17 1.03-3.78-.65 2.98-7.99 9.21-13.79 1.07 1.14 2.34.68 1.81-.65 1.89-.66 2.84-.32 5.46 1.18Z"/><path fill="#f9fbfc" fill-opacity=".996" d="M157.8 91.47q-.88-1.17.44-1.5a.9.58 79.1 0 1 .76.8q.06.33-.17.51a.9.48-38.7 0 1-1.03.19Z"/><path fill="#e5f3f6" d="M193.57 90.15q.65 1.13-.56 1.37a.65.63 79.3 0 1-.76-.53q-.06-.34.17-.52a1.07.4-35.7 0 1 1.15-.32Z"/><path fill="#c5e5ef" d="m253 89.96 7.26.06q2.88.03 1.54 2.5l-9.7 17.98q-.99-2.62-3.61-1.93a.88.74-88.2 0 0-.57.64q-.52 2.18-2.74 2.64l2.11-5.6L253 89.96Z"/><path fill="#e5f3f6" d="M58.5 91.25c-.18 1.16-7.41 7.86-8.76 9.34q-8.6 8.96-12.99 16.66-1.76 3.09-3 3.96.41-2.09 1.85-3.74a1.54.92-35.9 0 0 .41-.96q-.1-1.34 1.24-1.52a.68.62 82.9 0 0 .53-.75l-.31-2.48a.64.47-9.9 0 1 .53-.55q3.27-.69 4.79-3.96.52-1.11-.29-1.96l.54-.54q.19.5.7.53a1.19.76-59.8 0 0 .82-.42c1.68-1.91 6.74-6.42 7.58-8.34a1.74 1.32-88 0 1 .59-.72q2.77-1.73 4.61-4.47.44-.64 1.16-.08Zm138 .49.01.51a.77.6-83.7 0 1-.77.79q-1.47-.44-.26-1.58 1.02-.96 1.02.28Z"/><ellipse fill="#e5f3f6" rx=".84" ry=".74" transform="rotate(17.7 -272.155 200.384)"/><path fill="#e5f3f6" d="M160.49 91.61q1.93-.34 1.18 2.13a.73.5-71.4 0 1-.73.55q-.97-.39-.8-1.59a1.19.22-82.5 0 1 .35-1.09Z"/><ellipse fill="#c9cbca" fill-opacity=".992" rx=".64" ry=".51" transform="rotate(-15.6 367.129 -142.741)"/><path fill="#8fd2e3" d="M98.96 101.5v.5c-2.47.73-2.83 3.17-4.19 3.7q-.58.23-.81.5l-10.81 12.71a1.26.54 5 0 1-.85.28l-1.26.06q1.4-4.76 3.23-9.38c1.83-4.65-2.77.36-3.56-1.62l7.83-8.25 6.82-5.79a.57.53 59.5 0 1 .86.25l2.74 7.04Z"/><path fill="#0f71a8" d="m108.7 99.78 5.85 11.68a2.42 2.36 74.5 0 0 2.3 1.34q7.9-.56 16.51-.14c2.82.14 5.76-1.85 7.97 1.36q.34.49.38-.06l.08-1.21h.17l9.75 30q-5 1.8-10.22.56a1.26.91-51.6 0 0-.92.26q-1.73 1.32-3.64.23a1.44.53-17.3 0 0-.93-.05q-3.25.61-6.34-.63-3.01-1.2-1.27 1.81.23.4-.35.32l-11.24-28.56a.83.83 0 0 0-1.04-.48q-2.57.91-5.22.54l-3.58-9.25c-.77-1.92-3.45-8.91-5.17-8.5l.71-1.21 2.6-1.99a.54.5-36.8 0 1 .73.08l2.87 3.9Z"/><path fill="#e5f3f6" d="m192 96.96.54.29q-.05.6-.44 1.13a.4.34-49.1 0 1-.57.09l-1.51-1.74a.91.09 49 0 1-.54-.76l.76-.49a.87.27 70.9 0 1 .58.79q.25.77 1.18.69Z"/><path fill="#f9fbfc" fill-opacity=".996" d="m192.54 97.25-.54-.29q.13-.74.64-1.15a.74.68 43.1 0 1 .85.01q1.21.86-.95 1.43Z"/><path fill="#5b645b" fill-opacity=".992" d="M195.85 97.18q-.41-.63.01-1.25.83-1.23.63.07l-.18 1.18q-.09.55-.46 0Z"/><path fill="#f9fbfc" fill-opacity=".996" d="M265.51 95.74q1.24-.06.56 1.09-.61 1.05-1.04.12l-.32-.68a.75.37-7.2 0 1 .8-.53Z"/><path fill="#c9cbca" fill-opacity=".992" d="M48.69 97.72c-2.41.11 1.28-1.76.72-.48a.83.8 10.1 0 1-.72.48Z"/><path fill="#e5f3f6" d="M47.33 97.47q.22.15.17.52a.7.61 7.1 0 1-.76.52q-1.17-.13-.57-1.36a1.12.35 32.8 0 1 1.16.32Z"/><path fill="#0b588c" d="m134.79 97.25 1.42 2q3.31 6.54 5.58 13.5l-.08 1.21q-.04.55-.38.06c-2.21-3.21-5.15-1.22-7.97-1.36q-8.61-.42-16.51.14a2.42 2.36 74.5 0 1-2.3-1.34l-5.85-11.68q19.6-1.42 23.79-.91 2.24.28 2.3-1.62Z"/><path fill="#5eb7d6" d="M35.04 128.25q-.3-1.83-.87-.47-.21.52-.56.79-2.82 2.17-2.65-1.82 2.26-2.2 2.04-5.21l.75-.33q1.24-.87 3-3.96 4.39-7.7 12.99-16.66 1.89-.1 2.86-1.84c.35-.63.89-1.23 1.42-.35a.8.64-42.5 0 1-.13.84q-11.3 13.24-18.85 29.01Z"/><path fill="#2489bd" d="M149.35 105.57q1.68 2.49 2.58 5.95l.61 1.98q-.5 1.13-1.2-.74a1.29 1.26-12.9 0 0-1.33-.81l-5.02.53a1.61.7-15.4 0 1-.96-.14q-1.3-.8-2.07.41h-.17q-2.27-6.96-5.58-13.5l7.43-.67a1.34.89 55 0 1 .87.34q3.1 2.75 4.84 6.65Z"/><path fill="#015998" d="m88.54 100-7.83 8.25-6.57 7.16q-4.71 4.05-8.51 8.84a2.14 2.09 25.4 0 1-2.13.73q-4.28-1.01-7.96 1.07-1.74.98-4.11.67-3.14-.4-5.95.95a1.08 1.03-41.9 0 1-.98-.03q-1.85-1.08-3 1.18a.61.36 19.3 0 1-.64.13q-.64-.19-1.32.05 7.03-14.44 15.96-27.79.26.1.42.35a.91.75-44.5 0 1-.1.96q-2.04 2.63 1.11 3.03a1.62.51-34.4 0 0 .98-.3c3.39-1.79 6.11-.83 9.5-1.82 6.6-1.92 13.15-1.41 19.25-4.27q1.68-.79 1.88.84Z"/><path fill="#1999c4" d="M101.79 99c1.72-.41 4.4 6.58 5.17 8.5q-2.36-.48-4.38.9a.86.71-44.2 0 1-.84.07q-.58-.36-.95-.97l-1.83-5.5v-.5l2.83-2.5Z"/><path fill="#97d5e5" d="M157.25 99.71c2.4 4.76 4.3 7.83 4.8 11.79l-10.12.02q-.9-3.46-2.58-5.95l-1.56-4.4q4.16-3.5 9.46-1.46Z"/><path fill="#f9fbfc" fill-opacity=".996" d="m264.5 101.21.46.54q.59 1.84-.61 2.14a1.26.68 48.3 0 1-.93-.34q-1.71-1.42-1.63-3.75.01-.51.36-.27l2.35 1.68Z"/><path fill="#e5f3f6" d="m264.96 101.75-.46-.54.58-.95a.59.49-59.6 0 1 .69-.25q1.3.7-.81 1.74Z"/><path fill="#f9fbfc" fill-opacity=".996" d="M161.68 101.92c-.01-1.17 2.59-1.07 2.78-.01a.57.5 83.2 0 1-.46.67l-1.75.04a.71.55 88.7 0 1-.57-.7Z"/><path fill="#e5f3f6" d="M36.49 101.25H37a.74.41 3.2 0 1 .78.49q-.42 1.67-1.56.56-1.09-1.06.27-1.05Z"/><path fill="#f9fbfc" fill-opacity=".996" d="m98.96 102 1.83 5.5 1.92 7.75-.71-.79q-.22-1.25-1.18-2.13a1.43.43 83 0 1-.38-.87l-1.52-6.7q-.37-1.65-1.63-.47-3.58 3.35-6.38 7.37a1.1.83-67.6 0 1-.78.46c-2.03 0 .46 2.91-2.07 2.97a1.11.97 15.8 0 0-.82.39l-7.68 10.05a1.09.8-40.7 0 0-.21.9q.67 1.89-1.18 2.48a.52.51 60.2 0 0-.22.84q1.67 1.87 1.57-.74a.71.61 83.6 0 1 .48-.7c4.06-.87-2.79 5.12-3.29 5.69l-.42-.25.49-3.74q.09-.7.22-.94 2.54-4.39 3.79-9.32l.25-.5 1.26-.06a1.26.54 5 0 0 .85-.28l10.81-12.71q.23-.27.81-.5c1.36-.53 1.72-2.97 4.19-3.7Z"/><path fill="#a1a99e" fill-opacity=".984" d="M40.84 102.79q-.73.99-1.12-.01-.37-.92.53-.79l.42.07a.49.38-64.7 0 1 .17.73Z"/><path fill="#5eb7d6" d="M196.29 103q1.61 1.68 3.78.65a1.27.2 8.4 0 1 .94-.01l4.5.48a.49.32 4.5 0 1 .44.34q-.01.7.26 1.29l-2.5 7.75-.63-1.99a.86.49 76.5 0 0-.58-.62l-7.25.03a.97.49-5.9 0 1-.79-.3q-.39-.73-.25-1.62l2.08-6Z"/><path fill="#f9fbfc" fill-opacity=".996" d="m43.04 104.75-.54.54q-1.88-.31-.85-1.45a.76.64-54.3 0 1 .83-.21q.57.29.56 1.12Z"/><path fill="#c9cbca" fill-opacity=".992" d="M258.24 106.25q-.05-.56.51-.76 1.03-.35.75.77-.06.26-.42.32a.77.43-7.7 0 1-.84-.33Z"/><path fill="#55a8cd" d="m247.29 106.25-2.11 5.6-3.93 8.19q-4.43 1.49-8.85-.19l6.06-12.1q1.33.28 2.03-1.1a.87.68-72.8 0 1 .69-.48l6.11.08Z"/><path fill="#f9fbfc" fill-opacity=".996" d="M164.41 107.03c1.25 1.29-4.88 1.35-.89-.11a.94.66-28 0 1 .89.11Z"/><path fill="#39a5cb" d="m106.96 107.5 3.58 9.25.17.75q-3.48 1.07-7.33.58l-.67-2.83-1.92-7.75q.37.61.95.97a.86.71-44.2 0 0 .84-.07q2.02-1.38 4.38-.9Z"/><path fill="#63b3cf" d="m81.04 119.25-.25.5c.05-1.34-5-.48-6.25-.71a1.26 1.1-53.6 0 0-.89.2q-1.27.85-2.69.76l3.18-4.59 6.57-7.16c.79 1.98 5.39-3.03 3.56 1.62q-1.83 4.62-3.23 9.38Z"/><path fill="#e5f3f6" d="M166.5 109.54h-.5q-.4-.91.28-1.34a.65.64 54.3 0 1 .84.14q.61.7-.62 1.2Z"/><ellipse fill="#f9fbfc" fill-opacity=".996" rx="1.54" ry=".78" transform="rotate(1.3 -4664 11602.09)"/><path fill="#8fd2e3" d="M252.1 110.5 241.04 130l-5.71 8.97q-1.26-.94-2.87-1.22 4.89-8.61 8.79-17.71l3.93-8.19q2.22-.46 2.74-2.64a.88.74-88.2 0 1 .57-.64q2.62-.69 3.61 1.93Z"/><path fill="#7ac2db" d="M194.21 109q-.14.89.25 1.62a.97.49-5.9 0 0 .79.3l7.25-.03a.86.49 76.5 0 1 .58.62l.63 1.99-5.42 17 1.54-7.22q.11-.5-.22-.13-.58.64-.64 1.58a.61.51-89.6 0 1-.47.55q-2.57.29-5.07-.45a1.36.53 24.5 0 0-.92-.05l-1.92.83a.54.52 68.6 0 1-.71-.32l-.38-1.08 4.71-15.21Z"/><path fill="#f9fbfc" fill-opacity=".996" d="M35.2 109.76q.48-.6.99.02a.56.56 0 0 1-.12.8l-.74.51a.88.88 0 0 0-.34.91q.23 1.03-.47 1.76a.62.44 52.9 0 1-.79-.25q-1.15-1.77.77-3.06.32-.21.7-.69Z"/><path fill="#71c9dd" d="m162.05 111.5 1.83 5.3q-2.29 3.07-6.08 1.64-.28-.1-.93-.01l-2.33.32-2-5.25-.61-1.98 10.12-.02Z"/><path fill="#f9fbfc" fill-opacity=".996" d="M260.92 111.14q.65-.25 1.33-.12a1.03.05 11 0 1 .98.24q.39 1.71-2.24.91-1.51-.46-.07-1.03Z"/><path d="M351.16 111.96q1.15.75 2.65.73a1.21.92-16.5 0 1 .85.32q1.27 1.4 1.09 3.52.46.55.49 1.22a.51.44-87.4 0 1-.5.53q-1.16-.17-2.04-1a1.73 1.5-16.4 0 0-.92-.42l-7.03-.9c-2.25-.29-8.63 1.47-7.54 4.79l.04 1.46c-.05 3.33 4.92 5.4 7 6.25l8.25 4.33q6.56 5.89 2.17 11.92c-4.52 6.23-16.42 5.15-22.73 2.86l-.55-5.03q-.08-.77.62-.32 6.36 4.11 13.61 3.05c4.06-.59 6.71-2.86 5.13-7.23q-.52-2.02-2.5-2.83-4.39-2.79-9.25-4.67c-8.29-3.69-9.84-13.61-.24-16.95q2.01-.7 3.95-1.59 3.82-.6 7.45-.04Z"/><path fill="#3d4139" fill-opacity=".984" d="M351.16 111.96q6.15-.85 4.59 4.57.18-2.12-1.09-3.52a1.21.92-16.5 0 0-.85-.32q-1.5.02-2.65-.73Z"/><path fill="#2f9fc7" d="m152.54 113.5 2 5.25 2.86 9.96a.83.56 79.6 0 0 .6.61l7.75.24a1.18.65-8.4 0 1 .8.3q.48.58 1.16.89l3.5 14.5-8.15 1.29a.71.57-3.3 0 0-.58.52q-.22 1.75.48 3.44c-.5 1.77-5.18 1.42-7.46 2.29l-3.79-10.04-9.75-30q.77-1.21 2.07-.41a1.61.7-15.4 0 0 .96.14l5.02-.53a1.29 1.26-12.9 0 1 1.33.81q.7 1.87 1.2.74Z"/><path fill="#767179" fill-opacity=".996" d="m317.25 121.71-.29.29-3.59-8.23a1.27 1.1 85.8 0 0-.65-.65q-2.28-.83-4.68-.12l-.08-.25q2.42-1.19 5.01-.35a1.15 1.05-.8 0 1 .69.61l3.59 8.7Zm26.46-9.71q-1.94.89-3.95 1.59c-9.6 3.34-8.05 13.26.24 16.95l-.25.25c-12.06-4.35-7.76-18.17 3.96-18.79Z"/><path d="m446.19 112.44 18.01.32a.93.77-11.1 0 1 .76.41q1.14 2.1-.96 3.29h-12q-1.21-.55-2.31.07a.87.8-16 0 0-.44.72V128a.75.75 0 0 0 .75.75h13a.95.84-14 0 1 .78.41q.94 1.5.22 3.3l-13.41-.02c-2.18-1.78-1.32 11.05-1.31 11.76a1.54 1.53-.2 0 0 1.54 1.52l14.43.04a.62.52 84.2 0 1 .53.51l.47 2.69-20.81.03a.72.55 0 0 1-.72-.55l.04-35.44a1.22.68 81.3 0 1 .32-.87q.53-.4 1.11.31Z"/><path fill="#5b645b" fill-opacity=".992" d="m380.04 112.5-12.04.12q-2.71.03-2.59 2.51.83 16.91-.15 33.03l-.25-35.17a.64.61-90 0 1 .61-.64l14.42.15Zm47.86 28.37L408 113.44a1.68 1.28 74.6 0 0-.76-.58q-3.4-1.1-6.01 1.05l.06-1.01a.71.7-87.9 0 1 .71-.67l5.81.08a1.01.1 55.6 0 1 .61.72l19.48 27.84Z"/><path d="M426.75 147.29q-.95-3.27-3.75-5.25l-.29-.79q-.18-1.5-1.46-2.29l-5.71-7.96-7.25-10.25q-2.57-4.56-1.8-.75l-.04 28.32a.68.45-90 0 1-.45.68h-4.25a.8.48 89.5 0 1-.48-.79l-.04-34.3q2.61-2.15 6.01-1.05a1.68 1.28 74.6 0 1 .76.58l19.9 27.43 1.1.17c-1.61.29 1.75 4.18.25-.08l.01-27.84a.87.73-90 0 1 .73-.87l3.04-.01a1.7 1.44-90 0 1 1.44 1.7l.04 34.31a.62.56-5.5 0 1-.51.56c-2.16.33-6.29.97-7.25-1.52Z"/><path fill="#767179" fill-opacity=".996" d="m446.19 112.44 18.48-.2a.69.66 78.8 0 1 .64.45q1.45 3.79-1.31 3.77 2.1-1.19.96-3.29a.93.77-11.1 0 0-.76-.41l-18.01-.32Z"/><path fill="#a1a99e" fill-opacity=".984" d="M497.6 116.64q.88-1.92.11-3.45a.88.79-12 0 0-.76-.44l-26.67.21q-.15-.19.13-.45a1.32.73 11.9 0 1 .84-.26h27a.75.68 77.9 0 1 .65.47q1.08 2.63-1.3 3.92Z"/><path d="m380.04 112.5 2.14.65c5.45 1.41 8.34 5.35 7.86 11.03q-.72 8.34-10.02 10.61-4 .81-9.3.4-1.26 6.89-.29 13.75-3.73.74-5.17-.78.98-16.12.15-33.03-.12-2.48 2.59-2.51l12.04-.12Zm-4.71 18.57c4.62.13 9.44-1.9 9.96-7.07q.73-2.5-.79-4.54-3.08-3.84-8-3h-2.75q-1.89-.8-3.33.24a1.03.37 85.4 0 0-.22.8l-.03 12a1.14.1-89.3 0 0 .07.97q1.71 2.67 5.09.6Z"/><path fill="#3d4139" fill-opacity=".984" d="m307.96 112.75.08.25q-.8 3.28-2.75 6l2.67-6.25Z"/><path d="m316.96 122 10.88 24.61q.84.77 1.06 1.82a.55.54-13.1 0 1-.41.64q-5.12 1.33-6.5-2.85.3-1.52-.53-2.47l-1.68-4.18a2.33 2.19-11.1 0 0-2.18-1.37q-7.34.18-14.33-.1c-.69-.03-1.67.28-1.02 1.19l-3.69 9.11a.96.83-77.7 0 1-.81.6h-4.5a.59.57 10.8 0 1-.56-.79l6.1-13.96q2.95-4.51 4.25-9.75l2.25-5.5q1.95-2.72 2.75-6 2.4-.71 4.68.12a1.27 1.1 85.8 0 1 .65.65l3.59 8.23Zm-6.67-3.25-.58 1.25q-.85.23-.8 1.02a1.85.85 74.6 0 1-.15.93q-1.78 3.36-2.51 7.09l-1.77 4.22a.88.82-77.8 0 0 .72 1.22l11.26.02q.34.31.75.3a.43.37 76.1 0 0 .3-.59l-4.51-11-2.07-4.95q-.33-.81-.69-.26-.15.23.05.75Zm187.31-2.11-8.6.07q-1.05-.94-2.15-.31a.92.87 76.2 0 0-.45.79l.06 13.06c-.08 1.44-1.02 15.7.11 17.44q.33.5.38-.23l.26-3.71-.14 4.71a.57.56 1 0 1-.57.54H482a.75.52 90 0 1-.52-.75l.05-31.19a.6.54 0 0 0-.6-.54l-9.93-.03a.62.49-.5 0 1-.62-.48l-.1-3.05 26.67-.21a.88.79-12 0 1 .76.44q.77 1.53-.11 3.45Z"/><path fill="#767179" fill-opacity=".996" d="M382.18 113.15c13.31 1.79 10.8 20.42-2.16 21.64q9.3-2.27 10.02-10.61c.48-5.68-2.41-9.62-7.86-11.03Z"/><path fill="#f9fbfc" fill-opacity=".996" d="M252.75 113.54q1.12.17.9.94a.78.73 5.6 0 1-.7.54q-1.01.05-1.45-.98l1.25-.5Zm-150.75.92.71.79.67 2.83 4.12 17.63-.75.33c-2.01-.39.51-4.19-2.83-2.93a.6.47-15.7 0 1-.79-.32q-.18-1.52 1.61-.99 1.04.31.66-.59-1.12-2.66-.73-5.44a.78.08 34.3 0 0-.57-.48l-1.1-.75a.98.55-62.6 0 1-.03-1.05q.53-1.12.12-2.32a.69.57 67.4 0 0-.85-.45q-.78.43-1.56.14-.54-.21.37-.78l1.55-.96a.53.53 0 0 0 .1-.82l-2.21-2.29a.41.38 51.7 0 1 .05-.62l1.46-.93Z"/><path fill="#0f5390" d="M74.14 115.41 70.96 120q-5.11 6.27-9.25 13.15l-3.67 5.6-6.54 11.21-.96 1.04q.22-1.06 1.45-3 1.89-2.96 2.94-7.49.11-.49-.33-.24-5.92 3.28-12.73 3.47c-1.03.03-1.47.42-2.23 1a.99.84 37.3 0 1-.94.05q-2.16-1.05-4.27.18a.46.37 73.2 0 1-.56-.39q-.25-1.74-1.66-.83L39.54 129q.68-.24 1.32-.05a.61.36 19.3 0 0 .64-.13q1.15-2.26 3-1.18a1.08 1.03-41.9 0 0 .98.03q2.81-1.35 5.95-.95 2.37.31 4.11-.67 3.68-2.08 7.96-1.07a2.14 2.09 25.4 0 0 2.13-.73q3.8-4.79 8.51-8.84Z"/><path fill="#767179" fill-opacity=".996" d="M345.75 115.96q-5.08.45-7.54 4.79c-1.09-3.32 5.29-5.08 7.54-4.79Z"/><path fill="#f9fbfc" fill-opacity=".996" d="M31.99 116.99q.15-.33.45-.55a.53.47 55.6 0 1 .72.18c1.28 2.02-4.66 2.41-1.63 1a1.13.37-71.9 0 0 .46-.63Z"/><path fill="#2f9fc7" d="M128.04 145.25q3.94 10.77 9.85 20.09l1.86 3.12q-2.35-1.62-5.02-.86-.49.13-.97.05-1.98-.35-3.8.35l-3.46-6.04-3.63-8.16-5.08-14.3-7.08-22-.17-.75q2.65.37 5.22-.54a.83.83 0 0 1 1.04.48l11.24 28.56Z"/><path fill="#f9fbfc" fill-opacity=".996" d="M253.64 116.49q2.28-.73 2.78 1.06.27.96-1.18.51l-1.94-.59q-1.41-.43.34-.98Z"/><path fill="#a1a99e" fill-opacity=".984" d="m373.75 116.46-2.09.4a.84.62-6.7 0 0-.68.64l-.22 13a.69.49 1.5 0 0 .67.51l3.9.06q-3.38 2.07-5.09-.6a1.14.1-89.3 0 1-.07-.97l.03-12a1.03.37 85.4 0 1 .22-.8q1.44-1.04 3.33-.24Z"/><path fill="#767179" fill-opacity=".996" d="m384.5 119.46-.5.08c-2.63-2.95-4.59-1.56-7.5-3.08q4.92-.84 8 3Zm67.5-3q-.7-.04-1.33.32a.84.8 76 0 0-.41.72l-.03 9.44a1.3 1.02-89.7 0 0 1.02 1.31l12.75-.02a.8.78-13.6 0 1 .7.41q1.22 2.24-.7 3.82.72-1.8-.22-3.3a.95.84-14 0 0-.78-.41h-13a.75.75 0 0 1-.75-.75v-10.75a.87.8-16 0 1 .44-.72q1.1-.62 2.31-.07Zm37 .25q-.81-.19-1.38.2a1.1.79 78.2 0 0-.37.84l-.04 14.25q-1.18 0-.75-1.75l-.06-13.06a.92.87 76.2 0 1 .45-.79q1.1-.63 2.15.31Z"/><path fill="#f9fbfc" fill-opacity=".996" d="M87.86 118.39a.51.31 66.1 0 1-.56-.39q-.6-1.8 1.18-1.49 1.39.24.9.65l-1.52 1.23Z"/><path fill="#4dbdd6" d="m163.88 116.8 3.83 13.95q-.68-.31-1.16-.89a1.18.65-8.4 0 0-.8-.3l-7.75-.24a.83.56 79.6 0 1-.6-.61l-2.86-9.96 2.33-.32q.65-.09.93.01 3.79 1.43 6.08-1.64Z"/><path fill="#68c5dc" d="m110.71 117.5 7.08 22-.56.66a.87.79 28.6 0 1-.91.22q-3.12-1.09-6.28.01a.47.38-21.7 0 0-.31.56q.52.98.06 2.05l-2.29-7.29-4.12-17.63q3.85.49 7.33-.58Z"/><path fill="#767179" fill-opacity=".996" d="m313 123.21-.46.04-2.25-4.5q-.2-.52-.05-.75.36-.55.69.26l2.07 4.95Z"/><path fill="#c9cbca" fill-opacity=".992" d="m408.29 120.75-.54.29-1.26-1.04q-.77-3.81 1.8.75Z"/><path fill="#39a5cb" d="M80.79 119.75q-1.25 4.93-3.79 9.32-.13.24-.22.94l-.49 3.74L72 147.21l-.46 1.04q-.77-1.24-2.23-1.09a1.96.97-19.9 0 1-.96-.11l-2.71-1.24 3.94-6.5 3.42-5.26a.38.37 23.1 0 0-.24-.56q-5.45-1.32-11.05-.34 4.14-6.88 9.25-13.15 1.42.09 2.69-.76a1.26 1.1-53.6 0 1 .89-.2c1.25.23 6.3-.63 6.25.71Z"/><path fill="#3d4139" fill-opacity=".984" d="m384 119.54.5-.08q1.52 2.04.79 4.54l-1.29-4.46Z"/><path fill="#2489bd" d="M232.4 119.85q4.42 1.68 8.85.19-3.9 9.1-8.79 17.71l-13 19.25c-1.58 1.66-2.36 3.83-4.49 4.83a1.72 1.22-5.9 0 0-.74.65q-1.12 2.09-3.29 2.93a1.57 1.22-81.5 0 0-.73.7q-1.87 3.52-5.73 4.53l3.88-5.22q5.66-8 10.21-17.69l7.07-13.92 6.76-13.96Z"/><ellipse fill="#c9cbca" fill-opacity=".992" rx="1.27" ry=".38" transform="rotate(-44.1 242.842 -170.667)"/><path fill="#5b645b" fill-opacity=".992" d="M309.71 120q-1.09 4.76-3.46 9.04.73-3.73 2.51-7.09a1.85.85 74.6 0 0 .15-.93q-.05-.79.8-1.02Z"/><path fill="#f9fbfc" fill-opacity=".996" d="M33 121.54q.22 3.01-2.04 5.21l-3.17 4.5-.54-.96q1.53-1.13 1.77-2.99a1.05.07-48.9 0 1 .56-.74l2.44-2.8a.84.69-48.9 0 0 .03-1.07l-1.18-1.06a.49.4 47.2 0 1-.04-.7q1.14-.82 2.17.61Z"/><path fill="#5b645b" fill-opacity=".992" d="m408.29 120.75 7.25 10.25-.08.5-7.71-10.46.54-.29Zm-91.04.96q5.89 12.16 10.59 24.9L316.96 122l.29-.29Z"/><ellipse fill="#e5f3f6" rx=".78" ry=".72" transform="rotate(-27.5 264.311 5.705)"/><path fill="#5b645b" fill-opacity=".992" d="M338.25 122.21q2.41 4.12 7 5.83v.42c-2.08-.85-7.05-2.92-7-6.25Z"/><path fill="#a4d4e5" d="m198.29 130.5-1.75 5q.18-1.73-.78-.91a1.58 1.09 82.9 0 0-.44.85c-.22 1.25-.35 4.5-1.81 4.94a1.52.71-7.6 0 0-.85.54q-.81 1.4-1.13.09a.96.64 1 0 0-.77-.53l-5.86-.75c.06-1.04 1.56-3.81.64-4.23l-.04-.46c1.29.23 3.65-9.45 4-10.83l.38 1.08a.54.52 68.6 0 0 .71.32l1.92-.83a1.36.53 24.5 0 1 .92.05q2.5.74 5.07.45a.61.51-89.6 0 0 .47-.55q.06-.94.64-1.58.33-.37.22.13l-1.54 7.22Z"/><path fill="#e5f3f6" d="M83.58 123.69q.57 1.11-.83 1.07-1.54-.05-.78-.78l.52-.51a.71.67 54.7 0 1 1.09.22Zm92.58-.15q1.61-.43.41 1.08a.53.47-45.4 0 1-.79.05l-.28-.38a.76.41-20.1 0 1 .66-.75Zm5.9 1.27q-1.62.5-1.07-.81c.76-1.81 2.82.28 1.07.81Z"/><path fill="#5b645b" fill-opacity=".992" d="m312.54 123.25.46-.04 4.51 11a.43.37 76.1 0 1-.3.59q-.41.01-.75-.3c.74-.69-3.36-9.86-3.92-11.25Z"/><path fill="#3d4139" fill-opacity=".984" d="M303.04 124.5q-1.3 5.24-4.25 9.75l4.25-9.75Z"/><path fill="#f9fbfc" fill-opacity=".996" d="M82.11 126.81a.38.38 0 0 1 .23-.48c2.88-1.06.65 3.26-.23.48Z"/><path fill="#94cde1" d="M30.96 126.75q-.17 3.99 2.65 1.82.35-.27.56-.79.57-1.36.87.47-4.93 11.04-8.75 22.5.26-1.66-.55-1.47a1.02.55-78.1 0 0-.54.64q-.84 2.35-2.97 1.12a1.36.63-26.3 0 0-.98.02q-1.7.54-.77-1.34.3-.6.28-.99l-.05-.98q.94-2.09 1.68-4.23c1.01-2.94 2.83-5.39 3.99-8.32a1.1.69 49.5 0 0-.12-.8l-.22-.4.75-.5q1.73-.56.46-1.71l.54-.54 3.17-4.5Z"/><path fill="#e5f3f6" d="M86.91 128.85q1.77.24.64 1.42a.59.49 44.3 0 1-.76-.06l-1.39-1.37a.88.37 42.7 0 1-.38-.82q1.04-1.47 1.38.29a.67.57 86.8 0 0 .51.54Z"/><ellipse fill="#f9fbfc" fill-opacity=".996" rx="1.54" ry=".81" transform="rotate(-1.3 5664.296 -1040.319)"/><path fill="#767179" fill-opacity=".996" d="M345.25 128.04q4.85 1.46 8.75 4.67l-.5.08-8.25-4.33v-.42Z"/><path fill="#f9fbfc" fill-opacity=".996" d="m241.04 130 .51.4-5.22 8.63a.66.49-59.4 0 0 .09.83l1.57.9q1.04.59-.24.71l-3.25.3a.89.56-82.1 0 0-.57.68c-.51 2.27-2.17 3.18-3.06 4.84-2.02 3.75-6.43 7.61-5.37 10.5l.75.5q-1.09 2.82-3.97 2.59a1.18.26 5.6 0 0-1.1.13l-1.1 2.41q-.34.76-.49.89l-4.77 4.02a.87.59 64.6 0 0-.13.84q.17.51.06 1.04l-.75.33q-1.06-.1-1.7.57a1.43.74 79.9 0 0-.28.9q-.06 2.07-2.27 1.2-.39-.54.31-1.15 6.33-5.45 11.73-13.56l1.21-.46q.13 1.1 1 1.66.51.34.34-.25-.27-.92-1.09-1.49-.07-.14-.19-.21a.22.18 31.6 0 1-.1-.28l12.37-18.5 5.71-8.97Z"/><path fill="#3d4139" fill-opacity=".984" d="m27.25 130.29.54.96-.54.54-.5-.08q-.56-1.23.5-1.42Z"/><path fill="#5b645b" fill-opacity=".992" d="M486.46 130.25q-.43 1.75.75 1.75v11.75l-.26 3.71q-.05.73-.38.23c-1.13-1.74-.19-16-.11-17.44Z"/><path fill="#767179" fill-opacity=".996" d="M340 130.54q4.86 1.88 9.25 4.67l-.29.29-9.21-4.71.25-.25Z"/><path fill="#3d4139" fill-opacity=".984" d="m415.54 131 5.71 7.96-.29.29-5.5-7.75.08-.5Z"/><path fill="#e5f3f6" d="m26.75 131.71.5.08q1.27 1.15-.46 1.71-.66-.87-.04-1.79Zm153.31 1.26q-.86-.96.43-1.25a1.02.52 73.2 0 1 .76.79q.13.39-.25.45a1.05.21-11.9 0 1-.94.01Z"/><path fill="#f9fbfc" fill-opacity=".996" d="M244.57 131.74c1.18-.02 1.05 3.1-.06 2.7a.77.72 10.3 0 1-.51-.69v-1.5a.58.51-.6 0 1 .57-.51Z"/><path fill="#1367a1" d="M201.21 132q-.88 2.88 2.03 1.29a1.79 1.58-54.7 0 1 .93-.22c5.13.24 10.25 1.07 15.37.86q2.99-.12 6.1-.12l-7.07 13.92q-5.79-.29-11.56-.63-1.94-.11-7.02 0-3.48.08-7.04-.35.89-1.22.01-3l3.36-6.41q3.23-2.01 4.89-5.34Z"/><path fill="#767179" fill-opacity=".996" d="m450.59 132.44-.33 11.83a.67.49-89.5 0 0 .49.68l15.25-.01a.87.45-6.5 0 1 .7.27q1.12 2.01-.45 3.75l-.47-2.69a.62.52 84.2 0 0-.53-.51l-14.43-.04a1.54 1.53-.2 0 1-1.54-1.52c-.01-.71-.87-13.54 1.31-11.76Z"/><path fill="#1999c4" d="M69.58 139.31q-5.73-1.08-11.54-.56l3.67-5.6q5.6-.98 11.05.34a.38.37 23.1 0 1 .24.56l-3.42 5.26Z"/><path fill="#a1a99e" fill-opacity=".984" d="m353.5 132.79.5-.08q6.29 5.08 3.03 11.39c-3.66 7.09-18.72 7.35-24.09 3.47 6.31 2.29 18.21 3.37 22.73-2.86q4.39-6.03-2.17-11.92Z"/><path fill="#f9fbfc" fill-opacity=".996" d="m26.04 134 .22.4a1.1.69 49.5 0 1 .12.8c-1.16 2.93-2.98 5.38-3.99 8.32q-.74 2.14-1.68 4.23l-1.85 3.6a.34.33 30.6 0 1-.49.12l-.33-.22c-.09-.51-.15-.77.19-1.21q2.65-3.43 2.84-7.72a1.35.69 83.3 0 1 .34-.92l1.78-1.47a1.07.28-36 0 0 .56-.68l.01-.99a1.21.57-32.1 0 1 .49-.76q2.09-1.74-.44-3.38a.46.4-51 0 1-.02-.66q1.1-1.18 2.25.54Z"/><ellipse fill="#f9fbfc" fill-opacity=".996" rx=".8" ry=".75" transform="rotate(30.4 -201.933 229.734)"/><path fill="#f9fbfc" fill-opacity=".996" d="M184.25 133.54q.74 1.28 0 2.42c-3.07.25-1.86-4.25 0-2.42Z"/><path fill="#212322" fill-opacity=".404" d="M184.25 133.54h.5l.75 1.5.04.46-.75.75-.54-.29q.74-1.14 0-2.42Z"/><path fill="#f9fbfc" fill-opacity=".996" d="m76.29 133.75.42.25q-.47 2.22 1.05 3.25a.87.42 31.9 0 1 .47.74l-.49 1.25q-.25.61-.45-.04-.58-1.8-2.09-.21-.61.63.08.77 3.33.67.03 1.84a1.23.46-12.5 0 0-.71.46l-.71 1.29a1.01.87 50.7 0 0-.02.83q.93 2.27-1.37 3.11l-.5-.08 4.29-13.46Z"/><path fill="#e5f3f6" d="M103.28 134.74q.02 1.31-1.22 1.22a1.04.19 83.3 0 1-.3-.98q-.07-.54.46-.73a.82.62-12.3 0 1 1.06.49Z"/><path fill="#c5e5ef" d="m196.54 135.5-.22 1.84-3.36 6.41q-.94 1.25-2.13 1.92-4.84 4.14-8.84 9.08-.64.79-.99-.24-.77-2.26.65-4.08a1.54 1.17 67 0 0 .25-.98c-.22-2.55 1.66-6.93 3-9.72l5.86.75a.96.64 1 0 1 .77.53q.32 1.31 1.13-.09a1.52.71-7.6 0 1 .85-.54c1.46-.44 1.59-3.69 1.81-4.94a1.58 1.09 82.9 0 1 .44-.85q.96-.82.78.91Z"/><path fill="#f9fbfc" fill-opacity=".996" d="M17.61 136.21q-4.83-.95-.39-1.87a.6.6 0 0 1 .7.46q.52 2.18 1.68.3a.93.21-57.6 0 1 .68-.67l.77.51a.91.24-44.6 0 1-.51.85l-1.28 1.22a.79.17-43.6 0 1-.71.44l-.49-.76a.82.19 59.8 0 0-.45-.48Z"/><path fill="#a1a99e" fill-opacity=".984" d="M349.25 135.21q1.98.81 2.5 2.83l-2.79-2.54.29-.29Z"/><path fill="#c9cbca" fill-opacity=".992" d="M370.72 135.19q.67 7.08-.29 13.75-.97-6.86.29-13.75Z"/><path fill="#e5f3f6" d="m107.5 135.71 2.29 7.29-.08.25-.92-.25q-.35-2.84-2.61-4.5a.66.41 40.7 0 1-.26-.83l.57-.44a1.02.17-37.1 0 0 .65-.69q-.04-.25-.39-.5l.75-.33Z"/><ellipse fill="#f9fbfc" fill-opacity=".996" rx=".81" ry=".72" transform="rotate(134.1 91.986 119.462)"/><ellipse fill="#e5f3f6" rx="1.53" ry=".93" transform="rotate(89.3 -62.152 77.479)"/><path fill="#3e9bc6" d="M232.46 137.75q1.61.28 2.87 1.22l-12.37 18.5a.22.18 31.6 0 0 .1.28q.12.07.19.21l-.25.08-1.21.46q-.32-1.86-2.33-1.5l13-19.25Z"/><path fill="#767179" fill-opacity=".996" d="m321.46 143.75-.46.04-2.05-4.06a.89.78-11.9 0 0-.76-.43l-15.94-.01c-.65-.91.33-1.22 1.02-1.19q6.99.28 14.33.1a2.33 2.19-11.1 0 1 2.18 1.37l1.68 4.18Z"/><path fill="#0288bc" d="m69.58 139.31-3.94 6.5-3.6 5.69-9.04-.48a1.48.77 55 0 1-.81-.42l-.69-.64 6.54-11.21q5.81-.52 11.54.56Z"/><path fill="#5b645b" fill-opacity=".992" d="M421.25 138.96q1.28.79 1.46 2.29l-1.75-2 .29-.29Z"/><path fill="#54b1d2" d="m117.79 139.5 5.08 14.3q-3.67 1.58-8.05 1.28-.92-.07-1.11.92l-.25-.5-3.17-9.75-.58-2.5.08-.25q.46-1.07-.06-2.05a.47.38-21.7 0 1 .31-.56q3.16-1.1 6.28-.01a.87.79 28.6 0 0 .91-.22l.56-.66Z"/><path fill="#1f4080" d="M50.54 151q-2.15 4.15-4.37 8.26c-1.27 2.36-4.43 4.97.56 6.46q1.84.55 5.72-.28a.43.42-7.5 0 1 .52.39l.07 1.67q-4.52 10.27-14.34 15.64-9.48 1.53-19.2.82 1.05-10.96 3.46-21.71l1.33-4 7.92-14.5q1.41-.91 1.66.83a.46.37 73.2 0 0 .56.39q2.11-1.23 4.27-.18a.99.84 37.3 0 0 .94-.05c.76-.58 1.2-.97 2.23-1q6.81-.19 12.73-3.47.44-.25.33.24-1.05 4.53-2.94 7.49-1.23 1.94-1.45 3Z"/><path fill="#767179" fill-opacity=".996" d="M18.92 141.19q.44.06.51 1 .05.75-.49.38-.45-.3-.44-.81a.56.37-86.9 0 1 .42-.57Z"/><path fill="#a1a99e" fill-opacity=".984" d="m429 141.04.25-.08c1.5 4.26-1.86.37-.25.08Z"/><path fill="#f9fbfc" fill-opacity=".996" d="M241.09 141.69q.43 1.13-.85 1.33a.93.25 72.9 0 1-.49-.78q-.16-.52.24-.74a.84.61-25.9 0 1 1.1.19Z"/><path fill="#3d4139" fill-opacity=".984" d="M423 142.04q2.8 1.98 3.75 5.25l-3.75-5.25Z"/><path fill="#0a5996" d="m151.71 142.75 3.79 10.04q2.26 6.11 5.32 11.49-2.28-.46-4.59-.22-3.86.39-4.51.4-6.89.1-13.83.88-5.91-9.32-9.85-20.09.58.08.35-.32-1.74-3.01 1.27-1.81 3.09 1.24 6.34.63a1.44.53-17.3 0 1 .93.05q1.91 1.09 3.64-.23a1.26.91-51.6 0 1 .92-.26q5.22 1.24 10.22-.56Z"/><path fill="#f9fbfc" fill-opacity=".996" d="M14.64 142.83c1.26-.02.91 3.21-.2 2.73a.94.7-81.5 0 1-.43-.81L14 143.5a.66.65 89.1 0 1 .64-.67Zm61.41 1.44q-2.08-.34-.68-1.37a.99.51 43 0 1 .95.27l1.78 1.48a.58.46-40.5 0 1-.16.82q-1.16.79-1.33-.8a.68.41 4.5 0 0-.56-.4Zm32.74-1.27.92.25.58 2.5-.29.79q-.86-1.09-2.25-1l-.46-.04q.16-1.56 1.5-2.5Z"/><path d="M392.96 148q-2.93 2.17-6.2.31c-1.41-6.04 7.36-6.75 6.2-.31Z"/><path fill="#0288bc" d="M192.96 143.75q.88 1.78-.01 3-3.34 10.3-7.7 19.71-1.74 3.49-4.35 6.36a.36.34-36.5 0 1-.58-.07l-3.86-9 .04-1.21q7.98-7.54 14.33-16.87 1.19-.67 2.13-1.92Z"/><path fill="#3d4139" fill-opacity=".984" d="m321 143.79.46-.04q.83.95.53 2.47l-.99-2.43Z"/><path fill="#1e74b2" d="M171.21 145.25c.52 2.22 3.83 17.04 5.29 17.29l-.04 1.21c-.93-.74-6.17 3.97-7.42 4.75q-3.67-8.78-6.08-18-.7-1.69-.48-3.44a.71.57-3.3 0 1 .58-.52l8.15-1.29Z"/><path fill="#e5f3f6" d="M101.92 146.02q.91-1.13 1.3.24.42 1.48-.67 2.25a.67.39 63.4 0 1-.71-.46q-.55-1.25.08-2.03Z"/><path fill="#a1a99e" fill-opacity=".984" d="m107.29 145.5.46.04-.36 1.53a.46.4-72.8 0 1-.56.35q-1.13-.49.46-1.92Z"/><path fill="#008ebd" d="m65.64 145.81 2.71 1.24a1.96.97-19.9 0 0 .96.11q1.46-.15 2.23 1.09c-4.25 18.1-12.75 32.77-32.84 34.89q9.82-5.37 14.34-15.64l9-16 3.6-5.69Z"/><path fill="#e5f3f6" d="m110.29 145.75 3.17 9.75-.96-.29q.27-.93-.6-1.52a.87.49 28.5 0 1-.43-.69q.43-2.22-1.53-3.18a.56.56 0 0 1-.26-.72q.53-1.26.32-2.56l.29-.79Z"/><path fill="#0f5390" d="M218.57 147.73q-4.55 9.69-10.21 17.69-4.5-1.86-9.14-.75a1.75 1.41 43.2 0 1-.94-.07c-2.09-.78-3.99.19-5.47.16q-2.44-.07-4.76-.84a.62.6-64.6 0 0-.72.27q-.82 1.4-2.08 2.27 4.36-9.41 7.7-19.71 3.56.43 7.04.35 5.08-.11 7.02 0 5.77.34 11.56.63Z"/><path fill="#e5f3f6" d="m12.7 147.96-.51.47a.7.39 50.4 0 1-.76-.3q-1.12-1.4.66-.85 1.01.31.61.68Z"/><path fill="#f9fbfc" fill-opacity=".996" d="m72 147.21.5.08c-.4 1.97 2.64-.16 2.95 2.15a.49.38-89.4 0 1-.45.56l-2.01-.45a.38.29 11.3 0 0-.45.22q-.13 1.26-1.17 2.12a1.08.83-27.9 0 0-.4.87q.33 2.1-.91 3.79a1.65 1.6-27.9 0 0-.31.95v2.5a.9.64 83.8 0 1-.45.81q-1.89.65-1.64 2.77a1.16.69-30.9 0 1-.46.86q-1.65 1.38-1.74 3.55a1.14.35 89.4 0 1-.28.96q-1.44.78-1.16 2.54a.6.54 5.2 0 1-.78.58q-2.3-.7-1.86 1.47a.94.37 78.5 0 1-.17.97l-1.19.3q-.86.21-.94.27l-1.54 1.23q-.82.64-1.22 1.24-.92 1.37-2.29 2.21a1.32.22-33.6 0 1-.89.4q-1.86-.01-3.29 1.27a1.18.63-50.5 0 1-.84.35q-1.77-.35-2.18 1.28a.52.44 14 0 1-.61.3c-1.8-.46-4.44-.93-4.49 1.65a.81.8-11.6 0 1-.48.72q-1.76.8-2.5-.96a.79.73-12 0 0-.74-.44q-1.86.09-3.51.89-.29.14-.98.1l-4.53-.25a1.58 1-56.6 0 0-.99.45l-.24.22a.77.6 35.1 0 1-.81.04q-2.42-1.31-5.04-.11a.92.91-42.6 0 1-.82-.03q-1.69-.98-3.36.09a.74.52 47.9 0 1-.78-.18l-.26-.24a1.03.56-27.4 0 0-.93-.02q-3.66 1.47-6.54-1-.66-.56-.7.2-.08 1.46-1.52 1.53a.56.52-79.7 0 1-.49-.77l1.17-3.03a1.14.08-68.2 0 0 .31-.98q-.43-1.35.82-2.2 1.87-1.28.02-2.79-1.54-1.26.12-1.56a1.15.78 2.7 0 0 .72-.44l1.33-2.29q1.66 1.55.07 2.93a1.42 1.08-23.2 0 0-.46.81q-.6 5.46 2.39 1.59 2.59-3.35 4.45-8.39a.95.61-76.8 0 1 .65-.63q.54-.03.65.77l-7.66 14.2a.52.47-74.8 0 0 .39.76l8.02-.04q9.72.71 19.2-.82c20.09-2.12 28.59-16.79 32.84-34.89l.46-1.04Z"/><path fill="#bfe1ed" d="m20.71 147.75.05.98q.02.39-.28.99-.93 1.88.77 1.34a1.36.63-26.3 0 1 .98-.02q2.13 1.23 2.97-1.12a1.02.55-78.1 0 1 .54-.64q.81-.19.55 1.47l-2 7.5-1.33 4-4.21 6.79q-.11-.8-.65-.77a.95.61-76.8 0 0-.65.63q-1.86 5.04-4.45 8.39-2.99 3.87-2.39-1.59a1.42 1.08-23.2 0 1 .46-.81q1.59-1.38-.07-2.93-.81-1.75.34-2.83.09-.09.41-.88l1.95-4.76a1.12.06-67.7 0 0 .36-1.03l-.59-.9a.72.36-33.2 0 1 .4-.69q1.87-1.24 1.32-3.64a1.02.92-31.1 0 1 .27-.9q2.1-2.13 2.58-5.08l.33.22a.34.33 30.6 0 0 .49-.12l1.85-3.6Z"/><path fill="#5b645b" fill-opacity=".992" d="M392.96 148q.24 1.27-1.03 1.68-3.31 1.06-5.17-1.37 3.27 1.86 6.2-.31Z"/><path fill="#e5f3f6" d="m175.5 148.21.69.06a.65.64-2.2 0 1 .59.54q.46 2.89-1.82-.06l.54-.54Z"/><ellipse fill="#e5f3f6" rx=".81" ry=".72" transform="rotate(45 -142.976 168.527)"/><path fill="#e5f3f6" d="M107.36 150.55q-.23.86-1.03.64-1.49-.41-.61-.97l.76-.48q1.32-.84.88.81Z"/><path fill="#f9fbfc" fill-opacity=".996" d="M232.93 150.2q.43-.71 1.13-.29a.63.44-50.8 0 1-.06.84l-1.59 1.66a.62.38-44.5 0 1-.74.17q-1.19-1.4.66-1.46a1.12.05-59.2 0 0 .6-.92Z"/><path fill="#0264a2" d="m51.5 149.96.69.64a1.48.77 55 0 0 .81.42l9.04.48-9 16-.07-1.67a.43.42-7.5 0 0-.52-.39q-3.88.83-5.72.28c-4.99-1.49-1.83-4.1-.56-6.46q2.22-4.11 4.37-8.26l.96-1.04Z"/><path fill="#1691bf" d="M162.96 150.5q2.41 9.22 6.08 18-1.05 1.85-3 2.54a.78.75 58.3 0 1-.82-.21q-2.64-2.8-4.4-6.55-3.06-5.38-5.32-11.49c2.28-.87 6.96-.52 7.46-2.29Z"/><path fill="#f9fbfc" fill-opacity=".996" d="M15.47 151.49q.9-1.86 1.55-.02.48 1.38-.57 2.2a.73.48-35.2 0 1-.92.03q-.62-1.06-.06-2.21Z"/><path fill="#e5f3f6" d="m101.48 152.53-.46-.03a.58.55-83.2 0 1-.51-.68q.33-1.73 1.09-.22a.7.37 69.6 0 1-.12.93Z"/><path fill="#5b645b" fill-opacity=".992" d="M174.54 153.25q1.51.01 1.69 1.25.07.5-.3.12-.67-.69-1.64-.87l.25-.5Z"/><path fill="#3e9bc6" d="m122.87 153.8 3.63 8.16-9.85.77-2.11-4.23-.83-2.5q.19-.99 1.11-.92 4.38.3 8.05-1.28Z"/><path fill="#f9fbfc" fill-opacity=".996" d="M74.51 154.06q1.53-.53 2.31.6a.88.22-19.4 0 1-.81.53q-1.57.53-2.33-.6a.9.21-19.6 0 1 .83-.53Zm37.99 1.15.96.29.25.5.83 2.5-1 .5q-3.53 1.1-.97-1.25a.42.41-49.2 0 0-.04-.65q-2.12-1.43-.03-1.89Z"/><circle cx="232" cy="156" r=".79" fill="#f9fbfc" fill-opacity=".996"/><path fill="#e5f3f6" d="m226.25 158.29-.75-.5q.32-.52.8-.82a.6.59 55.4 0 1 .79.15q.67.87-.84 1.17Z"/><path fill="#1367a1" d="M219.46 157q2.01-.36 2.33 1.5-5.4 8.11-11.73 13.56-.7.61-.31 1.15l-.25.08-.34.01a.94.9 21.9 0 0-.6.24q-6.24 5.77-14.56 7.42-1-.26-1.04-1.21a.91.74-18 0 1 .48-.74q6.13-3.47 11.04-8.37 3.86-1.01 5.73-4.53a1.57 1.22-81.5 0 1 .73-.7q2.17-.84 3.29-2.93a1.72 1.22-5.9 0 1 .74-.65c2.13-1 2.91-3.17 4.49-4.83Z"/><path fill="#e5f3f6" d="M11.72 157.96q1.34.23.76 1.24a.94.73 21.5 0 1-.99.29q-.39-.11-.49-.46a.83.68 84.6 0 1 .72-1.07Z"/><path fill="#212322" fill-opacity=".404" d="m223 158.04.25-.08q.82.57 1.09 1.49.17.59-.34.25-.87-.56-1-1.66Z"/><path fill="#e5f3f6" d="m114.54 158.5 2.11 4.23.56 1.77h-.67l-3-5.5 1-.5Z"/><path fill="#f9fbfc" fill-opacity=".996" d="m228.04 160.74.38.29a.56.5-46 0 1-.03.81q-1.38 1.22-1.07-.42a.73.41-72.5 0 1 .72-.68Z"/><path fill="#2e88bc" d="m126.5 161.96 3.46 6.04 3.25 4.5-10.2.5-5.8-8.5-.56-1.77 9.85-.77Z"/><path fill="#008ebd" d="M22.96 162.25Q20.55 173 19.5 183.96l-8.02.04a.52.47-74.8 0 1-.39-.76l7.66-14.2 4.21-6.79Z"/><path fill="#767179" fill-opacity=".996" d="M114.53 164.89c-3.94-4.36 1.51.14.39.21a.56.29 55.7 0 1-.39-.21Z"/><path fill="#1f4080" d="M160.82 164.28q1.76 3.75 4.4 6.55a.78.75 58.3 0 0 .82.21q1.95-.69 3-2.54c1.25-.78 6.49-5.49 7.42-4.75l3.86 9a.36.34-36.5 0 0 .58.07q2.61-2.87 4.35-6.36 1.26-.87 2.08-2.27a.62.6-64.6 0 1 .72-.27q2.32.77 4.76.84c1.48.03 3.38-.94 5.47-.16a1.75 1.41 43.2 0 0 .94.07q4.64-1.11 9.14.75l-3.88 5.22q-4.91 4.9-11.04 8.37a.91.74-18 0 0-.48.74q.04.95 1.04 1.21l-7.8-.17q-2.09-3.32-5.05-6.02a.68.48 45.4 0 0-.75-.14l-4.09 3.19a1.1.88 72.4 0 0-.34.88q.15 2.04 2.28 2.26l-7.5.25c6.42-.41-3.99-7.83-5.13-8.78a.84.56 44.3 0 0-.86-.16q-5.12 3.55-10.81 6.13a.96.69 82 0 0-.42.8l-.03 1.76-8.25.25v-.67q2.88.09 5.32-1.28a.31.31 0 0 0 .01-.53q-6.33-4.16-10.83-10.27l-1.86-3.12q6.94-.78 13.83-.88.65-.01 4.51-.4 2.31-.24 4.59.22Z"/><path fill="#f9fbfc" fill-opacity=".996" d="M116.54 164.5h.67l5.8 8.5q5.89 7.37 14.99 8.29l.04.71q-.68 1.85-1.71.24a.94.9 73.5 0 0-.75-.43c-3.2-.03-5.06-2-7.73-2.92-2.51-.85-5.83-5.29-7.77-7.27a1.38.97-75 0 1-.32-.87l-.01-.25a.91.44-84.9 0 0-.27-.72q-1.58-.97-1.78-2.75a.66.47-.4 0 0-.6-.42q-2.65-.17-.56-2.11Z"/><path fill="#c9cbca" fill-opacity=".992" d="M221.87 166.68c-2.41 1.72.19-2.38.34-.64a.82.64-24 0 1-.34.64Z"/><path fill="#e5f3f6" d="m218.48 168.02-.46-.02a.58.34-84.3 0 1-.29-.63q.28-2.16.93-.28a.75.36 75.3 0 1-.18.93Z"/><path fill="#06a0c8" d="M139.75 168.46q4.5 6.11 10.83 10.27a.31.31 0 0 1-.01.53q-2.44 1.37-5.32 1.28-7.3-2.09-12.04-8.04l-3.25-4.5q1.82-.7 3.8-.35.48.08.97-.05 2.67-.76 5.02.86Z"/><path fill="#e5f3f6" d="m214 170.54.75-.33q.64.29 1.34.14a.3.26-.2 0 1 .36.32q-.73 2.63-2.45-.13Z"/><path fill="#0e4b9b" d="m170.75 181.21-17.25-.25.03-1.76a.96.69 82 0 1 .42-.8q5.69-2.58 10.81-6.13a.84.56 44.3 0 1 .86.16c1.14.95 11.55 8.37 5.13 8.78Z"/><path fill="#1e74b2" d="M133.21 172.5q4.74 5.95 12.04 8.04v.67l-7.25.08q-9.1-.92-14.99-8.29l10.2-.5Z"/><ellipse fill="#e5f3f6" rx=".87" ry=".77" transform="rotate(90 -29.525 144.525)"/><path fill="#e5f3f6" d="M209.5 173.29q-.97 2.17-3.34 2.82a.76.75-3.1 0 0-.54.6c-.52 2.93-4.86 2.33-7.32 4.67a1.31.68-54.2 0 1-.8.4l-4.06-.13a1.43.53-46.7 0 0-.87.43l-1.65 1.34q-.79.65-.67-.18l.05-.42a.37.31-85.3 0 0-.3-.42l-5.94-.06a.99.26.2 0 0-1.01.26q.04.66.95.38.57-.17.39.51c-.68 2.61-2.81-1.57-5.14-.95l-1.5-.08q-1.06.55-2.14-.02a.96.5 31.1 0 0-.95-.06q-1.28 1.32-2.33-.2-.56-.81-.68.23-.54 4.34-1.84.54a.95.31 71.5 0 0-.59-.8l-2.31.69a1.09.63-28 0 1-.83-.03c-2-1.33-12.13-.45-20.04-.6a.94.57 9.5 0 0-.75.3q-1.22 2.02-2.05.02a.59.48-19.4 0 0-.67-.24q-2.38.68-4.53-.29l-.04-.71 7.25-.08 8.25-.25 17.25.25 7.5-.25q3.72.5 7.95-.17l7.8.17q8.32-1.65 14.56-7.42a.94.9 21.9 0 1 .6-.24l.34-.01Z"/><path fill="#c9cbca" fill-opacity=".992" d="M224.5 177.21q-1.17.74.04 1.54l-.79 1.29-.5-.33q.46-1.98.06-3.88a.92.33 76.1 0 0-.58-.88l-1 .49a.97.33 61.2 0 0 .18 1.03q.92 1.64.8 3.53l.29 1.21q-1.61 1.35-2.5-.75l.25-1.17q.88-1.92-.5-3.33-1.65-2.12-3.04-.21l-1.21.21q-1.56-.58-1.74-2.27-.08-.73.31-.27 1.41 1.63 3.01.15a.83.44-44 0 1 .85-.25l.8.69a1.16.78-25.6 0 0 .95.14q3.87-.98 4.32 3.06Zm2.25 4.08.54-.54c1.64 2.01.9-2.53.67-3.25q1.15-2.49-.71-2.33a.52.45 83.7 0 0-.4.58q.15 1.09-.64 1.25-.91-3.6 2.53-2.84a.65.61-85.1 0 1 .49.62c.02 1.69 1.25 9.61-2.48 6.51Z"/><path fill="#0e4b9b" d="M186.2 180.79q-4.23.67-7.95.17-2.13-.22-2.28-2.26a1.1.88 72.4 0 1 .34-.88l4.09-3.19a.68.48 45.4 0 1 .75.14q2.96 2.7 5.05 6.02Z"/><path d="m220.25 175.96-.5.08q-1.42.6-2.54-.29 1.39-1.91 3.04.21Zm3 3.75-.54.29q.12-1.89-.8-3.53a.97.33 61.2 0 1-.18-1.03l1-.49a.92.33 76.1 0 1 .58.88q.4 1.9-.06 3.88Zm4.71-2.21q-1.34.13-1.21 1.21l-.46.04-.33-1.25.25-.5q.79-.16.64-1.25a.52.45 83.7 0 1 .4-.58q1.86-.16.71 2.33Z"/><path fill="#a1a99e" fill-opacity=".984" d="M217.21 175.75q1.12.89 2.54.29l-.29 1.46q-.38-.15-.69-.12a.72.42 89.8 0 0-.39.68q-.03.7-.84.94.6-2.47-1.54-3.04l1.21-.21Z"/><path fill="#f9fbfc" fill-opacity=".996" d="M0 178.69v-2.25c2.2-1.4 2.13 3.41 0 2.25Z"/><path fill="#e5f3f6" d="M213.32 176.47q.27.14.1.44a1.02.43-65.5 0 1-.66.61q-1.68-.03-.59-1.37a1.22.26 27.5 0 1 1.15.32ZM6.91 177.53l-.19 1.55q-.13 1.05-1.04-.21-.73-1.02.16-1.5 1.16-.61 1.07.16Z"/><ellipse fill="#e5f3f6" rx=".87" ry=".77" transform="rotate(90 -30.225 147.975)"/><ellipse fill="#e5f3f6" rx="1.04" ry=".74" transform="rotate(44.3 -111.311 353.31)"/><path fill="#767179" fill-opacity=".996" d="m219.46 177.5.08 1.75.25 1.25q-2.62 3.34-2.25-1.5.81-.24.84-.94a.72.42 89.8 0 1 .39-.68q.31-.03.69.12Z"/><path fill="#e5f3f6" d="m224.5 177.21 1.46.29.33 1.25-.25.25-1.5-.25q-1.21-.8-.04-1.54Z"/><ellipse fill="#f9fbfc" fill-opacity=".996" rx=".81" ry=".72" transform="rotate(45 -182.11 169.068)"/><path fill="#5b645b" fill-opacity=".992" d="M227.96 177.5c.23.72.97 5.26-.67 3.25q.26-1.23-.54-2.04-.13-1.08 1.21-1.21Z"/><path fill="#a1a99e" fill-opacity=".984" d="M233.49 179.34c-4.06-2.55 2.7-.41.58.1a.77.77 0 0 1-.58-.1Z"/><path d="m224.54 178.75 1.5.25-.33 1.75-1.71-.29-.25-.42.79-1.29Z"/><path fill="#f9fbfc" fill-opacity=".996" d="m226.29 178.75.46-.04q.8.81.54 2.04l-.54.54-.75-.08-.29-.46.33-1.75.25-.25Z"/><path fill="#5b645b" fill-opacity=".992" d="M219.54 179.25q.48 1 1.21.04l-.25 1.17-.71.04-.25-1.25Z"/><path fill="#212322" fill-opacity=".404" d="m223.25 179.71.5.33.25.42-.29.79-.71-.04-.29-1.21.54-.29Z"/><path fill="#e5f3f6" d="M1.37 181.17a.67.67 0 0 1 .54-.94c1.94-.21.33 2.87-.54.94Z"/><path fill="#f9fbfc" fill-opacity=".996" d="M124.12 181.16a.67.66 77.9 0 1 .6-.93c1.76-.01.24 2.85-.6.93Z"/><path fill="#c9cbca" fill-opacity=".992" d="m224 180.46 1.71.29.29.46q-1.15.95-2.29.04l.29-.79Z"/><path fill="#f9fbfc" fill-opacity=".996" d="M128.16 183.65q-.3.84-1.08.82a.67.48-85 0 1-.44-.74q.43-3.61 3.31-1.14a1.89 1.15 58.6 0 0 .8.41q5.61.86-.24 1.5a.73.52-4.2 0 1-.8-.48q-.02-1.06-.87-.98a.94.75-80.3 0 0-.68.61Z"/><path fill="#e5f3f6" d="M199.47 182.61q-.61-1.41 1.05-.44.72.43.13.76l-.44.25a.79.42 65.5 0 1-.74-.57Z"/><path fill="#3d4139" fill-opacity=".984" d="M179.25 182.54q-.57 1.94-1.5-.08l1.5.08Z"/><ellipse fill="#e5f3f6" rx=".98" ry=".75" transform="rotate(78.5 -30.513 192.035)"/><path fill="#f9fbfc" fill-opacity=".996" d="M122.79 183.84q-.43-1.61 1.08-.41a.53.47 44.6 0 1 .05.79l-.38.28a.76.41 69.9 0 1-.75-.66Zm-74.56.67q1.21 1.12.62 1.19l-1.28.14a.94.27-77 0 1-.06-1.08q.2-.73.72-.25Zm5.8 1.32q-.14.23-.53.17a.61.46 5.6 0 1-.52-.48q-.02-1.83 1.39-.86a1.18.33-58.2 0 1-.34 1.17Zm92.72.21-.54-.79q.17-.74.73-.9a.68.58 69.6 0 1 .74.41q.49 1.11-.93 1.28Zm6.28-.21q-.15.23-.51.17a.64.64 0 0 1-.54-.73q.24-1.48 1.37-.61a1.18.39-56.2 0 1-.32 1.17Zm-17.43-1.01q2.05-.54.52.86a.63.6 43.3 0 1-.8 0l-.26-.21q-.48-.38.54-.65Z"/><path fill="#e5f3f6" d="m146.21 185.25.54.79q-3.11 2.39-.54-.79Z"/><circle cx="45.25" cy="186.55" r=".77" fill="#e5f3f6"/><path fill="#e5f3f6" d="m198.88 185.7.4 1.2q.32.94-1.09.16-.63-.35-.27-.86.77-1.07.96-.5Zm-179.63 2.8-.5.26q-.92.46-.78-.78.2-1.72 1.48-.4a.61.56-34.8 0 1-.2.92Zm33.78-.77q-.11 1.09-1.1.88a.71.61-75.7 0 1-.42-.86q.11-.4.46-.5a.84.55-8.9 0 1 1.06.48Z"/><path fill="#f9fbfc" fill-opacity=".996" d="M135.28 187.73q-.11 1.09-1.1.88a.71.61-75.7 0 1-.42-.86q.11-.4.46-.5a.84.55-8.9 0 1 1.06.48Z"/><path fill="#c9cbca" fill-opacity=".992" d="M5.95 188c1.82 3.28-4.85-1.27-.76-.54a1.09 1.08-9.4 0 1 .76.54Z"/><path fill="#f9fbfc" fill-opacity=".996" d="M37.32 188.65q1.16 1.21-.57 1.38a.7.67-7.7 0 1-.75-.54q-.07-.34.17-.52a1.16.47-37.6 0 1 1.15-.32Z"/><ellipse fill="#e5f3f6" rx=".78" ry=".72" transform="rotate(-27.5 451.958 -171.53)"/><path fill="#e5f3f6" d="M140.85 188.93q.31 1.28-1.11 1.07a.61.6 12.7 0 1-.49-.76q.11-.39.49-.48a1.04.42-13.4 0 1 1.11.17Z"/><path fill="#f9fbfc" fill-opacity=".996" d="M146.2 189.17q.27 1.26-.97.54a.56.43 34.4 0 1-.24-.73l.45-.5q.49-.54.76.69Z"/><path fill="#e5f3f6" d="m161.76 189-.01.5a.58.56 8.6 0 1-.74.53q-1.76-.5-.36-1.39 1.12-.71 1.11.36Zm9.54.04.51-.47a.7.39 50.4 0 1 .76.3q1.12 1.4-.66.85-1.01-.31-.61-.68Zm8.18.98-.46-.01a.57.54-82.4 0 1-.5-.69q.37-1.71 1.09-.21a.68.36 70.4 0 1-.13.91Z"/></svg>