<svg xmlns="http://www.w3.org/2000/svg" viewBox="0 0 300 246"><g fill="none" stroke-width="2"><path stroke="#ee958a" d="M165.96 17c-5.59 11.19-15.84 18.19-25.5 25.96-8.25 6.64-16.57 15.05-10.82 26.38 4.23 8.35 13.21 17.52 20.14 23.09q.4.32.26-.18-.81-2.87-2.79-5.04" vector-effect="non-scaling-stroke"/><path stroke="#b3a6a4" d="m147.25 87.21-2.4-4.44" vector-effect="non-scaling-stroke"/><path stroke="#d6d5d2" d="M144.85 82.77q-5.09-6.48-6.88-14.38c-.54-2.37.34-4.83.58-7.29a1.65 1.64 68 0 1 .38-.9q1.01-1.21 1.28-2.68.09-.49.41-.87 5.81-6.98 14.84-14.19 3.19-2.55 6.5-7.46" vector-effect="non-scaling-stroke"/><path stroke="#b3a6a4" d="M161.96 35c8.7-9.6 14.18-22.38 5.75-34.3a.44.43 21.1 0 0-.78.34q1.9 8.11-.97 15.96" vector-effect="non-scaling-stroke"/><path stroke="#8a7b77" d="M161.96 35q-6.86 6.06-13.76 12.07c-6.91 6.03-12.12 12.31-11.24 21.93" vector-effect="non-scaling-stroke"/><path stroke="#a23b2f" d="M136.96 69c-1.57-6.21.03-10.44 3.76-15.84 1.01-1.46 2.74-2.3 3.45-4.34" vector-effect="non-scaling-stroke"/><path stroke="#ae5a4e" d="M144.17 48.82q9.63-7.59 18.1-16.53c6.43-6.79 10.86-17.01 7.42-26.24a.65.65 0 0 0-1.26.23q.06 6.04-2.22 11.22" vector-effect="non-scaling-stroke"/><path stroke="#a23b2f" d="m166.21 17.5-.25-.5" vector-effect="non-scaling-stroke"/><path stroke="#e84934" d="M144.17 48.82h-7.16a.69.69 0 0 1-.46-1.2q8.46-7.49 17.21-14.54c5.92-4.77 9.45-9.16 12.45-15.58" vector-effect="non-scaling-stroke"/><path stroke="#c46a5d" d="M136.96 69q2.34 7.69 7.33 14" vector-effect="non-scaling-stroke"/><path stroke="#a23b2f" d="M144.29 83q.69 2.69 2.96 4.21" vector-effect="non-scaling-stroke"/><path stroke="#8a7b77" d="m144.85 82.77-.56.23" vector-effect="non-scaling-stroke"/><path stroke="#fab4a9" d="M186.25 34.96c-8.36 2.26-21.18 7.1-27.25 13.5" vector-effect="non-scaling-stroke"/><path stroke="#ee958a" d="M159 48.46c-12.12 8.85-10.34 21.56-1.84 32.13q2.34 2.93 2.87 4.88 1.78 6.7-3.42 12.36" vector-effect="non-scaling-stroke"/><path stroke="#96b5d1" d="M156.61 97.83q2.28.87 3.93-.51c5.41-4.51 12.94-12.9 8.42-19.82" vector-effect="non-scaling-stroke"/><path stroke="#b3a6a4" d="M168.96 77.5q-2.14-4.52-5.5-8.25" vector-effect="non-scaling-stroke"/><path stroke="#d6d5d2" d="M163.46 69.25q-3.2-5.68-1.9-12.06" vector-effect="non-scaling-stroke"/><path stroke="#b3a6a4" d="M161.56 57.19c4.39-6.81 10.92-11.44 17.48-15.94" vector-effect="non-scaling-stroke"/><path stroke="#d6d5d2" d="m179.04 41.25 8.82-4.56a.66.66 0 0 0 .34-.75l-.22-.88a.66.65 84.4 0 0-.59-.49q-.63-.05-1.14.39" vector-effect="non-scaling-stroke"/><path stroke="#8a7b77" d="m179.04 41.25 3.21-3.21" vector-effect="non-scaling-stroke"/><path stroke="#d0897c" d="M182.25 38.04q2.61-.85 4-3.08" vector-effect="non-scaling-stroke"/><path stroke="#ae5a4e" d="M182.25 38.04q-8.55 4.24-15.75 10.5" vector-effect="non-scaling-stroke"/><path stroke="#e84934" d="M166.5 48.54q-3.77.68-7.5-.08" vector-effect="non-scaling-stroke"/><path stroke="#8a7b77" d="M161.56 57.19q-2.15 2.99-1.1 6.81" vector-effect="non-scaling-stroke"/><path stroke="#a23b2f" d="M160.46 64c-2.6-8.1 2.1-9.9 6.04-15.46" vector-effect="non-scaling-stroke"/><path stroke="#c46a5d" d="m160.46 64 2.58 5.25" vector-effect="non-scaling-stroke"/><path stroke="#a23b2f" d="M163.04 69.25q.59 1.95 1.27 2.69 2.81 3.01 4.4 6.81" vector-effect="non-scaling-stroke"/><path stroke="#844b5c" d="M168.71 78.75c1.98 8.23-5.56 15.39-12.1 19.08" vector-effect="non-scaling-stroke"/><path stroke="#8a7b77" d="M163.46 69.25h-.42" vector-effect="non-scaling-stroke"/><path stroke="#4a5c76" d="m168.96 77.5-.25 1.25" vector-effect="non-scaling-stroke"/><path stroke="#96b5d1" d="M193.5 91.96q-2.32.3-3.96 1.87a.34.34 0 0 0-.01.47l.22.24" vector-effect="non-scaling-stroke"/><path stroke="#d6d5d2" d="M189.75 94.54q2.02 1.95 4.25 0" vector-effect="non-scaling-stroke"/><path stroke="#96b5d1" d="M194 94.54c10.27-1.46 14.28 10.06 7.65 17.12q-7.07 7.54-16.24 12.38" vector-effect="non-scaling-stroke"/><path stroke="#d6d5d2" d="M185.41 124.04q.55 1.93 2.15 1.52 9.86-2.51 16.64-7.91" vector-effect="non-scaling-stroke"/><path stroke="#96b5d1" d="M204.2 117.65q3.36-2.52 6.05-5.94" vector-effect="non-scaling-stroke"/><path stroke="#d6d5d2" d="M210.25 111.71q3.38-2.41 2.71-6.71" vector-effect="non-scaling-stroke"/><path stroke="#96b5d1" d="M212.96 105q.06-9.27-8.64-12.25" vector-effect="non-scaling-stroke"/><path stroke="#afd1e9" d="M204.32 92.75q-5.06-2.85-10.82-.79" vector-effect="non-scaling-stroke"/><path stroke="#4587bb" d="M204.32 92.75q4.46 2.39 6.28 6.56c4.97 11.38-10.56 20.1-18.83 22.65a.57.57 0 0 1-.44-1.05c6.34-3.41 13.97-9.98 14.11-17.45q.11-5.47-4.64-9.84" vector-effect="non-scaling-stroke"/><path stroke="#85a6bb" d="M200.8 93.62c4.32-2.5-6.27-1.01-6.55-.91" vector-effect="non-scaling-stroke"/><path stroke="#4587bb" d="m194.25 92.71-.75-.75" vector-effect="non-scaling-stroke"/><path stroke="#6c8ba4" d="m194.25 92.71 6.55.91M212.96 105l-2.71 6.71m-6.05 5.94q-8.69 5.43-18.79 6.39m8.59-29.5q-2.14-.67-4.25 0" vector-effect="non-scaling-stroke"/><path stroke="#96b5d1" d="m102.25 103.96 1.25.83" vector-effect="non-scaling-stroke"/><path stroke="#d6d5d2" d="M103.5 104.79c3.61 2.32 10.4 3.21 14.5 2.92" vector-effect="non-scaling-stroke"/><path stroke="#96b5d1" d="M118 107.71q23.31 2.02 46.51-.9" vector-effect="non-scaling-stroke"/><path stroke="#d6d5d2" d="M164.51 106.81c8.07-.66 14.78-1.27 21.36-5.92a.65.64 59.9 0 0 .21-.8q-.22-.47-.85-.93" vector-effect="non-scaling-stroke"/><path stroke="#afd1e9" d="M185.23 99.16q-29.17 4.67-58.73 4.13" vector-effect="non-scaling-stroke"/><path stroke="#96b5d1" d="m126.5 103.29-8-.75" vector-effect="non-scaling-stroke"/><path stroke="#afd1e9" d="m118.5 102.54-4-1.33" vector-effect="non-scaling-stroke"/><path stroke="#d6d5d2" d="M114.5 101.21c.23-1.75 11.27-5.26 13.18-5.8a.81.8-3.4 0 0 .58-.65q.06-.36-.05-.76" vector-effect="non-scaling-stroke"/><path stroke="#afd1e9" d="m128.21 94 1.4-.83q.45-.27-.07-.3c-8.7-.5-19.33 3.09-26.76 7.07-1.8.96-2.44 2.68-.53 4.02" vector-effect="non-scaling-stroke"/><path stroke="#85a6bb" d="m128.21 94-2.21.54" vector-effect="non-scaling-stroke"/><path stroke="#4587bb" d="M126 94.54q-6.31.39-11.69 3.83-2.63 1.69-.13 3.04" vector-effect="non-scaling-stroke"/><path stroke="#85a6bb" d="m114.18 101.41.32-.2" vector-effect="non-scaling-stroke"/><path stroke="#4587bb" d="M118.5 102.54q3.85 1.65 8 .75" vector-effect="non-scaling-stroke"/><path stroke="#85a6bb" d="M185.23 99.16q-1.2 1.45-2.8 1.96" vector-effect="non-scaling-stroke"/><path stroke="#4587bb" d="M182.43 101.12c-18.73 6.72-42.54 6.92-61.93 5.89q-9.59-.51-17.38-3.08c-.27-.09-.56-.46-.87.03" vector-effect="non-scaling-stroke"/><path stroke="#6c8ba4" d="m118 107.71-14.5-2.92m61.01 2.02c5.84-1.32 13.42-1.48 17.92-5.69m-68.25.29c-.33-3.12 8.65-5.79 11.82-6.87" vector-effect="non-scaling-stroke"/><path stroke="#d6d5d2" d="m121.5 123.71-.69.04q-.56.04-.04.26 4.28 1.82 8.98 1.7" vector-effect="non-scaling-stroke"/><path stroke="#96b5d1" d="M129.75 125.71q20.28 2.4 40.25-1.75" vector-effect="non-scaling-stroke"/><path stroke="#d6d5d2" d="M170 123.96c2.86-.17 9.43-.17 9.87-2.8a.45.45 0 0 0-.28-.49l-.34-.13" vector-effect="non-scaling-stroke"/><path stroke="#96b5d1" d="m179.25 120.54-6.4-3.99a1.33 1.28-33.3 0 0-.92-.17q-21.64 4.16-46.12 1.77-3.2-.31-3.46-2.61" vector-effect="non-scaling-stroke"/><path stroke="#d6d5d2" d="M122.35 115.54q1.33-.51 1.71-1.52a.93.93 0 0 0-.13-.92q-.4-.52-1.14-.6" vector-effect="non-scaling-stroke"/><path stroke="#96b5d1" d="M122.79 112.5c-8.08 1.71-12.62 8.63-1.29 11.21" vector-effect="non-scaling-stroke"/><path stroke="#6c8ba4" d="M122.79 112.5q-.86 1.32-.44 3.04m56.9 5-.44.57a1.58 1.57 11 0 1-.79.53l-8.02 2.32m-40.25 1.75-8.25-2" vector-effect="non-scaling-stroke"/><path stroke="#9c9c9c" d="m128.75 142.79 2.86.51q.15.03.02.1l-.24.13q-.21.12.03.16 22.73 4.52 44.57-3.74a.88.86 62.9 0 0 .41-1.3q-.16-.25-.9-.44" vector-effect="non-scaling-stroke"/><path stroke="#afd1e9" d="m175.5 138.21-7.98-3.99a1.5 1.48 52.3 0 0-.96-.13q-11.79 2.27-23.81 2.12" vector-effect="non-scaling-stroke"/><path stroke="#96b5d1" d="M142.75 136.21c-4.65-.19-17.39.15-15.95-4.96a.28.28 0 0 0-.34-.35c-2.35.57-7.75 2.74-6.92 5.79.86 3.12 6.24 5.05 9.21 6.1" vector-effect="non-scaling-stroke"/><path stroke="#4587bb" d="M142.75 136.21c-3.68.43-16.63.53-17.56-3.67a.55.54-13 0 0-.66-.41q-3.17.75-4.55 3.61a.91.9 39.9 0 0 .09.95c2.92 3.93 7.06 4.76 11.43 6.02" vector-effect="non-scaling-stroke"/><path stroke="#33526e" d="m131.5 142.71-2.75.08" vector-effect="non-scaling-stroke"/><path stroke="#4c6e85" d="M175.5 138.21c-11.56 6.63-31.07 6.67-44 4.5" vector-effect="non-scaling-stroke"/><path stroke="#d6d5d2" d="M89.79 155.75q.34.77 1.02.94 11.93 3.01 24.94 3.52" vector-effect="non-scaling-stroke"/><path stroke="#96b5d1" d="M115.75 160.21q35.09 3.72 69.79-2.46" vector-effect="non-scaling-stroke"/><path stroke="#d6d5d2" d="M185.54 157.75c5.8-.75 16.85-2.96 20.46-8.38a.92.92 0 0 0 .07-.9q-.32-.73-1.03-1.22" vector-effect="non-scaling-stroke"/><path stroke="#96b5d1" d="M205.04 147.25q-.6-1.98-2.55-2.56-.48-.15-.36.34c3.28 13.09-73.67 10.84-81.71 10.27q-10.45-.75-20.47-3.99a1.04 1.03 13 0 1-.7-1.11q.18-1.35 1.46-1.54" vector-effect="non-scaling-stroke"/><path stroke="#d6d5d2" d="M100.71 148.66q6.18-2.55 12.69-3.22a1.58 1.57 20.8 0 0 .92-.41l.59-.55a.44.44 0 0 0-.02-.66q-.46-.37-1.1-.32" vector-effect="non-scaling-stroke"/><path stroke="#96b5d1" d="M113.79 143.5c-5.28-2.33-28.65 3.46-26 10.41a1.75 1.73-82.3 0 0 .58.77l1.42 1.07" vector-effect="non-scaling-stroke"/><path stroke="#6c8ba4" d="M113.79 143.5q-1.31.88-4.32 1.17-3.63.35-8.76 3.99m104.33-1.41c.29 5.56-13.7 8.68-17.54 9.27q-1.22.19-1.96 1.23m-69.79 2.46q-7.62-1.25-15.28-2.15c-3.63-.43-7.12-1.49-10.68-2.31" vector-effect="non-scaling-stroke"/><path stroke="#d6d5d2" d="M118.21 167q2.94 1.03 6.04.96" vector-effect="non-scaling-stroke"/><path stroke="#92abc6" d="M124.25 167.96q21.48 2.61 39.06 1.35 10.53-.75 13.19-.85" vector-effect="non-scaling-stroke"/><path stroke="#d6d5d2" d="M176.5 168.46q13.88-.3 26.81-5c5.17-1.89 7.33-3.99 10.27-8.37a.81.8-66.8 0 0-.49-1.23l-1.34-.32" vector-effect="non-scaling-stroke"/><path stroke="#92abc6" d="M211.75 153.54q-6.66 4.65-14.57 6.64c-27.65 6.94-58 7.21-86.2 3.88q-.5-.05-.07.21 3.39 2.03 7.3 2.73" vector-effect="non-scaling-stroke"/><path stroke="#698199" d="M211.75 153.54c-.47 10.85-27.27 13.51-35.25 14.92m-52.25-.5q-2.91-1.19-6.04-.96" vector-effect="non-scaling-stroke"/><path stroke="#ee958a" d="M125.84 205.78c2.78 4.29 9.18 6.98 13.44 9.73 4.67 3.01 3.73 10.11-1.54 11.47-4.8 1.24-9.61-.87-14-2.59a.42.42 0 0 0-.56.32c-.38 2.16-.76 6.22 2.57 6.58" vector-effect="non-scaling-stroke"/><path stroke="#9c9c9c" d="M125.75 231.29q6.86 1.96 13.89.6c8.62-1.66 12.11-10 8.02-17.57q-1.34-2.48-6.41-5.28" vector-effect="non-scaling-stroke"/><path stroke="#b3a6a4" d="M141.25 209.04c-3.51-2.14-16.06-7.99-9.13-13.78 3.98-3.32 9.27-.84 13.83 1.31a.48.47 22.8 0 0 .65-.26q1.25-3.28-.56-6.06" vector-effect="non-scaling-stroke"/><path stroke="#fab4a9" d="M146.04 190.25c-8.72-3.42-20.97-3.1-22.78 8.51q-.57 3.67 2.58 7.02" vector-effect="non-scaling-stroke"/><path stroke="#ae5a4e" d="m146.04 190.25.03 4.5a.81.81 0 0 1-1.29.66q-2.99-2.21-6.96-2.88c-4.06-.69-9.2 1.69-9 6.46.2 4.51 7.01 7.78 11.93 10.3" vector-effect="non-scaling-stroke"/><path stroke="#975146" d="M140.75 209.29q3.67 2.1 6.25 5.42" vector-effect="non-scaling-stroke"/><path stroke="#e84934" d="M147 214.71c-2.8.77-5.14 1.2-7.84-.39q-6.81-4.02-13.32-8.54" vector-effect="non-scaling-stroke"/><path stroke="#8b3227" d="M147 214.71c4.63 8.07-1.87 16.41-10.5 16.8q-2.34.1-10.75-.22" vector-effect="non-scaling-stroke"/><path stroke="#504341" d="m141.25 209.04-.5.25" vector-effect="non-scaling-stroke"/><path stroke="#9c9c9c" d="M5.56 239.42c5.73 1.49 13.09-.05 15.83-5.72q1.11-2.32 1.11-8.08-.02-17.15-.25-34.31-.02-.79-.21-1.56" vector-effect="non-scaling-stroke"/><path stroke="#ee958a" d="M22.04 189.75q-2.79-1.02-5.8-.33a.64.64 0 0 0-.49.62q.02 17.83-.02 35.67c-.01 8.81-3.1 11.05-11.36 7.11a.43.43 0 0 0-.6.26q-1.21 4.02 1.79 6.34" vector-effect="non-scaling-stroke"/><path stroke="#8b3227" d="m22.04 189.75-.5 9.5" vector-effect="non-scaling-stroke"/><path stroke="#e84934" d="m21.54 199.25-.12-9.15a.61.61 0 0 0-.66-.6l-3.62.28a.87.87 0 0 0-.8.86l-.13 23.57a.81.81 0 0 0 .58.78q2.38.68 4.67.01" vector-effect="non-scaling-stroke"/><path stroke="#8b3227" d="M21.46 215c.85 9.23 2.61 22.97-10.62 23.87q-2.54.17-5.28.55" vector-effect="non-scaling-stroke"/><path stroke="#975146" d="M21.54 199.25 21.46 215" vector-effect="non-scaling-stroke"/><path stroke="#b3a6a4" d="M210.25 195.29q2.55 1.64 5.4.52a.87.86 82.6 0 0 .53-.7c.18-1.73.77-6.35-1.93-5.82" vector-effect="non-scaling-stroke"/><path stroke="#fab4a9" d="m214.25 189.29-3.94.02a.68.67-82 0 0-.65.5q-.76 2.84.59 5.48" vector-effect="non-scaling-stroke"/><path stroke="#ae5a4e" d="M214.25 189.29q1.21 2.33.59 4.85a.71.7-87.5 0 1-.58.54l-4.01.61" vector-effect="non-scaling-stroke"/><path stroke="#fab4a9" d="m263.3 200.04-3.38.35a.82.82 0 0 0-.69.53q-.75 1.95.27 3.87" vector-effect="non-scaling-stroke"/><path stroke="#b3a6a4" d="M259.5 204.79q1.31.72 2.81.53a.5.5 0 0 1 .56.46l.17 2.72" vector-effect="non-scaling-stroke"/><path stroke="#ee958a" d="M263.04 208.5q-1.63 11.13 2.46 21.18" vector-effect="non-scaling-stroke"/><path stroke="#b3a6a4" d="M265.5 229.68q5.55 3.82 11.13 1.8a.97.96-2.4 0 0 .61-.66c.38-1.45.14-6.09-2.74-3.86" vector-effect="non-scaling-stroke"/><path stroke="#ee958a" d="M274.5 226.96q-2.55.29-4.82-1.62" vector-effect="non-scaling-stroke"/><path stroke="#b3a6a4" d="M269.68 225.34q-.66-9.88-.09-19.63a.56.55 2.6 0 1 .58-.52l6.76.33a.63.63 0 0 0 .65-.7l-.45-3.65a.72.72 0 0 0-.72-.64l-6.37-.03" vector-effect="non-scaling-stroke"/><path stroke="#9c9c9c" d="M270.04 200.5c-1.55-.87-.12-3.62-1.25-5.5" vector-effect="non-scaling-stroke"/><path stroke="#ee958a" d="M268.79 195q-2.56-.71-5.08.09a.91.88 88.5 0 0-.6.65q-.43 1.82.19 4.3" vector-effect="non-scaling-stroke"/><path stroke="#8b3227" d="m268.79 195-.33.75" vector-effect="non-scaling-stroke"/><path stroke="#e84934" d="M268.46 195.75q-2.2-1.02-4.38.17a.73.72 71.8 0 0-.37.74q.26 1.78-.41 3.38" vector-effect="non-scaling-stroke"/><path stroke="#504341" d="m270.04 200.5-.54.46" vector-effect="non-scaling-stroke"/><path stroke="#975146" d="m269.5 200.96-.33-.09a.41.41 0 0 1-.31-.37l-.4-4.75" vector-effect="non-scaling-stroke"/><path stroke="#ae5a4e" d="m269.5 200.96 6.22.1a.65.65 0 0 1 .64.69l-.12 2.17a.66.66 0 0 1-.67.62l-6.28-.09a.85.84 0 0 0-.86.85l.03 10.45" vector-effect="non-scaling-stroke"/><path stroke="#e84934" d="m268.46 215.75-3.95-.64a.63.62 2.9 0 1-.53-.58l-.52-9.28" vector-effect="non-scaling-stroke"/><path stroke="#ae5a4e" d="M263.46 205.25q-1.71-1.79-3.96-.46" vector-effect="non-scaling-stroke"/><path stroke="#a23b2f" d="M269.68 225.34q-2.2-4.36-1.22-9.59m-5-10.5-.42 3.25m11.46 18.46.98.06a.71.7-89.1 0 1 .66.69l.05 1.98a.85.84 82.1 0 1-.62.83q-4.6 1.25-10.07-.84" vector-effect="non-scaling-stroke"/><path stroke="#fab4a9" d="m36.25 201.04-3.21 1.11a.71.7 80.9 0 0-.48.67l-.02 3.93" vector-effect="non-scaling-stroke"/><path stroke="#9c9c9c" d="M32.54 206.75q.53 1.48 1.9.69 5.93-3.44 12.02-1.69" vector-effect="non-scaling-stroke"/><path stroke="#b3a6a4" d="M46.46 205.75q2.25 2.84.79 6.21" vector-effect="non-scaling-stroke"/><path stroke="#ee958a" d="M47.25 211.96c-8.44-.22-18.6 2.02-17.22 12.77q.58 4.44 5.47 6.31" vector-effect="non-scaling-stroke"/><path stroke="#9c9c9c" d="M35.5 231.04q7.14 2.9 12.42-2.57c.25-.26.45-.26.79-.22" vector-effect="non-scaling-stroke"/><path stroke="#ee958a" d="m48.71 228.25 2.04 2.54" vector-effect="non-scaling-stroke"/><path stroke="#b3a6a4" d="M50.75 230.79q3.34 2.6 6.89.54a1.1 1.08 79.4 0 0 .52-.77q.21-1.47-.35-2.43" vector-effect="non-scaling-stroke"/><path stroke="#ee958a" d="M57.81 228.13q-1.63-1.59-3.35-1.88" vector-effect="non-scaling-stroke"/><path stroke="#9c9c9c" d="M54.46 226.25c-.19-5.06.88-20.05-2.92-23.25" vector-effect="non-scaling-stroke"/><path stroke="#b3a6a4" d="m51.54 203-1.79-1.46" vector-effect="non-scaling-stroke"/><path stroke="#ee958a" d="M49.75 201.54q-6.6-2.75-13.5-.5" vector-effect="non-scaling-stroke"/><path stroke="#a23b2f" d="m49.75 201.54-.29.46" vector-effect="non-scaling-stroke"/><path stroke="#e84934" d="M49.46 202c-5.29-2.58-8.73-.59-13.21-.96" vector-effect="non-scaling-stroke"/><path stroke="#ae5a4e" d="m49.46 202 2 1.5" vector-effect="non-scaling-stroke"/><path stroke="#975146" d="M51.46 203.5c2.5 4.05 1.32 7.11 1.75 11.25" vector-effect="non-scaling-stroke"/><path stroke="#e84934" d="M53.21 214.75 47 215.79" vector-effect="non-scaling-stroke"/><path stroke="#975146" d="m47 215.79-1.21-.04" vector-effect="non-scaling-stroke"/><path stroke="#e84934" d="m45.79 215.75-9.11-.91q-.56-.06-.07-.34 4.63-2.61 9.91-1.89.52.07 1.23-.57" vector-effect="non-scaling-stroke"/><path stroke="#ae5a4e" d="M47.75 212.04q1.63-3.7-1.13-6.76" vector-effect="non-scaling-stroke"/><path stroke="#975146" d="M46.62 205.28q-6.41-2.19-12.18 1.15-.37.21-1.9.32" vector-effect="non-scaling-stroke"/><path stroke="#504341" d="m51.54 203-.08.5m-4.84 1.78-.16.47" vector-effect="non-scaling-stroke"/><path stroke="#8b3227" d="M45.79 215.75q-.06.14-.16.26a.76.75-65.7 0 1-.64.25q-6.19-.59-9.33 4.15-1.46 2.22.84 3.55" vector-effect="non-scaling-stroke"/><path stroke="#ee958a" d="M36.5 223.96c2.97 3.81 7.28 2.06 10.55-.23a.97.97 0 0 0 .42-.8l-.01-6.43" vector-effect="non-scaling-stroke"/><path stroke="#8b3227" d="m47.46 216.5-.46-.71" vector-effect="non-scaling-stroke"/><path stroke="#a23b2f" d="M57.81 228.13q-1.77 4.88-7.06 2.66" vector-effect="non-scaling-stroke"/><path stroke="#8b3227" d="M48.71 228.25q.18-.57-.03-.9a.45.44 52.3 0 0-.69-.09q-5.21 5.06-12.49 3.78" vector-effect="non-scaling-stroke"/><path stroke="#9c9c9c" d="M47.46 216.5c-5.21.76-11.41 1.03-10.96 7.46" vector-effect="non-scaling-stroke"/><path stroke="#a23b2f" d="m47.75 212.04-.5-.08" vector-effect="non-scaling-stroke"/><path stroke="#8b3227" d="m54.46 226.25-.53-.48a1.15 1.13-69.9 0 1-.38-.83l-.34-10.19" vector-effect="non-scaling-stroke"/><path stroke="#fab4a9" d="M93.79 203.75V207" vector-effect="non-scaling-stroke"/><path stroke="#d6d5d2" d="m93.79 207 .9 1.11a.59.58 56.1 0 0 .74.15l4.82-2.72" vector-effect="non-scaling-stroke"/><path stroke="#b3a6a4" d="M100.25 205.54c5.83-1.24 9.2-.79 8.75 6.21" vector-effect="non-scaling-stroke"/><path stroke="#ee958a" d="M109 211.75c-5.77-.11-12.86.78-16.32 5.68q-3.9 5.5 1.46 12.18" vector-effect="non-scaling-stroke"/><path stroke="#9c9c9c" d="M94.14 229.61c5.77 4.84 10.4 2.04 15.86-1.15" vector-effect="non-scaling-stroke"/><path stroke="#ee958a" d="M110 228.46q1.1 2 2.98 2.71" vector-effect="non-scaling-stroke"/><path stroke="#b3a6a4" d="M112.98 231.17q2.98 1.99 6.04.27a1.04 1.02 79.5 0 0 .51-.76q.25-1.82-.99-3.18" vector-effect="non-scaling-stroke"/><path stroke="#ee958a" d="m118.54 227.5-2.29-.79" vector-effect="non-scaling-stroke"/><path stroke="#9c9c9c" d="M116.25 226.71c-1.59-1.14-1.04-16.01-1.03-18.64q.02-2.12-2.33-5.62" vector-effect="non-scaling-stroke"/><path stroke="#ee958a" d="M112.89 202.45q-9.23-4.74-18.69-.29a.78.77 76.1 0 0-.45.75l.04.84" vector-effect="non-scaling-stroke"/><path stroke="#8b3227" d="m112.89 202.45-.18 1.05" vector-effect="non-scaling-stroke"/><path stroke="#e84934" d="M112.71 203.5c-4.17-3.96-12.6-2.78-17.61-1.14a1.1 1.1 0 0 0-.67.6q-.22.49-.64.79" vector-effect="non-scaling-stroke"/><path stroke="#975146" d="M112.71 203.5c1.93 4.66 1.49 7.11 1.5 12" vector-effect="non-scaling-stroke"/><path stroke="#e84934" d="M114.21 215.5q-4.59-.67-9.14.11a1.32 1.29 55.7 0 1-.9-.18c-1.46-.92-5.18-.02-7.13-.51q-.62-.15-.02-.39 5.65-2.21 11.73-2.03a.41.41 0 0 0 .42-.38q.02-.25-.17-.37" vector-effect="non-scaling-stroke"/><path stroke="#ae5a4e" d="M109 211.75q1.26-3.2-.52-6.01a1.46 1.46 0 0 0-.75-.6q-7.07-2.57-13.23 1.82" vector-effect="non-scaling-stroke"/><path stroke="#d0897c" d="m94.5 206.96-.71.04" vector-effect="non-scaling-stroke"/><path stroke="#8b3227" d="M116.25 226.71q-1.99-.1-2-2.27l-.04-8.94" vector-effect="non-scaling-stroke"/><path stroke="#a23b2f" d="M118.54 227.5q-.16 5.08-5.56 3.67" vector-effect="non-scaling-stroke"/><path stroke="#8b3227" d="M110 228.46q.18-.72-.19-1.01a.61.61 0 0 0-.8.02q-6.52 6.01-14.87 2.14" vector-effect="non-scaling-stroke"/><path stroke="#8a7b77" d="m100.25 205.54-1.33-.03a1.45 1.43 26.4 0 0-.91.3q-1.53 1.22-3.51 1.15" vector-effect="non-scaling-stroke"/><path stroke="#b3a6a4" d="m162.25 230.04 2.21.96" vector-effect="non-scaling-stroke"/><path stroke="#9c9c9c" d="M164.46 231c3.09 2.11 10.09.83 13.56-.37a.9.88 87.1 0 0 .58-.65q.45-1.91-.31-3.73" vector-effect="non-scaling-stroke"/><path stroke="#ee958a" d="M178.29 226.25q.12-.78-.31-1.23a.65.64 51.5 0 0-.81-.1q-6.8 4.33-13.39-.46" vector-effect="non-scaling-stroke"/><path stroke="#9c9c9c" d="M163.78 224.46c-4.47-8.04-2.42-22.29 10.22-19" vector-effect="non-scaling-stroke"/><path stroke="#ee958a" d="m174 205.46 3.99.94a.46.46 0 0 0 .56-.46l-.17-4.47a.7.69 5.5 0 0-.54-.65c-9.75-2.33-20.93-1.06-23.12 10.88q-2.21 12.06 7.53 18.34" vector-effect="non-scaling-stroke"/><path stroke="#8b3227" d="M174 205.46q.76-.34 1.86-.25" vector-effect="non-scaling-stroke"/><path stroke="#e84934" d="M175.86 205.21q2.11-.29 1.61-2.94a.8.79-88.9 0 0-.59-.62c-10.1-2.4-22.2-.26-21.64 13.02a.54.53 88.9 0 0 .53.52l4.44.06" vector-effect="non-scaling-stroke"/><path stroke="#8b3227" d="M160.21 215.25q-.1 5.43 3.57 9.21m14.51 1.79q-.1 1.47-.79 2.63c-1.69 2.84-9.98 2.36-12.75 1.83" vector-effect="non-scaling-stroke"/><path stroke="#a23b2f" d="m164.75 230.71-2.5-.67" vector-effect="non-scaling-stroke"/><path stroke="#504341" d="m164.46 231 .29-.29" vector-effect="non-scaling-stroke"/><path stroke="#975146" d="M175.86 205.21q-8.03-3.32-13.29 2.82-1.61 1.89-2.36 7.22" vector-effect="non-scaling-stroke"/><path stroke="#b3a6a4" d="m192.54 204.5-.08-.5" vector-effect="non-scaling-stroke"/><path stroke="#fab4a9" d="M192.46 204q.76-1.89-.46-3.38a1.05 1.03-19.6 0 0-.8-.37h-4.45a.65.65 0 0 0-.65.66l.19 13.84" vector-effect="non-scaling-stroke"/><path stroke="#ee958a" d="m186.29 214.75.02 15.44a.92.91-73.7 0 0 .42.77l.52.33" vector-effect="non-scaling-stroke"/><path stroke="#9c9c9c" d="m187.25 231.29 4.87.27a.5.5 0 0 0 .53-.49q.19-8 .09-16c-.09-6.33 4.63-9.7 10.85-8.82a.48.47 3.7 0 0 .54-.47l.04-3.83a1.94 1.93 1.9 0 0-1.82-1.94c-4.96-.31-6.26 1.79-9.81 4.49" vector-effect="non-scaling-stroke"/><path stroke="#8b3227" d="m187.25 231.29 3.5-.69a.7.69-2.4 0 0 .56-.6q.87-7.26.19-14.54" vector-effect="non-scaling-stroke"/><path stroke="#975146" d="M191.5 215.46c-.85-6.34 5.05-11.03 10.98-10.54a.48.48 0 0 0 .52-.48v-2.29a.75.74-78.8 0 0-.46-.69c-4.33-1.77-6.72 1.45-9.75 3.79" vector-effect="non-scaling-stroke"/><path stroke="#504341" d="m192.79 205.25-.25-.75" vector-effect="non-scaling-stroke"/><path stroke="#ae5a4e" d="M192.46 204q-.85.44-.73 1.32a.48.48 0 0 0 .66.38q.26-.1.4-.45" vector-effect="non-scaling-stroke"/><path stroke="#e84934" d="m191.5 215.46-5.21-.71" vector-effect="non-scaling-stroke"/><path stroke="#ee958a" d="m209.54 213 .28 17.48a.77.76 11.8 0 0 .46.7q1.05.45 2.22.28" vector-effect="non-scaling-stroke"/><path stroke="#b3a6a4" d="m212.5 231.46 3.21.01a.54.53 1.1 0 0 .54-.51q.39-15.14-.52-30.31" vector-effect="non-scaling-stroke"/><path stroke="#fab4a9" d="M215.73 200.65q-2.92-.81-5.56-.31a.62.62 0 0 0-.51.6l-.12 12.06" vector-effect="non-scaling-stroke"/><path stroke="#ae5a4e" d="M215.73 200.65q-1.03 7.53-.52 14.85" vector-effect="non-scaling-stroke"/><path stroke="#e84934" d="m215.21 215.5-4.47-.74a.73.72 89.4 0 1-.6-.59q-.12-.72-.6-1.17" vector-effect="non-scaling-stroke"/><path stroke="#a23b2f" d="m212.5 231.46 2.2-.63a.68.68 0 0 0 .49-.65l.02-14.68" vector-effect="non-scaling-stroke"/><path stroke="#9c9c9c" d="m226.32 242.34 5.51.33a.59.59 0 0 0 .63-.58l.18-12.56a.3.29 89 0 1 .27-.29l.34-.03" vector-effect="non-scaling-stroke"/><path stroke="#ee958a" d="m233.25 229.21 1.25.83" vector-effect="non-scaling-stroke"/><path stroke="#b3a6a4" d="m234.5 230.04 1.96.96" vector-effect="non-scaling-stroke"/><path stroke="#9c9c9c" d="M236.46 231c.12.24.26.42.54.5 18.15 4.87 23.14-21.31 11.5-29.71" vector-effect="non-scaling-stroke"/><path stroke="#ee958a" d="M248.5 201.79q-9.3-4.85-15.79 2.99a.29.29 0 0 1-.49-.29q.75-1.89-.2-3.54a1.13 1.12 75.4 0 0-.96-.57l-4.44-.11a.6.59-89.6 0 0-.61.61l.31 41.46" vector-effect="non-scaling-stroke"/><path stroke="#8b3227" d="M248.5 201.79v.67" vector-effect="non-scaling-stroke"/><path stroke="#e84934" d="M248.5 202.46q-9.6-4.89-15.96 3.22a.58.58 0 0 1-1.03-.36l.02-3.34a.67.67 0 0 0-.67-.68h-3.34a.62.62 0 0 0-.62.62v12.33a.74.74 0 0 0 .52.71q2.01.65 4.04.29" vector-effect="non-scaling-stroke"/><path stroke="#8b3227" d="M231.46 215.25q-.68 4.54 1.11 8.5" vector-effect="non-scaling-stroke"/><path stroke="#ee958a" d="M232.57 223.75c3.62 3.38 10.67 5.21 13.32-.33q3.68-7.71.07-15.42" vector-effect="non-scaling-stroke"/><path stroke="#8b3227" d="m245.96 208 .29-.54" vector-effect="non-scaling-stroke"/><path stroke="#e84934" d="M246.25 207.46q2.2 3 2.31 6.85a.64.63 3.8 0 0 .54.61l3.67.53a.43.43 0 0 0 .49-.39l.03-.31" vector-effect="non-scaling-stroke"/><path stroke="#8b3227" d="M253.29 214.75c1.4 9.97-5.78 18.86-16.54 15.96" vector-effect="non-scaling-stroke"/><path stroke="#a23b2f" d="M236.75 230.71q-.9-.97-2.25-.67" vector-effect="non-scaling-stroke"/><path stroke="#8b3227" d="m233.25 229.21-1.13-1.29q-.31-.36-.32.11l-.36 12.97a.86.86 0 0 1-1.11.8q-1.26-.39-4.01.54" vector-effect="non-scaling-stroke"/><path stroke="#504341" d="m236.46 231 .29-.29" vector-effect="non-scaling-stroke"/><path stroke="#975146" d="M248.5 202.46q5.62 4.74 4.79 12.29m-7.04-7.29c-3.88-5.09-11.28-1.66-14.43 2.41a1.5 1.49-25.8 0 0-.31.88l-.05 4.5" vector-effect="non-scaling-stroke"/><path stroke="#9c9c9c" d="M245.96 208c-3.11-4.46-10.12-.89-12.95 2.16a1.31 1.28 66.8 0 0-.34.88l-.1 12.71m-160.61 7.58q2.47.9 4.9.2a1.02 1.01-87.5 0 0 .66-.61l5.85-15.12" vector-effect="non-scaling-stroke"/><path stroke="#b3a6a4" d="m83.37 215.8 2.46-6.5" vector-effect="non-scaling-stroke"/><path stroke="#d6d5d2" d="M85.83 209.3c1.25-1.78 4.76-7.13 2.46-8.3" vector-effect="non-scaling-stroke"/><path stroke="#ee958a" d="M88.29 201c-2.89-1.98-5.15-1.17-6.41 2.1q-3.58 9.32-7.63 18.44" vector-effect="non-scaling-stroke"/><path stroke="#d6d5d2" d="m74.25 221.54-.96-.54" vector-effect="non-scaling-stroke"/><path stroke="#b3a6a4" d="m73.29 221-7.56-19.65" vector-effect="non-scaling-stroke"/><path stroke="#ee958a" d="M65.73 201.35q-2.88-1.96-6.05-.93a.49.48-19.5 0 0-.31.63q5.5 14.79 11 29.54.39 1.04 1.59.74" vector-effect="non-scaling-stroke"/><path stroke="#a23b2f" d="m65.73 201.35-.52.65" vector-effect="non-scaling-stroke"/><path stroke="#e84934" d="M65.21 202q-1.97-1.74-4.45-.43a.64.64 0 0 0-.3.78l4.33 11.71a1.35 1.33 3.8 0 0 .65.73q2.21 1.15 4.35-.04" vector-effect="non-scaling-stroke"/><path stroke="#a23b2f" d="m69.79 214.75 3.42 7.5" vector-effect="non-scaling-stroke"/><path stroke="#c46a5d" d="m73.21 222.25.24.22a.24.24 0 0 0 .38-.07l.42-.86M88.29 201l-.33 1.25" vector-effect="non-scaling-stroke"/><path stroke="#a23b2f" d="m87.96 202.25-.92.25" vector-effect="non-scaling-stroke"/><path stroke="#e84934" d="M87.04 202.5c-.13-1.63-3.53-1.75-3.99-.45-1.55 4.35-4.37 9.04-4.85 12.55a.49.49 0 0 0 .43.55l3.33.35" vector-effect="non-scaling-stroke"/><path stroke="#a23b2f" d="m81.96 215.5-.71 2.96" vector-effect="non-scaling-stroke"/><path stroke="#8b3227" d="m81.25 218.46-4.61 11.48a.88.86 4.3 0 1-.63.53l-4.05.86" vector-effect="non-scaling-stroke"/><path stroke="#504341" d="M83.37 215.8q-1.43 1.07-2.12 2.66" vector-effect="non-scaling-stroke"/><path stroke="#ae5a4e" d="m65.21 202 4.58 12.75m17.25-12.25-5.08 13" vector-effect="non-scaling-stroke"/><path stroke="#8a7b77" d="m73.29 221-.08 1.25m12.62-12.95 2.13-7.05" vector-effect="non-scaling-stroke"/><path stroke="#ee958a" d="m281.52 201.57-.24 1.06a.39.39 0 0 0 .35.47l2.29.11a.58.58 0 0 0 .6-.45l.48-2.03q.26-1.09-.55-.32-.37.36-.57.8a.48.48 0 0 1-.7.2q-1.84-1.22-4.13-.99a.28.28 0 0 0-.24.37q.33.98.16 2.03a.49.49 0 0 0 .14.41l.18.19q.35.35.4-.14l.17-1.78a.56.56 0 0 1 .56-.5h.64a.47.47 0 0 1 .46.57" vector-effect="non-scaling-stroke"/><path stroke="#4092c9" d="M171.84 117.05c-15.63 2.87-26.13 3.3-42.27 2.24-2.6-.17-8.98-.84-8.64-4.61a.45.45 0 0 0-.51-.48q-3.64.49-5.4 3.6a.95.94 44.7 0 0 .01.96c2.84 4.76 14.32 5.93 19.71 6.28q21.23 1.37 41.59-4a.52.52 0 0 0 .18-.92l-3.76-2.85a1.18 1.16 58.1 0 0-.91-.22" vector-effect="non-scaling-stroke"/><path stroke="#ee958a" d="M97.89 224.54q5.7 3.36 10.58-.98a1.18 1.16-21.7 0 0 .38-.86l-.07-5.8" vector-effect="non-scaling-stroke"/><path stroke="#8b3227" d="M108.78 216.9q-8.33-2.6-12.36 4.39a1.22 1.21 53.8 0 0-.14.92q.37 1.48 1.61 2.33" vector-effect="non-scaling-stroke"/><path stroke="#9c9c9c" d="M108.78 216.9c-4.27-.36-12.79 1.54-10.89 7.64" vector-effect="non-scaling-stroke"/></g><path fill="#fff" d="M0 0h300v246H0V0Zm165.96 17c-5.59 11.19-15.84 18.19-25.5 25.96-8.25 6.64-16.57 15.05-10.82 26.38 4.23 8.35 13.21 17.52 20.14 23.09q.4.32.26-.18-.81-2.87-2.79-5.04l-2.4-4.44q-5.09-6.48-6.88-14.38c-.54-2.37.34-4.83.58-7.29a1.65 1.64 68 0 1 .38-.9q1.01-1.21 1.28-2.68.09-.49.41-.87 5.81-6.98 14.84-14.19 3.19-2.55 6.5-7.46c8.7-9.6 14.18-22.38 5.75-34.3a.44.43 21.1 0 0-.78.34q1.9 8.11-.97 15.96Zm20.29 17.96c-8.36 2.26-21.18 7.1-27.25 13.5-12.12 8.85-10.34 21.56-1.84 32.13q2.34 2.93 2.87 4.88 1.78 6.7-3.42 12.36 2.28.87 3.93-.51c5.41-4.51 12.94-12.9 8.42-19.82q-2.14-4.52-5.5-8.25-3.2-5.68-1.9-12.06c4.39-6.81 10.92-11.44 17.48-15.94l8.82-4.56a.66.66 0 0 0 .34-.75l-.22-.88a.66.65 84.4 0 0-.59-.49q-.63-.05-1.14.39Zm7.25 57q-2.32.3-3.96 1.87a.34.34 0 0 0-.01.47l.22.24q2.02 1.95 4.25 0c10.27-1.46 14.28 10.06 7.65 17.12q-7.07 7.54-16.24 12.38.55 1.93 2.15 1.52 9.86-2.51 16.64-7.91 3.36-2.52 6.05-5.94 3.38-2.41 2.71-6.71.06-9.27-8.64-12.25-5.06-2.85-10.82-.79Zm-91.25 12 1.25.83c3.61 2.32 10.4 3.21 14.5 2.92q23.31 2.02 46.51-.9c8.07-.66 14.78-1.27 21.36-5.92a.65.64 59.9 0 0 .21-.8q-.22-.47-.85-.93-29.17 4.67-58.73 4.13l-8-.75-4-1.33c.23-1.75 11.27-5.26 13.18-5.8a.81.8-3.4 0 0 .58-.65q.06-.36-.05-.76l1.4-.83q.45-.27-.07-.3c-8.7-.5-19.33 3.09-26.76 7.07-1.8.96-2.44 2.68-.53 4.02Zm19.25 19.75-.69.04q-.56.04-.04.26 4.28 1.82 8.98 1.7 20.28 2.4 40.25-1.75c2.86-.17 9.43-.17 9.87-2.8a.45.45 0 0 0-.28-.49l-.34-.13-6.4-3.99a1.33 1.28-33.3 0 0-.92-.17q-21.64 4.16-46.12 1.77-3.2-.31-3.46-2.61 1.33-.51 1.71-1.52a.93.93 0 0 0-.13-.92q-.4-.52-1.14-.6c-8.08 1.71-12.62 8.63-1.29 11.21Zm7.25 19.08 2.86.51q.15.03.02.1l-.24.13q-.21.12.03.16 22.73 4.52 44.57-3.74a.88.86 62.9 0 0 .41-1.3q-.16-.25-.9-.44l-7.98-3.99a1.5 1.48 52.3 0 0-.96-.13q-11.79 2.27-23.81 2.12c-4.65-.19-17.39.15-15.95-4.96a.28.28 0 0 0-.34-.35c-2.35.57-7.75 2.74-6.92 5.79.86 3.12 6.24 5.05 9.21 6.1Zm-38.96 12.96q.34.77 1.02.94 11.93 3.01 24.94 3.52 35.09 3.72 69.79-2.46c5.8-.75 16.85-2.96 20.46-8.38a.92.92 0 0 0 .07-.9q-.32-.73-1.03-1.22-.6-1.98-2.55-2.56-.48-.15-.36.34c3.28 13.09-73.67 10.84-81.71 10.27q-10.45-.75-20.47-3.99a1.04 1.03 13 0 1-.7-1.11q.18-1.35 1.46-1.54 6.18-2.55 12.69-3.22a1.58 1.57 20.8 0 0 .92-.41l.59-.55a.44.44 0 0 0-.02-.66q-.46-.37-1.1-.32c-5.28-2.33-28.65 3.46-26 10.41a1.75 1.73-82.3 0 0 .58.77l1.42 1.07ZM118.21 167q2.94 1.03 6.04.96 21.48 2.61 39.06 1.35 10.53-.75 13.19-.85 13.88-.3 26.81-5c5.17-1.89 7.33-3.99 10.27-8.37a.81.8-66.8 0 0-.49-1.23l-1.34-.32q-6.66 4.65-14.57 6.64c-27.65 6.94-58 7.21-86.2 3.88q-.5-.05-.07.21 3.39 2.03 7.3 2.73Zm7.63 38.78c2.78 4.29 9.18 6.98 13.44 9.73 4.67 3.01 3.73 10.11-1.54 11.47-4.8 1.24-9.61-.87-14-2.59a.42.42 0 0 0-.56.32c-.38 2.16-.76 6.22 2.57 6.58q6.86 1.96 13.89.6c8.62-1.66 12.11-10 8.02-17.57q-1.34-2.48-6.41-5.28c-3.51-2.14-16.06-7.99-9.13-13.78 3.98-3.32 9.27-.84 13.83 1.31a.48.47 22.8 0 0 .65-.26q1.25-3.28-.56-6.06c-8.72-3.42-20.97-3.1-22.78 8.51q-.57 3.67 2.58 7.02ZM5.56 239.42c5.73 1.49 13.09-.05 15.83-5.72q1.11-2.32 1.11-8.08-.02-17.15-.25-34.31-.02-.79-.21-1.56-2.79-1.02-5.8-.33a.64.64 0 0 0-.49.62q.02 17.83-.02 35.67c-.01 8.81-3.1 11.05-11.36 7.11a.43.43 0 0 0-.6.26q-1.21 4.02 1.79 6.34Zm204.69-44.13q2.55 1.64 5.4.52a.87.86 82.6 0 0 .53-.7c.18-1.73.77-6.35-1.93-5.82l-3.94.02a.68.67-82 0 0-.65.5q-.76 2.84.59 5.48Zm53.05 4.75-3.38.35a.82.82 0 0 0-.69.53q-.75 1.95.27 3.87 1.31.72 2.81.53a.5.5 0 0 1 .56.46l.17 2.72q-1.63 11.13 2.46 21.18 5.55 3.82 11.13 1.8a.97.96-2.4 0 0 .61-.66c.38-1.45.14-6.09-2.74-3.86q-2.55.29-4.82-1.62-.66-9.88-.09-19.63a.56.55 2.6 0 1 .58-.52l6.76.33a.63.63 0 0 0 .65-.7l-.45-3.65a.72.72 0 0 0-.72-.64l-6.37-.03c-1.55-.87-.12-3.62-1.25-5.5q-2.56-.71-5.08.09a.91.88 88.5 0 0-.6.65q-.43 1.82.19 4.3Zm-227.05 1-3.21 1.11a.71.7 80.9 0 0-.48.67l-.02 3.93q.53 1.48 1.9.69 5.93-3.44 12.02-1.69 2.25 2.84.79 6.21c-8.44-.22-18.6 2.02-17.22 12.77q.58 4.44 5.47 6.31 7.14 2.9 12.42-2.57c.25-.26.45-.26.79-.22l2.04 2.54q3.34 2.6 6.89.54a1.1 1.08 79.4 0 0 .52-.77q.21-1.47-.35-2.43-1.63-1.59-3.35-1.88c-.19-5.06.88-20.05-2.92-23.25l-1.79-1.46q-6.6-2.75-13.5-.5Zm57.54 2.71V207l.9 1.11a.59.58 56.1 0 0 .74.15l4.82-2.72c5.83-1.24 9.2-.79 8.75 6.21-5.77-.11-12.86.78-16.32 5.68q-3.9 5.5 1.46 12.18c5.77 4.84 10.4 2.04 15.86-1.15q1.1 2 2.98 2.71 2.98 1.99 6.04.27a1.04 1.02 79.5 0 0 .51-.76q.25-1.82-.99-3.18l-2.29-.79c-1.59-1.14-1.04-16.01-1.03-18.64q.02-2.12-2.33-5.62-9.23-4.74-18.69-.29a.78.77 76.1 0 0-.45.75l.04.84Zm68.46 26.29 2.21.96c3.09 2.11 10.09.83 13.56-.37a.9.88 87.1 0 0 .58-.65q.45-1.91-.31-3.73.12-.78-.31-1.23a.65.64 51.5 0 0-.81-.1q-6.8 4.33-13.39-.46c-4.47-8.04-2.42-22.29 10.22-19l3.99.94a.46.46 0 0 0 .56-.46l-.17-4.47a.7.69 5.5 0 0-.54-.65c-9.75-2.33-20.93-1.06-23.12 10.88q-2.21 12.06 7.53 18.34Zm30.29-25.54-.08-.5q.76-1.89-.46-3.38a1.05 1.03-19.6 0 0-.8-.37h-4.45a.65.65 0 0 0-.65.66l.19 13.84.02 15.44a.92.91-73.7 0 0 .42.77l.52.33 4.87.27a.5.5 0 0 0 .53-.49q.19-8 .09-16c-.09-6.33 4.63-9.7 10.85-8.82a.48.47 3.7 0 0 .54-.47l.04-3.83a1.94 1.93 1.9 0 0-1.82-1.94c-4.96-.31-6.26 1.79-9.81 4.49Zm17 8.5.28 17.48a.77.76 11.8 0 0 .46.7q1.05.45 2.22.28l3.21.01a.54.53 1.1 0 0 .54-.51q.39-15.14-.52-30.31-2.92-.81-5.56-.31a.62.62 0 0 0-.51.6l-.12 12.06Zm16.78 29.34 5.51.33a.59.59 0 0 0 .63-.58l.18-12.56a.3.29 89 0 1 .27-.29l.34-.03 1.25.83 1.96.96c.12.24.26.42.54.5 18.15 4.87 23.14-21.31 11.5-29.71q-9.3-4.85-15.79 2.99a.29.29 0 0 1-.49-.29q.75-1.89-.2-3.54a1.13 1.12 75.4 0 0-.96-.57l-4.44-.11a.6.59-89.6 0 0-.61.61l.31 41.46ZM71.96 231.33q2.47.9 4.9.2a1.02 1.01-87.5 0 0 .66-.61l5.85-15.12 2.46-6.5c1.25-1.78 4.76-7.13 2.46-8.3-2.89-1.98-5.15-1.17-6.41 2.1q-3.58 9.32-7.63 18.44l-.96-.54-7.56-19.65q-2.88-1.96-6.05-.93a.49.48-19.5 0 0-.31.63q5.5 14.79 11 29.54.39 1.04 1.59.74Zm209.56-29.76-.24 1.06a.39.39 0 0 0 .35.47l2.29.11a.58.58 0 0 0 .6-.45l.48-2.03q.26-1.09-.55-.32-.37.36-.57.8a.48.48 0 0 1-.7.2q-1.84-1.22-4.13-.99a.28.28 0 0 0-.24.37q.33.98.16 2.03a.49.49 0 0 0 .14.41l.18.19q.35.35.4-.14l.17-1.78a.56.56 0 0 1 .56-.5h.64a.47.47 0 0 1 .46.57Z"/><path fill="#674c49" d="M161.96 35q-6.86 6.06-13.76 12.07c-6.91 6.03-12.12 12.31-11.24 21.93-1.57-6.21.03-10.44 3.76-15.84 1.01-1.46 2.74-2.3 3.45-4.34q9.63-7.59 18.1-16.53c6.43-6.79 10.86-17.01 7.42-26.24a.65.65 0 0 0-1.26.23q.06 6.04-2.22 11.22l-.25-.5q2.87-7.85.97-15.96a.44.43 21.1 0 1 .78-.34c8.43 11.92 2.95 24.7-5.75 34.3Z"/><path fill="#f46853" d="M144.17 48.82h-7.16a.69.69 0 0 1-.46-1.2q8.46-7.49 17.21-14.54c5.92-4.77 9.45-9.16 12.45-15.58q2.28-5.18 2.22-11.22a.65.65 0 0 1 1.26-.23c3.44 9.23-.99 19.45-7.42 26.24q-8.47 8.94-18.1 16.53Z"/><path fill="#dc2a15" d="m165.96 17 .25.5c-3 6.42-6.53 10.81-12.45 15.58q-8.75 7.05-17.21 14.54a.69.69 0 0 0 .46 1.2h7.16c-.71 2.04-2.44 2.88-3.45 4.34-3.73 5.4-5.33 9.63-3.76 15.84q2.34 7.69 7.33 14 .69 2.69 2.96 4.21 1.98 2.17 2.79 5.04.14.5-.26.18c-6.93-5.57-15.91-14.74-20.14-23.09-5.75-11.33 2.57-19.74 10.82-26.38 9.66-7.77 19.91-14.77 25.5-25.96Z"/><path fill="#acaaa4" d="m179.04 41.25 3.21-3.21q2.61-.85 4-3.08.51-.44 1.14-.39a.66.65 84.4 0 1 .59.49l.22.88a.66.66 0 0 1-.34.75l-8.82 4.56ZM161.96 35q-3.31 4.91-6.5 7.46-9.03 7.21-14.84 14.19-.32.38-.41.87-.27 1.47-1.28 2.68a1.65 1.64 68 0 0-.38.9c-.24 2.46-1.12 4.92-.58 7.29q1.79 7.9 6.88 14.38l-.56.23q-4.99-6.31-7.33-14c-.88-9.62 4.33-15.9 11.24-21.93q6.9-6.01 13.76-12.07Z"/><path fill="#f46853" d="M186.25 34.96q-1.39 2.23-4 3.08-8.55 4.24-15.75 10.5-3.77.68-7.5-.08c6.07-6.4 18.89-11.24 27.25-13.5Z"/><path fill="#674c49" d="m182.25 38.04-3.21 3.21c-6.56 4.5-13.09 9.13-17.48 15.94q-2.15 2.99-1.1 6.81c-2.6-8.1 2.1-9.9 6.04-15.46q7.2-6.26 15.75-10.5Z"/><path fill="#dc2a15" d="M159 48.46q3.73.76 7.5.08c-3.94 5.56-8.64 7.36-6.04 15.46l2.58 5.25q.59 1.95 1.27 2.69 2.81 3.01 4.4 6.81c1.98 8.23-5.56 15.39-12.1 19.08q5.2-5.66 3.42-12.36-.53-1.95-2.87-4.88c-8.5-10.57-10.28-23.28 1.84-32.13Z"/><path fill="#acaaa4" d="M161.56 57.19q-1.3 6.38 1.9 12.06h-.42L160.46 64q-1.05-3.82 1.1-6.81Z"/><path fill="#674c49" d="M163.04 69.25h.42q3.36 3.73 5.5 8.25l-.25 1.25q-1.59-3.8-4.4-6.81-.68-.74-1.27-2.69Z"/><path fill="#2c6ba3" d="M156.61 97.83c6.54-3.69 14.08-10.85 12.1-19.08l.25-1.25c4.52 6.92-3.01 15.31-8.42 19.82q-1.65 1.38-3.93.51Z"/><path fill="#674c49" d="m144.29 83 .56-.23 2.4 4.44q-2.27-1.52-2.96-4.21Z"/><path fill="#5ea2d2" d="M204.32 92.75q4.46 2.39 6.28 6.56c4.97 11.38-10.56 20.1-18.83 22.65a.57.57 0 0 1-.44-1.05c6.34-3.41 13.97-9.98 14.11-17.45q.11-5.47-4.64-9.84c4.32-2.5-6.27-1.01-6.55-.91l-.75-.75q5.76-2.06 10.82.79Z"/><path fill="#2c6ba3" d="m193.5 91.96.75.75 6.55.91q4.75 4.37 4.64 9.84c-.14 7.47-7.77 14.04-14.11 17.45a.57.57 0 0 0 .44 1.05c8.27-2.55 23.8-11.27 18.83-22.65q-1.82-4.17-6.28-6.56 8.7 2.98 8.64 12.25l-2.71 6.71q-2.69 3.42-6.05 5.94-8.69 5.43-18.79 6.39 9.17-4.84 16.24-12.38c6.63-7.06 2.62-18.58-7.65-17.12q-2.14-.67-4.25 0l-.22-.24a.34.34 0 0 1 .01-.47q1.64-1.57 3.96-1.87Z"/><path fill="#acaaa4" d="m200.8 93.62-6.55-.91c.28-.1 10.87-1.59 6.55.91Z"/><path fill="#5ea2d2" d="m128.21 94-2.21.54q-6.31.39-11.69 3.83-2.63 1.69-.13 3.04l.32-.2 4 1.33q3.85 1.65 8 .75 29.56.54 58.73-4.13-1.2 1.45-2.8 1.96c-18.73 6.72-42.54 6.92-61.93 5.89q-9.59-.51-17.38-3.08c-.27-.09-.56-.46-.87.03-1.91-1.34-1.27-3.06.53-4.02 7.43-3.98 18.06-7.57 26.76-7.07q.52.03.07.3l-1.4.83Z"/><path fill="#acaaa4" d="M128.21 94q.11.4.05.76a.81.8-3.4 0 1-.58.65c-1.91.54-12.95 4.05-13.18 5.8l-.32.2c-.33-3.12 8.65-5.79 11.82-6.87l2.21-.54Zm65.79.54q-2.23 1.95-4.25 0 2.11-.67 4.25 0Z"/><path fill="#2c6ba3" d="M126 94.54c-3.17 1.08-12.15 3.75-11.82 6.87q-2.5-1.35.13-3.04 5.38-3.44 11.69-3.83Z"/><path fill="#acaaa4" d="M185.23 99.16q.63.46.85.93a.65.64 59.9 0 1-.21.8c-6.58 4.65-13.29 5.26-21.36 5.92 5.84-1.32 13.42-1.48 17.92-5.69q1.6-.51 2.8-1.96Z"/><path fill="#2c6ba3" d="M182.43 101.12c-4.5 4.21-12.08 4.37-17.92 5.69q-23.2 2.92-46.51.9l-14.5-2.92-1.25-.83c.31-.49.6-.12.87-.03q7.79 2.57 17.38 3.08c19.39 1.03 43.2.83 61.93-5.89Z"/><path fill="#2c6ba3" d="m118.5 102.54 8 .75q-4.15.9-8-.75Z"/><path fill="#acaaa4" d="m103.5 104.79 14.5 2.92c-4.1.29-10.89-.6-14.5-2.92Zm109.46.21q.67 4.3-2.71 6.71l2.71-6.71Z"/><path fill="#2c6ba3" d="M122.79 112.5q-.86 1.32-.44 3.04.26 2.3 3.46 2.61 24.48 2.39 46.12-1.77a1.33 1.28-33.3 0 1 .92.17l6.4 3.99-.44.57a1.58 1.57 11 0 1-.79.53l-8.02 2.32q-19.97 4.15-40.25 1.75l-8.25-2c-11.33-2.58-6.79-9.5 1.29-11.21Zm49.05 4.55c-15.63 2.87-26.13 3.3-42.27 2.24-2.6-.17-8.98-.84-8.64-4.61a.45.45 0 0 0-.51-.48q-3.64.49-5.4 3.6a.95.94 44.7 0 0 .01.96c2.84 4.76 14.32 5.93 19.71 6.28q21.23 1.37 41.59-4a.52.52 0 0 0 .18-.92l-3.76-2.85a1.18 1.16 58.1 0 0-.91-.22Z"/><path fill="#acaaa4" d="M122.79 112.5q.74.08 1.14.6a.93.93 0 0 1 .13.92q-.38 1.01-1.71 1.52-.42-1.72.44-3.04Z"/><path fill="#54b8ee" d="M129.57 119.29c16.14 1.06 26.64.63 42.27-2.24a1.18 1.16 58.1 0 1 .91.22l3.76 2.85a.52.52 0 0 1-.18.92q-20.36 5.37-41.59 4c-5.39-.35-16.87-1.52-19.71-6.28a.95.94 44.7 0 1-.01-.96q1.76-3.11 5.4-3.6a.45.45 0 0 1 .51.48c-.34 3.77 6.04 4.44 8.64 4.61Z"/><path fill="#acaaa4" d="M204.2 117.65q-6.78 5.4-16.64 7.91-1.6.41-2.15-1.52 10.1-.96 18.79-6.39Zm-24.95 2.89.34.13a.45.45 0 0 1 .28.49c-.44 2.63-7.01 2.63-9.87 2.8l8.02-2.32a1.58 1.57 11 0 0 .79-.53l.44-.57Zm-57.75 3.17 8.25 2q-4.7.12-8.98-1.7-.52-.22.04-.26l.69-.04Z"/><path fill="#2c6ba3" d="M142.75 136.21c-3.68.43-16.63.53-17.56-3.67a.55.54-13 0 0-.66-.41q-3.17.75-4.55 3.61a.91.9 39.9 0 0 .09.95c2.92 3.93 7.06 4.76 11.43 6.02l-2.75.08c-2.97-1.05-8.35-2.98-9.21-6.1-.83-3.05 4.57-5.22 6.92-5.79a.28.28 0 0 1 .34.35c-1.44 5.11 11.3 4.77 15.95 4.96Z"/><path fill="#5ea2d2" d="M142.75 136.21q12.02.15 23.81-2.12a1.5 1.48 52.3 0 1 .96.13l7.98 3.99c-11.56 6.63-31.07 6.67-44 4.5-4.37-1.26-8.51-2.09-11.43-6.02a.91.9 39.9 0 1-.09-.95q1.38-2.86 4.55-3.61a.55.54-13 0 1 .66.41c.93 4.2 13.88 4.1 17.56 3.67Z"/><path fill="#393938" d="M175.5 138.21q.74.19.9.44a.88.86 62.9 0 1-.41 1.3q-21.84 8.26-44.57 3.74-.24-.04-.03-.16l.24-.13q.13-.07-.02-.1l-2.86-.51 2.75-.08c12.93 2.17 32.44 2.13 44-4.5Z"/><path fill="#2c6ba3" d="M113.79 143.5q-1.31.88-4.32 1.17-3.63.35-8.76 3.99-1.28.19-1.46 1.54a1.04 1.03 13 0 0 .7 1.11q10.02 3.24 20.47 3.99c8.04.57 84.99 2.82 81.71-10.27q-.12-.49.36-.34 1.95.58 2.55 2.56c.29 5.56-13.7 8.68-17.54 9.27q-1.22.19-1.96 1.23-34.7 6.18-69.79 2.46-7.62-1.25-15.28-2.15c-3.63-.43-7.12-1.49-10.68-2.31l-1.42-1.07a1.75 1.73-82.3 0 1-.58-.77c-2.65-6.95 20.72-12.74 26-10.41Z"/><path fill="#acaaa4" d="M113.79 143.5q.64-.05 1.1.32a.44.44 0 0 1 .02.66l-.59.55a1.58 1.57 20.8 0 1-.92.41q-6.51.67-12.69 3.22 5.13-3.64 8.76-3.99 3.01-.29 4.32-1.17Zm91.25 3.75q.71.49 1.03 1.22a.92.92 0 0 1-.07.9c-3.61 5.42-14.66 7.63-20.46 8.38q.74-1.04 1.96-1.23c3.84-.59 17.83-3.71 17.54-9.27Z"/><path fill="#25578d" d="M211.75 153.54c-.47 10.85-27.27 13.51-35.25 14.92q-2.66.1-13.19.85-17.58 1.26-39.06-1.35-2.91-1.19-6.04-.96-3.91-.7-7.3-2.73-.43-.26.07-.21c28.2 3.33 58.55 3.06 86.2-3.88q7.91-1.99 14.57-6.64Z"/><path fill="#acaaa4" d="m211.75 153.54 1.34.32a.81.8-66.8 0 1 .49 1.23c-2.94 4.38-5.1 6.48-10.27 8.37q-12.93 4.7-26.81 5c7.98-1.41 34.78-4.07 35.25-14.92Zm-121.96 2.21c3.56.82 7.05 1.88 10.68 2.31q7.66.9 15.28 2.15-13.01-.51-24.94-3.52-.68-.17-1.02-.94Zm34.46 12.21q-3.1.07-6.04-.96 3.13-.23 6.04.96Z"/><path fill="#f46853" d="m146.04 190.25.03 4.5a.81.81 0 0 1-1.29.66q-2.99-2.21-6.96-2.88c-4.06-.69-9.2 1.69-9 6.46.2 4.51 7.01 7.78 11.93 10.3q3.67 2.1 6.25 5.42c-2.8.77-5.14 1.2-7.84-.39q-6.81-4.02-13.32-8.54-3.15-3.35-2.58-7.02c1.81-11.61 14.06-11.93 22.78-8.51Z"/><path fill="#dc2a15" d="m22.04 189.75-.5 9.5-.12-9.15a.61.61 0 0 0-.66-.6l-3.62.28a.87.87 0 0 0-.8.86l-.13 23.57a.81.81 0 0 0 .58.78q2.38.68 4.67.01c.85 9.23 2.61 22.97-10.62 23.87q-2.54.17-5.28.55-3-2.32-1.79-6.34a.43.43 0 0 1 .6-.26c8.26 3.94 11.35 1.7 11.36-7.11q.04-17.84.02-35.67a.64.64 0 0 1 .49-.62q3.01-.69 5.8.33Z"/><path fill="#f46853" d="M214.25 189.29q1.21 2.33.59 4.85a.71.7-87.5 0 1-.58.54l-4.01.61q-1.35-2.64-.59-5.48a.68.67-82 0 1 .65-.5l3.94-.02Z"/><path fill="#674c49" d="M214.25 189.29c2.7-.53 2.11 4.09 1.93 5.82a.87.86 82.6 0 1-.53.7q-2.85 1.12-5.4-.52l4.01-.61a.71.7-87.5 0 0 .58-.54q.62-2.52-.59-4.85Z"/><path fill="#f46853" d="M21.54 199.25 21.46 215q-2.29.67-4.67-.01a.81.81 0 0 1-.58-.78l.13-23.57a.87.87 0 0 1 .8-.86l3.62-.28a.61.61 0 0 1 .66.6l.12 9.15Z"/><path fill="#393938" d="M22.04 189.75q.19.77.21 1.56.23 17.16.25 34.31 0 5.76-1.11 8.08c-2.74 5.67-10.1 7.21-15.83 5.72q2.74-.38 5.28-.55c13.23-.9 11.47-14.64 10.62-23.87l.08-15.75.5-9.5Z"/><path fill="#674c49" d="M146.04 190.25q1.81 2.78.56 6.06a.48.47 22.8 0 1-.65.26c-4.56-2.15-9.85-4.63-13.83-1.31-6.93 5.79 5.62 11.64 9.13 13.78l-.5.25c-4.92-2.52-11.73-5.79-11.93-10.3-.2-4.77 4.94-7.15 9-6.46q3.97.67 6.96 2.88a.81.81 0 0 0 1.29-.66l-.03-4.5Z"/><path fill="#dc2a15" d="m268.79 195-.33.75q-2.2-1.02-4.38.17a.73.72 71.8 0 0-.37.74q.26 1.78-.41 3.38-.62-2.48-.19-4.3a.91.88 88.5 0 1 .6-.65q2.52-.8 5.08-.09Z"/><path fill="#393938" d="M268.79 195c1.13 1.88-.3 4.63 1.25 5.5l-.54.46-.33-.09a.41.41 0 0 1-.31-.37l-.4-4.75.33-.75Z"/><path fill="#f46853" d="m268.46 195.75.4 4.75a.41.41 0 0 0 .31.37l.33.09 6.22.1a.65.65 0 0 1 .64.69l-.12 2.17a.66.66 0 0 1-.67.62l-6.28-.09a.85.84 0 0 0-.86.85l.03 10.45-3.95-.64a.63.62 2.9 0 1-.53-.58l-.52-9.28q-1.71-1.79-3.96-.46-1.02-1.92-.27-3.87a.82.82 0 0 1 .69-.53l3.38-.35q.67-1.6.41-3.38a.73.72 71.8 0 1 .37-.74q2.18-1.19 4.38-.17Z"/><path fill="#dc2a15" d="m49.75 201.54-.29.46c-5.29-2.58-8.73-.59-13.21-.96q6.9-2.25 13.5.5Zm63.14.91-.18 1.05c-4.17-3.96-12.6-2.78-17.61-1.14a1.1 1.1 0 0 0-.67.6q-.22.49-.64.79l-.04-.84a.78.77 76.1 0 1 .45-.75q9.46-4.45 18.69.29Zm61.11 3.01q.76-.34 1.86-.25 2.11-.29 1.61-2.94a.8.79-88.9 0 0-.59-.62c-10.1-2.4-22.2-.26-21.64 13.02a.54.53 88.9 0 0 .53.52l4.44.06q-.1 5.43 3.57 9.21 6.59 4.79 13.39.46a.65.64 51.5 0 1 .81.1q.43.45.31 1.23-.1 1.47-.79 2.63c-1.69 2.84-9.98 2.36-12.75 1.83l-2.5-.67q-9.74-6.28-7.53-18.34c2.19-11.94 13.37-13.21 23.12-10.88a.7.69 5.5 0 1 .54.65l.17 4.47a.46.46 0 0 1-.56.46l-3.99-.94Z"/><path fill="#393938" d="m187.25 231.29 3.5-.69a.7.69-2.4 0 0 .56-.6q.87-7.26.19-14.54c-.85-6.34 5.05-11.03 10.98-10.54a.48.48 0 0 0 .52-.48v-2.29a.75.74-78.8 0 0-.46-.69c-4.33-1.77-6.72 1.45-9.75 3.79l-.25-.75c3.55-2.7 4.85-4.8 9.81-4.49a1.94 1.93 1.9 0 1 1.82 1.94l-.04 3.83a.48.47 3.7 0 1-.54.47c-6.22-.88-10.94 2.49-10.85 8.82q.1 8-.09 16a.5.5 0 0 1-.53.49l-4.87-.27Z"/><path fill="#f46853" d="M215.73 200.65q-1.03 7.53-.52 14.85l-4.47-.74a.73.72 89.4 0 1-.6-.59q-.12-.72-.6-1.17l.12-12.06a.62.62 0 0 1 .51-.6q2.64-.5 5.56.31Z"/><path fill="#dc2a15" d="M248.5 201.79v.67q-9.6-4.89-15.96 3.22a.58.58 0 0 1-1.03-.36l.02-3.34a.67.67 0 0 0-.67-.68h-3.34a.62.62 0 0 0-.62.62v12.33a.74.74 0 0 0 .52.71q2.01.65 4.04.29-.68 4.54 1.11 8.5c3.62 3.38 10.67 5.21 13.32-.33q3.68-7.71.07-15.42l.29-.54q2.2 3 2.31 6.85a.64.63 3.8 0 0 .54.61l3.67.53a.43.43 0 0 0 .49-.39l.03-.31c1.4 9.97-5.78 18.86-16.54 15.96q-.9-.97-2.25-.67l-1.25-.83-1.13-1.29q-.31-.36-.32.11l-.36 12.97a.86.86 0 0 1-1.11.8q-1.26-.39-4.01.54l-.31-41.46a.6.59-89.6 0 1 .61-.61l4.44.11a1.13 1.12 75.4 0 1 .96.57q.95 1.65.2 3.54a.29.29 0 0 0 .49.29q6.49-7.84 15.79-2.99Zm-182.77-.44-.52.65q-1.97-1.74-4.45-.43a.64.64 0 0 0-.3.78l4.33 11.71a1.35 1.33 3.8 0 0 .65.73q2.21 1.15 4.35-.04l3.42 7.5.24.22a.24.24 0 0 0 .38-.07l.42-.86q4.05-9.12 7.63-18.44c1.26-3.27 3.52-4.08 6.41-2.1l-.33 1.25-.92.25c-.13-1.63-3.53-1.75-3.99-.45-1.55 4.35-4.37 9.04-4.85 12.55a.49.49 0 0 0 .43.55l3.33.35-.71 2.96-4.61 11.48a.88.86 4.3 0 1-.63.53l-4.05.86q-1.2.3-1.59-.74-5.5-14.75-11-29.54a.49.48-19.5 0 1 .31-.63q3.17-1.03 6.05.93Z"/><path fill="#f46853" d="M192.46 204q-.85.44-.73 1.32a.48.48 0 0 0 .66.38q.26-.1.4-.45c3.03-2.34 5.42-5.56 9.75-3.79a.75.74-78.8 0 1 .46.69v2.29a.48.48 0 0 1-.52.48c-5.93-.49-11.83 4.2-10.98 10.54l-5.21-.71-.19-13.84a.65.65 0 0 1 .65-.66h4.45a1.05 1.03-19.6 0 1 .8.37q1.22 1.49.46 3.38Z"/><path fill="#dc2a15" d="M281.06 201h-.64a.56.56 0 0 0-.56.5l-.17 1.78q-.05.49-.4.14l-.18-.19a.49.49 0 0 1-.14-.41q.17-1.05-.16-2.03a.28.28 0 0 1 .24-.37q2.29-.23 4.13.99a.48.48 0 0 0 .7-.2q.2-.44.57-.8.81-.77.55.32l-.48 2.03a.58.58 0 0 1-.6.45l-2.29-.11a.39.39 0 0 1-.35-.47l.24-1.06a.47.47 0 0 0-.46-.57Z"/><path fill="#f46853" d="m49.46 202 2 1.5c2.5 4.05 1.32 7.11 1.75 11.25L47 215.79l-1.21-.04-9.11-.91q-.56-.06-.07-.34 4.63-2.61 9.91-1.89.52.07 1.23-.57 1.63-3.7-1.13-6.76-6.41-2.19-12.18 1.15-.37.21-1.9.32l.02-3.93a.71.7 80.9 0 1 .48-.67l3.21-1.11c4.48.37 7.92-1.62 13.21.96Z"/><path fill="#674c49" d="m270.04 200.5 6.37.03a.72.72 0 0 1 .72.64l.45 3.65a.63.63 0 0 1-.65.7l-6.76-.33a.56.55 2.6 0 0-.58.52q-.57 9.75.09 19.63-2.2-4.36-1.22-9.59l-.03-10.45a.85.84 0 0 1 .86-.85l6.28.09a.66.66 0 0 0 .67-.62l.12-2.17a.65.65 0 0 0-.64-.69l-6.22-.1.54-.46Zm-54.31.15q.91 15.17.52 30.31a.54.53 1.1 0 1-.54.51l-3.21-.01 2.2-.63a.68.68 0 0 0 .49-.65l.02-14.68q-.51-7.32.52-14.85Z"/><path fill="#f46853" d="M248.5 202.46q5.62 4.74 4.79 12.29l-.03.31a.43.43 0 0 1-.49.39l-3.67-.53a.64.63 3.8 0 1-.54-.61q-.11-3.85-2.31-6.85c-3.88-5.09-11.28-1.66-14.43 2.41a1.5 1.49-25.8 0 0-.31.88l-.05 4.5q-2.03.36-4.04-.29a.74.74 0 0 1-.52-.71v-12.33a.62.62 0 0 1 .62-.62h3.34a.67.67 0 0 1 .67.68l-.02 3.34a.58.58 0 0 0 1.03.36q6.36-8.11 15.96-3.22ZM65.21 202l4.58 12.75q-2.14 1.19-4.35.04a1.35 1.33 3.8 0 1-.65-.73l-4.33-11.71a.64.64 0 0 1 .3-.78q2.48-1.31 4.45.43Zm21.83.5-5.08 13-3.33-.35a.49.49 0 0 1-.43-.55c.48-3.51 3.3-8.2 4.85-12.55.46-1.3 3.86-1.18 3.99.45Z"/><path fill="#acaaa4" d="M88.29 201c2.3 1.17-1.21 6.52-2.46 8.3l2.13-7.05.33-1.25Z"/><path fill="#f46853" d="M112.71 203.5c1.93 4.66 1.49 7.11 1.5 12q-4.59-.67-9.14.11a1.32 1.29 55.7 0 1-.9-.18c-1.46-.92-5.18-.02-7.13-.51q-.62-.15-.02-.39 5.65-2.21 11.73-2.03a.41.41 0 0 0 .42-.38q.02-.25-.17-.37 1.26-3.2-.52-6.01a1.46 1.46 0 0 0-.75-.6q-7.07-2.57-13.23 1.82l-.71.04v-3.25q.42-.3.64-.79a1.1 1.1 0 0 1 .67-.6c5.01-1.64 13.44-2.82 17.61 1.14Zm63.15 1.71q-8.03-3.32-13.29 2.82-1.61 1.89-2.36 7.22l-4.44-.06a.54.53 88.9 0 1-.53-.52c-.56-13.28 11.54-15.42 21.64-13.02a.8.79-88.9 0 1 .59.62q.5 2.65-1.61 2.94Z"/><path fill="#674c49" d="m49.75 201.54 1.79 1.46-.08.5-2-1.5.29-.46Zm15.98-.19L73.29 221l-.08 1.25-3.42-7.5L65.21 202l.52-.65Z"/><path fill="#393938" d="M248.5 201.79c11.64 8.4 6.65 34.58-11.5 29.71-.28-.08-.42-.26-.54-.5l.29-.29c10.76 2.9 17.94-5.99 16.54-15.96q.83-7.55-4.79-12.29v-.67Z"/><path fill="#674c49" d="m87.96 202.25-2.13 7.05-2.46 6.5q-1.43 1.07-2.12 2.66l.71-2.96 5.08-13 .92-.25Z"/><path fill="#393938" d="M112.89 202.45q2.35 3.5 2.33 5.62c-.01 2.63-.56 17.5 1.03 18.64q-1.99-.1-2-2.27l-.04-8.94c-.01-4.89.43-7.34-1.5-12l.18-1.05Zm-61.35.55c3.8 3.2 2.73 18.19 2.92 23.25l-.53-.48a1.15 1.13-69.9 0 1-.38-.83l-.34-10.19c-.43-4.14.75-7.2-1.75-11.25l.08-.5Z"/><path fill="#674c49" d="m192.46 204 .08.5.25.75q-.14.35-.4.45a.48.48 0 0 1-.66-.38q-.12-.88.73-1.32ZM109 211.75c.45-7-2.92-7.45-8.75-6.21l-1.33-.03a1.45 1.43 26.4 0 0-.91.3q-1.53 1.22-3.51 1.15 6.16-4.39 13.23-1.82a1.46 1.46 0 0 1 .75.6q1.78 2.81.52 6.01Z"/><path fill="#393938" d="M175.86 205.21q-1.1-.09-1.86.25c-12.64-3.29-14.69 10.96-10.22 19q-3.67-3.78-3.57-9.21.75-5.33 2.36-7.22 5.26-6.14 13.29-2.82Z"/><path fill="#674c49" d="m263.46 205.25-.42 3.25-.17-2.72a.5.5 0 0 0-.56-.46q-1.5.19-2.81-.53 2.25-1.33 3.96.46Z"/><path fill="#393938" d="m46.62 205.28-.16.47q-6.09-1.75-12.02 1.69-1.37.79-1.9-.69 1.53-.11 1.9-.32 5.77-3.34 12.18-1.15Zm199.63 2.18-.29.54c-3.11-4.46-10.12-.89-12.95 2.16a1.31 1.28 66.8 0 0-.34.88l-.1 12.71q-1.79-3.96-1.11-8.5l.05-4.5a1.5 1.49-25.8 0 1 .31-.88c3.15-4.07 10.55-7.5 14.43-2.41Z"/><path fill="#dc2a15" d="m263.46 205.25.52 9.28a.63.62 2.9 0 0 .53.58l3.95.64q-.98 5.23 1.22 9.59 2.27 1.91 4.82 1.62l.98.06a.71.7-89.1 0 1 .66.69l.05 1.98a.85.84 82.1 0 1-.62.83q-4.6 1.25-10.07-.84-4.09-10.05-2.46-21.18l.42-3.25Z"/><path fill="#674c49" d="M46.62 205.28q2.76 3.06 1.13 6.76l-.5-.08q1.46-3.37-.79-6.21l.16-.47Z"/><path fill="#acaaa4" d="m100.25 205.54-4.82 2.72a.59.58 56.1 0 1-.74-.15l-.9-1.11.71-.04q1.98.07 3.51-1.15a1.45 1.43 26.4 0 1 .91-.3l1.33.03Z"/><path fill="#dc2a15" d="M147 214.71c4.63 8.07-1.87 16.41-10.5 16.8q-2.34.1-10.75-.22c-3.33-.36-2.95-4.42-2.57-6.58a.42.42 0 0 1 .56-.32c4.39 1.72 9.2 3.83 14 2.59 5.27-1.36 6.21-8.46 1.54-11.47-4.26-2.75-10.66-5.44-13.44-9.73q6.51 4.52 13.32 8.54c2.7 1.59 5.04 1.16 7.84.39Z"/><path fill="#fff" d="M245.96 208q3.61 7.71-.07 15.42c-2.65 5.54-9.7 3.71-13.32.33l.1-12.71a1.31 1.28 66.8 0 1 .34-.88c2.83-3.05 9.84-6.62 12.95-2.16Z"/><path fill="#393938" d="M141.25 209.04q5.07 2.8 6.41 5.28c4.09 7.57.6 15.91-8.02 17.57q-7.03 1.36-13.89-.6 8.41.32 10.75.22c8.63-.39 15.13-8.73 10.5-16.8q-2.58-3.32-6.25-5.42l.5-.25Z"/><path fill="#dc2a15" d="M109 211.75q.19.12.17.37a.41.41 0 0 1-.42.38q-6.08-.18-11.73 2.03-.6.24.02.39c1.95.49 5.67-.41 7.13.51a1.32 1.29 55.7 0 0 .9.18q4.55-.78 9.14-.11l.04 8.94q.01 2.17 2 2.27l2.29.79q-.16 5.08-5.56 3.67-1.88-.71-2.98-2.71.18-.72-.19-1.01a.61.61 0 0 0-.8.02q-6.52 6.01-14.87 2.14-5.36-6.68-1.46-12.18c3.46-4.9 10.55-5.79 16.32-5.68Zm-11.11 12.79q5.7 3.36 10.58-.98a1.18 1.16-21.7 0 0 .38-.86l-.07-5.8q-8.33-2.6-12.36 4.39a1.22 1.21 53.8 0 0-.14.92q.37 1.48 1.61 2.33Zm-50.64-12.58.5.08q-.71.64-1.23.57-5.28-.72-9.91 1.89-.49.28.07.34l9.11.91q-.06.14-.16.26a.76.75-65.7 0 1-.64.25q-6.19-.59-9.33 4.15-1.46 2.22.84 3.55c2.97 3.81 7.28 2.06 10.55-.23a.97.97 0 0 0 .42-.8l-.01-6.43-.46-.71 6.21-1.04.34 10.19a1.15 1.13-69.9 0 0 .38.83l.53.48q1.72.29 3.35 1.88-1.77 4.88-7.06 2.66l-2.04-2.54q.18-.57-.03-.9a.45.44 52.3 0 0-.69-.09q-5.21 5.06-12.49 3.78-4.89-1.87-5.47-6.31c-1.38-10.75 8.78-12.99 17.22-12.77ZM209.54 213q.48.45.6 1.17a.73.72 89.4 0 0 .6.59l4.47.74-.02 14.68a.68.68 0 0 1-.49.65l-2.2.63q-1.17.17-2.22-.28a.77.76 11.8 0 1-.46-.7l-.28-17.48Zm-23.25 1.75 5.21.71q.68 7.28-.19 14.54a.7.69-2.4 0 1-.56.6l-3.5.69-.52-.33a.92.91-73.7 0 1-.42-.77l-.02-15.44Z"/><path fill="#393938" d="m45.79 215.75 1.21.04.46.71c-5.21.76-11.41 1.03-10.96 7.46q-2.3-1.33-.84-3.55 3.14-4.74 9.33-4.15a.76.75-65.7 0 0 .64-.25q.1-.12.16-.26Zm37.58.05-5.85 15.12a1.02 1.01-87.5 0 1-.66.61q-2.43.7-4.9-.2l4.05-.86a.88.86 4.3 0 0 .63-.53l4.61-11.48q.69-1.59 2.12-2.66Zm25.41 1.1c-4.27-.36-12.79 1.54-10.89 7.64q-1.24-.85-1.61-2.33a1.22 1.21 53.8 0 1 .14-.92q4.03-6.99 12.36-4.39Z"/><path fill="#fff" d="m47.46 216.5.01 6.43a.97.97 0 0 1-.42.8c-3.27 2.29-7.58 4.04-10.55.23-.45-6.43 5.75-6.7 10.96-7.46Zm61.32.4.07 5.8a1.18 1.16-21.7 0 1-.38.86q-4.88 4.34-10.58.98c-1.9-6.1 6.62-8 10.89-7.64Z"/><path fill="#acaaa4" d="m73.29 221 .96.54-.42.86a.24.24 0 0 1-.38.07l-.24-.22.08-1.25Z"/><path fill="#393938" d="M178.29 226.25q.76 1.82.31 3.73a.9.88 87.1 0 1-.58.65c-3.47 1.2-10.47 2.48-13.56.37l.29-.29c2.77.53 11.06 1.01 12.75-1.83q.69-1.16.79-2.63Z"/><path fill="#674c49" d="M265.5 229.68q5.47 2.09 10.07.84a.85.84 82.1 0 0 .62-.83l-.05-1.98a.71.7-89.1 0 0-.66-.69l-.98-.06c2.88-2.23 3.12 2.41 2.74 3.86a.97.96-2.4 0 1-.61.66q-5.58 2.02-11.13-1.8Z"/><path fill="#393938" d="M48.71 228.25c-.34-.04-.54-.04-.79.22q-5.28 5.47-12.42 2.57 7.28 1.28 12.49-3.78a.45.44 52.3 0 1 .69.09q.21.33.03.9Zm61.29.21c-5.46 3.19-10.09 5.99-15.86 1.15q8.35 3.87 14.87-2.14a.61.61 0 0 1 .8-.02q.37.29.19 1.01Z"/><path fill="#674c49" d="M118.54 227.5q1.24 1.36.99 3.18a1.04 1.02 79.5 0 1-.51.76q-3.06 1.72-6.04-.27 5.4 1.41 5.56-3.67Z"/><path fill="#393938" d="m233.25 229.21-.34.03a.3.29 89 0 0-.27.29l-.18 12.56a.59.59 0 0 1-.63.58l-5.51-.33q2.75-.93 4.01-.54a.86.86 0 0 0 1.11-.8l.36-12.97q.01-.47.32-.11l1.13 1.29Z"/><path fill="#674c49" d="M57.81 228.13q.56.96.35 2.43a1.1 1.08 79.4 0 1-.52.77q-3.55 2.06-6.89-.54 5.29 2.22 7.06-2.66Zm104.44 1.91 2.5.67-.29.29-2.21-.96Zm72.25 0q1.35-.3 2.25.67l-.29.29-1.96-.96Z"/></svg>