<svg version="1.1" id="Layer_1" xmlns="http://www.w3.org/2000/svg" xmlns:xlink="http://www.w3.org/1999/xlink" x="0px" y="0px"
	 width="100%" viewBox="0 0 657 436" enable-background="new 0 0 657 436" xml:space="preserve">
<path fill="#FFFFFF" opacity="1.000000" stroke="none" 
	d="
M595.000000,437.000000 
	C396.666656,437.000000 198.833328,437.000000 1.000000,437.000000 
	C1.000000,291.666656 1.000000,146.333328 1.000000,1.000000 
	C220.000000,1.000000 439.000000,1.000000 658.000000,1.000000 
	C658.000000,146.333328 658.000000,291.666656 658.000000,437.000000 
	C637.166687,437.000000 616.333313,437.000000 595.000000,437.000000 
M180.794220,259.005707 
	C180.794220,252.406860 180.794220,245.808014 180.794220,238.717056 
	C187.153946,238.717056 192.770966,238.627304 198.383438,238.748627 
	C202.119400,238.829376 203.969788,237.447327 203.758759,233.481049 
	C203.564621,229.831802 203.567413,226.156250 203.758484,222.506683 
	C203.960770,218.643036 202.415497,217.091583 198.510239,217.230103 
	C192.773270,217.433609 187.023727,217.282562 180.916046,217.282562 
	C180.916046,210.870438 180.767731,205.235519 180.971558,199.613373 
	C181.094131,196.231873 180.058044,194.699768 176.469849,194.901016 
	C172.490112,195.124207 168.475922,195.146210 164.499481,194.895233 
	C160.747253,194.658417 159.444611,196.204544 159.548294,199.813980 
	C159.709091,205.412140 159.590729,211.018311 159.590729,217.283463 
	C153.194183,217.283463 147.418076,217.367218 141.645966,217.251251 
	C138.319260,217.184433 136.709442,218.357803 136.906616,221.909164 
	C137.109177,225.557480 137.216293,229.249939 136.885727,232.879410 
	C136.449127,237.672928 138.599701,238.995682 143.009628,238.780807 
	C148.409225,238.517731 153.831390,238.718109 159.594330,238.718109 
	C159.594330,245.267792 159.475357,250.913345 159.676315,256.547485 
	C159.727844,257.992157 160.793793,260.637939 161.386078,260.635803 
	C167.741348,260.612701 174.095108,260.168854 180.794220,259.005707 
M225.035461,233.470123 
	C225.035461,236.585632 225.035461,239.701141 225.035461,243.003250 
	C227.238892,243.003250 228.999405,243.003250 231.202164,243.003250 
	C231.202164,238.782913 231.049591,234.802597 231.255875,230.840973 
	C231.393173,228.204269 232.363876,225.844177 235.696594,225.951874 
	C239.117142,226.062393 239.592972,228.541489 239.636963,231.186218 
	C239.702377,235.118393 239.653915,239.052460 239.653915,242.960480 
	C242.063965,242.960480 243.829483,242.960480 245.928116,242.960480 
	C245.928116,238.696106 245.871277,234.722641 245.947266,230.751709 
	C246.001709,227.906494 247.180573,225.871094 250.393799,225.966995 
	C253.454758,226.058334 254.184631,228.131699 254.173218,230.750122 
	C254.155426,234.828842 254.168518,238.907684 254.168518,243.304153 
	C256.647949,243.192795 258.393860,243.114395 260.347229,243.026657 
	C260.347229,238.460892 260.600037,234.309814 260.294098,230.200302 
	C259.675262,221.886887 253.999954,218.632294 246.369858,221.936829 
	C245.383713,222.363907 244.257889,222.896378 243.257690,222.792618 
	C237.367615,222.181717 231.495605,221.396759 225.035416,220.598480 
	C225.035416,225.247391 225.035416,228.869476 225.035461,233.470123 
M361.986328,240.973999 
	C363.686035,241.977112 365.385773,242.980225 368.028259,244.539749 
	C368.028259,239.112015 367.946411,235.467590 368.053864,231.828751 
	C368.141388,228.863632 368.620056,225.915451 372.556915,225.962265 
	C376.362793,226.007523 376.442810,228.928375 376.487061,231.661118 
	C376.547913,235.422134 376.502289,239.184860 376.502289,242.950638 
	C378.953644,242.950638 380.708466,242.950638 382.828400,242.950638 
	C382.828400,238.680954 382.770782,234.709930 382.847839,230.741531 
	C382.903015,227.900574 384.177490,225.401962 387.239624,226.159164 
	C388.803589,226.545883 390.676086,229.029007 390.912048,230.767746 
	C391.455841,234.775101 391.084564,238.906647 391.084564,243.299805 
	C393.541656,243.186844 395.279419,243.106949 397.128357,243.021942 
	C397.128357,238.276566 397.365906,233.954941 397.076202,229.668945 
	C396.559479,222.024445 390.787262,218.740067 383.641144,221.744171 
	C382.501801,222.223114 381.226318,222.864883 380.078491,222.755081 
	C374.200226,222.192780 368.343140,221.408966 361.983582,220.642960 
	C361.983582,227.820724 361.983582,233.947662 361.986328,240.973999 
M453.852539,215.844803 
	C453.710876,210.873581 450.244507,213.688889 447.936951,213.034958 
	C447.781647,216.248764 447.643158,219.115479 447.514954,221.768784 
	C444.584656,221.431808 442.292816,220.854752 440.035858,220.968704 
	C433.781738,221.284378 429.963867,225.738464 429.968445,232.332626 
	C429.972626,238.342163 434.111023,243.542847 439.667267,243.675629 
	C444.275635,243.785767 448.904114,243.052780 453.855194,242.667511 
	C453.855194,234.055862 453.855194,225.417160 453.852539,215.844803 
M404.217957,225.917130 
	C401.189178,233.212875 402.489410,238.840668 407.947083,242.057953 
	C413.615814,245.399658 420.089813,244.136917 425.404572,237.376846 
	C422.008148,237.555405 419.812103,237.501465 417.672455,237.822861 
	C414.427643,238.310272 411.161530,239.254883 408.777130,234.705032 
	C414.756805,234.705032 420.153778,234.705032 425.574219,234.705032 
	C426.776031,229.659409 425.248566,226.023483 421.704285,223.270569 
	C416.526764,219.249115 410.726471,220.027176 404.217957,225.917130 
M321.935577,225.630005 
	C317.960510,234.717133 321.841492,243.501923 330.181427,243.712646 
	C334.679016,243.826279 339.199280,243.042755 343.653931,242.668655 
	C343.653931,235.579361 343.653931,228.503983 343.653931,221.732025 
	C339.200592,221.420761 335.005585,220.533752 330.987000,221.041794 
	C327.980072,221.421951 325.200500,223.600342 321.935577,225.630005 
M297.468506,221.130585 
	C296.480286,222.057800 294.676086,222.951416 294.636292,223.917648 
	C294.378143,230.188980 294.503845,236.476089 294.503845,242.829224 
	C296.852509,242.829224 298.699219,242.829224 300.808594,242.829224 
	C300.808594,238.409256 300.397247,234.354813 301.001282,230.457764 
	C301.260406,228.785904 303.629852,227.441132 305.040436,225.947723 
	C306.360107,227.497375 308.581726,228.921173 308.819031,230.621857 
	C309.380585,234.646362 308.999451,238.802414 308.999451,243.012665 
	C311.317841,243.012665 313.073975,243.012665 315.050049,243.012665 
	C315.050049,238.149445 315.305084,233.508240 314.988159,228.906433 
	C314.551544,222.566895 310.502686,219.842865 304.366180,221.046600 
	C302.411774,221.429977 300.322174,221.124298 297.468506,221.130585 
M518.304749,225.309525 
	C514.514771,220.861664 509.777832,219.928604 504.392548,221.663147 
	C500.004028,223.076645 497.605560,226.253433 496.962341,230.723145 
	C496.249725,235.675385 498.763855,240.206573 503.366455,242.586288 
	C508.017120,244.990845 513.634583,243.967331 517.509277,240.009445 
	C521.322144,236.114792 521.698669,231.915237 518.304749,225.309525 
M289.296173,234.700226 
	C289.990997,228.876541 287.893829,224.375595 283.463104,222.181198 
	C278.632263,219.788620 272.161041,220.795792 268.736053,224.473267 
	C265.479889,227.969467 264.755615,233.191711 266.944672,237.389496 
	C269.277496,241.862976 274.427643,244.580505 279.411957,243.694061 
	C284.175323,242.846909 287.498108,240.105530 289.296173,234.700226 
M535.416138,243.838913 
	C541.279236,243.139618 543.900879,241.004868 543.937012,236.714874 
	C543.980347,231.570419 540.154846,230.721619 536.259399,229.893967 
	C534.492859,229.518631 532.791870,228.834991 531.061157,228.291214 
	C531.196899,227.644897 531.332581,226.998581 531.468262,226.352249 
	C534.362427,226.635635 537.256653,226.919006 540.766296,227.262650 
	C541.263245,226.549011 542.150024,225.275558 544.089600,222.490372 
	C538.849365,221.921036 534.856506,220.977051 530.937683,221.220917 
	C527.732117,221.420395 524.989746,223.334793 524.969299,227.354584 
	C524.949890,231.164551 527.065491,233.095215 530.471802,234.033524 
	C532.927368,234.709961 535.374939,235.415131 537.826111,236.107468 
	C537.779541,236.632492 537.733032,237.157532 537.686462,237.682556 
	C535.426025,237.682556 532.932922,238.294952 530.957458,237.544586 
	C527.676453,236.298355 526.001465,237.066406 524.706055,241.088577 
	C528.079895,242.027054 531.332397,242.931793 535.416138,243.838913 
M479.461975,243.301270 
	C486.559357,244.458145 490.348175,242.814819 493.851410,235.745865 
	C490.717651,236.421402 488.688812,237.210693 486.660278,237.209915 
	C483.920197,237.208847 480.524475,237.477478 478.600433,236.038635 
	C475.985168,234.082977 476.367004,230.530991 478.739868,228.041122 
	C481.140961,225.521713 483.778625,225.786072 486.860168,227.531921 
	C488.566040,228.498367 491.115845,227.975098 494.398865,228.199448 
	C489.796600,221.787354 485.071564,219.706009 480.048553,221.219696 
	C475.275970,222.657913 471.698517,225.592682 471.115570,230.869598 
	C470.461029,236.794357 473.538300,240.636002 479.461975,243.301270 
M462.589203,243.233215 
	C463.722046,242.673340 465.819244,242.146942 465.840027,241.548462 
	C466.073486,234.822372 465.987701,228.085205 465.987701,221.393616 
	C463.679230,221.393616 462.083557,221.393616 460.008362,221.393616 
	C460.008362,228.215790 459.961823,234.808273 460.084808,241.397583 
	C460.096344,242.014069 461.178802,242.610550 462.589203,243.233215 
M463.970062,212.716766 
	C462.567474,213.479797 460.878052,214.000259 459.916901,215.136627 
	C459.577576,215.537796 460.738831,217.874619 461.737335,218.521652 
	C462.482269,219.004364 465.070648,218.291306 465.105804,217.938263 
	C465.268921,216.300034 464.827789,214.601608 463.970062,212.716766 
z"/>
<path fill="#FC5F79" opacity="1.000000" stroke="none" 
	d="
M180.621750,259.422974 
	C174.095108,260.168854 167.741348,260.612701 161.386078,260.635803 
	C160.793793,260.637939 159.727844,257.992157 159.676315,256.547485 
	C159.475357,250.913345 159.594330,245.267792 159.594330,238.718109 
	C153.831390,238.718109 148.409225,238.517731 143.009628,238.780807 
	C138.599701,238.995682 136.449127,237.672928 136.885727,232.879410 
	C137.216293,229.249939 137.109177,225.557480 136.906616,221.909164 
	C136.709442,218.357803 138.319260,217.184433 141.645966,217.251251 
	C147.418076,217.367218 153.194183,217.283463 159.590729,217.283463 
	C159.590729,211.018311 159.709091,205.412140 159.548294,199.813980 
	C159.444611,196.204544 160.747253,194.658417 164.499481,194.895233 
	C168.475922,195.146210 172.490112,195.124207 176.469849,194.901016 
	C180.058044,194.699768 181.094131,196.231873 180.971558,199.613373 
	C180.767731,205.235519 180.916046,210.870438 180.916046,217.282562 
	C187.023727,217.282562 192.773270,217.433609 198.510239,217.230103 
	C202.415497,217.091583 203.960770,218.643036 203.758484,222.506683 
	C203.567413,226.156250 203.564621,229.831802 203.758759,233.481049 
	C203.969788,237.447327 202.119400,238.829376 198.383438,238.748627 
	C192.770966,238.627304 187.153946,238.717056 180.794220,238.717056 
	C180.794220,245.808014 180.794220,252.406860 180.621750,259.422974 
M164.046249,212.423187 
	C163.975784,221.963684 165.503555,221.778442 154.511703,221.718826 
	C150.259094,221.695755 146.006256,221.715073 141.671539,221.715073 
	C141.671539,226.237762 141.671539,229.846329 141.671539,234.086868 
	C147.536407,234.086868 153.160553,234.227539 158.773544,234.038055 
	C162.600052,233.908890 164.248810,235.289062 164.099594,239.250092 
	C163.887955,244.868439 164.045898,250.500717 164.045898,256.178070 
	C168.341003,256.178070 172.054825,256.178070 176.285080,256.178070 
	C176.285080,250.480682 176.457245,245.179382 176.231262,239.895142 
	C176.046371,235.571457 177.748505,233.855301 182.083359,234.031540 
	C187.660004,234.258270 193.252838,234.086716 198.704193,234.086716 
	C198.704193,229.539642 198.704193,225.796936 198.704193,221.715073 
	C194.350189,221.715073 190.370621,221.711166 186.391037,221.715836 
	C175.543564,221.728592 176.253204,222.514206 176.283051,211.855804 
	C176.294556,207.746078 176.284927,203.636276 176.284927,199.315735 
	C171.960815,199.315735 168.227753,199.315735 164.046265,199.315735 
	C164.046265,203.530685 164.046265,207.489227 164.046249,212.423187 
z"/>
<path fill="#6B6665" opacity="1.000000" stroke="none" 
	d="
M225.035431,232.980835 
	C225.035416,228.869476 225.035416,225.247391 225.035416,220.598480 
	C231.495605,221.396759 237.367615,222.181717 243.257690,222.792618 
	C244.257889,222.896378 245.383713,222.363907 246.369858,221.936829 
	C253.999954,218.632294 259.675262,221.886887 260.294098,230.200302 
	C260.600037,234.309814 260.347229,238.460892 260.347229,243.026657 
	C258.393860,243.114395 256.647949,243.192795 254.168518,243.304153 
	C254.168518,238.907684 254.155426,234.828842 254.173218,230.750122 
	C254.184631,228.131699 253.454758,226.058334 250.393799,225.966995 
	C247.180573,225.871094 246.001709,227.906494 245.947266,230.751709 
	C245.871277,234.722641 245.928116,238.696106 245.928116,242.960480 
	C243.829483,242.960480 242.063965,242.960480 239.653915,242.960480 
	C239.653915,239.052460 239.702377,235.118393 239.636963,231.186218 
	C239.592972,228.541489 239.117142,226.062393 235.696594,225.951874 
	C232.363876,225.844177 231.393173,228.204269 231.255875,230.840973 
	C231.049591,234.802597 231.202164,238.782913 231.202164,243.003250 
	C228.999405,243.003250 227.238892,243.003250 225.035461,243.003250 
	C225.035461,239.701141 225.035461,236.585632 225.035431,232.980835 
z"/>
<path fill="#6A6564" opacity="1.000000" stroke="none" 
	d="
M361.984955,240.524307 
	C361.983582,233.947662 361.983582,227.820724 361.983582,220.642960 
	C368.343140,221.408966 374.200226,222.192780 380.078491,222.755081 
	C381.226318,222.864883 382.501801,222.223114 383.641144,221.744171 
	C390.787262,218.740067 396.559479,222.024445 397.076202,229.668945 
	C397.365906,233.954941 397.128357,238.276566 397.128357,243.021942 
	C395.279419,243.106949 393.541656,243.186844 391.084564,243.299805 
	C391.084564,238.906647 391.455841,234.775101 390.912048,230.767746 
	C390.676086,229.029007 388.803589,226.545883 387.239624,226.159164 
	C384.177490,225.401962 382.903015,227.900574 382.847839,230.741531 
	C382.770782,234.709930 382.828400,238.680954 382.828400,242.950638 
	C380.708466,242.950638 378.953644,242.950638 376.502289,242.950638 
	C376.502289,239.184860 376.547913,235.422134 376.487061,231.661118 
	C376.442810,228.928375 376.362793,226.007523 372.556915,225.962265 
	C368.620056,225.915451 368.141388,228.863632 368.053864,231.828751 
	C367.946411,235.467590 368.028259,239.112015 368.028259,244.539749 
	C365.385773,242.980225 363.686035,241.977112 361.984955,240.524307 
z"/>
<path fill="#6C6766" opacity="1.000000" stroke="none" 
	d="
M453.853882,216.311630 
	C453.855194,225.417160 453.855194,234.055862 453.855194,242.667511 
	C448.904114,243.052780 444.275635,243.785767 439.667267,243.675629 
	C434.111023,243.542847 429.972626,238.342163 429.968445,232.332626 
	C429.963867,225.738464 433.781738,221.284378 440.035858,220.968704 
	C442.292816,220.854752 444.584656,221.431808 447.514954,221.768784 
	C447.643158,219.115479 447.781647,216.248764 447.936951,213.034958 
	C450.244507,213.688889 453.710876,210.873581 453.853882,216.311630 
M447.924133,231.690750 
	C447.404205,228.012421 445.122650,225.617752 441.615356,226.297440 
	C439.541229,226.699371 436.981903,228.961609 436.257507,230.970337 
	C435.090210,234.207230 436.576385,237.299377 440.414001,238.033356 
	C444.714752,238.855911 447.452362,237.068192 447.924133,231.690750 
z"/>
<path fill="#6F6A69" opacity="1.000000" stroke="none" 
	d="
M404.447052,225.624237 
	C410.726471,220.027176 416.526764,219.249115 421.704285,223.270569 
	C425.248566,226.023483 426.776031,229.659409 425.574219,234.705032 
	C420.153778,234.705032 414.756805,234.705032 408.777130,234.705032 
	C411.161530,239.254883 414.427643,238.310272 417.672455,237.822861 
	C419.812103,237.501465 422.008148,237.555405 425.404572,237.376846 
	C420.089813,244.136917 413.615814,245.399658 407.947083,242.057953 
	C402.489410,238.840668 401.189178,233.212875 404.447052,225.624237 
M416.723419,226.728241 
	C413.366211,225.407181 410.760895,225.986984 408.939209,229.798218 
	C412.532471,229.798218 415.690460,229.798218 419.643951,229.798218 
	C418.604950,228.515427 418.031036,227.806870 416.723419,226.728241 
z"/>
<path fill="#6C6766" opacity="1.000000" stroke="none" 
	d="
M322.127625,225.304016 
	C325.200500,223.600342 327.980072,221.421951 330.987000,221.041794 
	C335.005585,220.533752 339.200592,221.420761 343.653931,221.732025 
	C343.653931,228.503983 343.653931,235.579361 343.653931,242.668655 
	C339.199280,243.042755 334.679016,243.826279 330.181427,243.712646 
	C321.841492,243.501923 317.960510,234.717133 322.127625,225.304016 
M332.451813,238.266006 
	C334.265015,236.859375 337.020630,235.797562 337.688568,233.971924 
	C338.946869,230.532898 337.506989,227.327164 333.560883,226.339066 
	C330.005219,225.448730 327.200562,226.942276 326.338898,230.535858 
	C325.326111,234.759750 327.063873,237.599487 332.451813,238.266006 
z"/>
<path fill="#6C6766" opacity="1.000000" stroke="none" 
	d="
M297.881470,221.132248 
	C300.322174,221.124298 302.411774,221.429977 304.366180,221.046600 
	C310.502686,219.842865 314.551544,222.566895 314.988159,228.906433 
	C315.305084,233.508240 315.050049,238.149445 315.050049,243.012665 
	C313.073975,243.012665 311.317841,243.012665 308.999451,243.012665 
	C308.999451,238.802414 309.380585,234.646362 308.819031,230.621857 
	C308.581726,228.921173 306.360107,227.497375 305.040466,225.947723 
	C303.629852,227.441132 301.260406,228.785904 301.001282,230.457764 
	C300.397247,234.354813 300.808594,238.409256 300.808594,242.829224 
	C298.699219,242.829224 296.852509,242.829224 294.503845,242.829224 
	C294.503845,236.476089 294.378143,230.188980 294.636292,223.917648 
	C294.676086,222.951416 296.480286,222.057800 297.881470,221.132248 
z"/>
<path fill="#6C6867" opacity="1.000000" stroke="none" 
	d="
M518.540100,225.598541 
	C521.698669,231.915237 521.322144,236.114792 517.509277,240.009445 
	C513.634583,243.967331 508.017120,244.990845 503.366455,242.586288 
	C498.763855,240.206573 496.249725,235.675385 496.962341,230.723145 
	C497.605560,226.253433 500.004028,223.076645 504.392548,221.663147 
	C509.777832,219.928604 514.514771,220.861664 518.540100,225.598541 
M502.947113,230.877029 
	C502.547638,234.617264 503.474182,237.556595 507.724731,238.185242 
	C510.881439,238.652161 513.284241,237.495300 514.376709,234.335999 
	C515.550964,230.940338 514.137024,228.391342 511.230560,226.841980 
	C507.444458,224.823685 504.984192,226.902008 502.947113,230.877029 
z"/>
<path fill="#6C6766" opacity="1.000000" stroke="none" 
	d="
M289.198669,235.072754 
	C287.498108,240.105530 284.175323,242.846909 279.411957,243.694061 
	C274.427643,244.580505 269.277496,241.862976 266.944672,237.389496 
	C264.755615,233.191711 265.479889,227.969467 268.736053,224.473267 
	C272.161041,220.795792 278.632263,219.788620 283.463104,222.181198 
	C287.893829,224.375595 289.990997,228.876541 289.198669,235.072754 
M282.104248,228.374542 
	C279.888000,227.790573 277.399567,226.270386 275.512634,226.819000 
	C271.675903,227.934570 270.877686,231.443329 272.199890,234.945251 
	C273.489777,238.361679 276.551636,238.820038 279.703217,237.953903 
	C283.211975,236.989609 284.192017,233.659348 282.104248,228.374542 
z"/>
<path fill="#6D6867" opacity="1.000000" stroke="none" 
	d="
M535.000549,243.837708 
	C531.332397,242.931793 528.079895,242.027054 524.706055,241.088577 
	C526.001465,237.066406 527.676453,236.298355 530.957458,237.544586 
	C532.932922,238.294952 535.426025,237.682556 537.686462,237.682556 
	C537.733032,237.157532 537.779541,236.632492 537.826111,236.107468 
	C535.374939,235.415131 532.927368,234.709961 530.471802,234.033524 
	C527.065491,233.095215 524.949890,231.164551 524.969299,227.354584 
	C524.989746,223.334793 527.732117,221.420395 530.937683,221.220917 
	C534.856506,220.977051 538.849365,221.921036 544.089600,222.490372 
	C542.150024,225.275558 541.263245,226.549011 540.766296,227.262650 
	C537.256653,226.919006 534.362427,226.635635 531.468262,226.352249 
	C531.332581,226.998581 531.196899,227.644897 531.061157,228.291214 
	C532.791870,228.834991 534.492859,229.518631 536.259399,229.893967 
	C540.154846,230.721619 543.980347,231.570419 543.937012,236.714874 
	C543.900879,241.004868 541.279236,243.139618 535.000549,243.837708 
z"/>
<path fill="#6C6766" opacity="1.000000" stroke="none" 
	d="
M479.091919,243.170441 
	C473.538300,240.636002 470.461029,236.794357 471.115570,230.869598 
	C471.698517,225.592682 475.275970,222.657913 480.048553,221.219696 
	C485.071564,219.706009 489.796600,221.787354 494.398865,228.199448 
	C491.115845,227.975098 488.566040,228.498367 486.860168,227.531921 
	C483.778625,225.786072 481.140961,225.521713 478.739868,228.041122 
	C476.367004,230.530991 475.985168,234.082977 478.600433,236.038635 
	C480.524475,237.477478 483.920197,237.208847 486.660278,237.209915 
	C488.688812,237.210693 490.717651,236.421402 493.851410,235.745865 
	C490.348175,242.814819 486.559357,244.458145 479.091919,243.170441 
z"/>
<path fill="#676261" opacity="1.000000" stroke="none" 
	d="
M462.176605,243.224762 
	C461.178802,242.610550 460.096344,242.014069 460.084808,241.397583 
	C459.961823,234.808273 460.008362,228.215790 460.008362,221.393616 
	C462.083557,221.393616 463.679230,221.393616 465.987701,221.393616 
	C465.987701,228.085205 466.073486,234.822372 465.840027,241.548462 
	C465.819244,242.146942 463.722046,242.673340 462.176605,243.224762 
z"/>
<path fill="#6F6A69" opacity="1.000000" stroke="none" 
	d="
M464.286499,212.820755 
	C464.827789,214.601608 465.268921,216.300034 465.105804,217.938263 
	C465.070648,218.291306 462.482269,219.004364 461.737335,218.521652 
	C460.738831,217.874619 459.577576,215.537796 459.916901,215.136627 
	C460.878052,214.000259 462.567474,213.479797 464.286499,212.820755 
z"/>
<path fill="#FFFEFE" opacity="1.000000" stroke="none" 
	d="
M164.046265,211.935471 
	C164.046265,207.489227 164.046265,203.530685 164.046265,199.315735 
	C168.227753,199.315735 171.960815,199.315735 176.284927,199.315735 
	C176.284927,203.636276 176.294556,207.746078 176.283051,211.855804 
	C176.253204,222.514206 175.543564,221.728592 186.391037,221.715836 
	C190.370621,221.711166 194.350189,221.715073 198.704193,221.715073 
	C198.704193,225.796936 198.704193,229.539642 198.704193,234.086716 
	C193.252838,234.086716 187.660004,234.258270 182.083359,234.031540 
	C177.748505,233.855301 176.046371,235.571457 176.231262,239.895142 
	C176.457245,245.179382 176.285080,250.480682 176.285080,256.178070 
	C172.054825,256.178070 168.341003,256.178070 164.045898,256.178070 
	C164.045898,250.500717 163.887955,244.868439 164.099594,239.250092 
	C164.248810,235.289062 162.600052,233.908890 158.773544,234.038055 
	C153.160553,234.227539 147.536407,234.086868 141.671539,234.086868 
	C141.671539,229.846329 141.671539,226.237762 141.671539,221.715073 
	C146.006256,221.715073 150.259094,221.695755 154.511703,221.718826 
	C165.503555,221.778442 163.975784,221.963684 164.046265,211.935471 
z"/>
<path fill="#FAFAFA" opacity="1.000000" stroke="none" 
	d="
M447.941162,232.088837 
	C447.452362,237.068192 444.714752,238.855911 440.414001,238.033356 
	C436.576385,237.299377 435.090210,234.207230 436.257507,230.970337 
	C436.981903,228.961609 439.541229,226.699371 441.615356,226.297440 
	C445.122650,225.617752 447.404205,228.012421 447.941162,232.088837 
z"/>
<path fill="#FAFAFA" opacity="1.000000" stroke="none" 
	d="
M417.090271,226.913269 
	C418.031036,227.806870 418.604950,228.515427 419.643951,229.798218 
	C415.690460,229.798218 412.532471,229.798218 408.939209,229.798218 
	C410.760895,225.986984 413.366211,225.407181 417.090271,226.913269 
z"/>
<path fill="#FAFAFA" opacity="1.000000" stroke="none" 
	d="
M332.041199,238.256622 
	C327.063873,237.599487 325.326111,234.759750 326.338898,230.535858 
	C327.200562,226.942276 330.005219,225.448730 333.560883,226.339066 
	C337.506989,227.327164 338.946869,230.532898 337.688568,233.971924 
	C337.020630,235.797562 334.265015,236.859375 332.041199,238.256622 
z"/>
<path fill="#FAFAFA" opacity="1.000000" stroke="none" 
	d="
M503.031860,230.483246 
	C504.984192,226.902008 507.444458,224.823685 511.230560,226.841980 
	C514.137024,228.391342 515.550964,230.940338 514.376709,234.335999 
	C513.284241,237.495300 510.881439,238.652161 507.724731,238.185242 
	C503.474182,237.556595 502.547638,234.617264 503.031860,230.483246 
z"/>
<path fill="#FAFAFA" opacity="1.000000" stroke="none" 
	d="
M282.343445,228.661346 
	C284.192017,233.659348 283.211975,236.989609 279.703217,237.953903 
	C276.551636,238.820038 273.489777,238.361679 272.199890,234.945251 
	C270.877686,231.443329 271.675903,227.934570 275.512634,226.819000 
	C277.399567,226.270386 279.888000,227.790573 282.343445,228.661346 
z"/>
</svg>