<svg xmlns="http://www.w3.org/2000/svg" viewBox="0 0 400 400"><path fill="#58aa50" d="M0 198.95v-3.7q1.53-28.91 22.72-47.5.98-.86 1.61-3.46.16-.66.44-.05 2.29 5.06 7.93 11.06c22.6 24 23.76 61.9-2.86 83.8-3.3 2.72-2.4 10.67-2.33 14.57a.38.38 0 0 1-.51.37l-2-.7q-.49-.18-.48-.71.1-5.89-1.55-11.57-.13-.46-.49-.77C9.33 228.78 1.3 216.82 0 198.95Z"/><path fill="#8e714e" d="M298.61 188.21q.7-1.42 1.64-1.73.05-.01 2.12-.01c10.05.05 24.53-1.39 33.1 1.46 11.89 3.94 16.93 15.61 14.94 27.5-2.53 15.14-15.93 21.69-30.48 21.45q-9.81-.17-18.88-.14a1.38 1.38 0 0 1-.63-2.61c2.98-1.53 6-.51 6.03-5.19q.1-17.6-.19-35.18c-.06-3.87-4.18-3.89-6.89-4.18q-1.36-.15-.76-1.37Zm15.98 3c-.18 12.07.31 24.19-.1 36.11-.21 6.13 10.23 6.34 14.17 5.32 14.78-3.85 17.34-24.54 9.2-35.13-5.04-6.57-14.39-8.73-22.43-7.28a1.02 1.02 0 0 0-.84.98ZM388.59 208.54c11.28 2.67 14.87 14.78 6.08 22.68-3.69 3.32-8.94 5.08-14.28 5.36q-11.65.6-23.32 0-.56-.03-.58-.58c-.14-2.92 3.91-2.88 5.93-3.59q.51-.18.7-.69.6-1.6.61-3.4.09-18.05-.01-35.87a2.3 2.29-85.5 0 0-1.91-2.24l-4.21-.7a1.51 1.51 0 0 1 .25-3q12.03-.03 24.15-.01c13.38.03 19.7 14.99 6.52 21.34a.37.37 0 0 0 .07.7Zm-17.07-17.19.02 15.58a.99.99 0 0 0 1 .99l6.43-.01a8.56 7.5-.1 0 0 8.54-7.51v-2.56a8.56 7.5-.1 0 0-8.58-7.49l-6.43.01a.99.99 0 0 0-.98.99Zm17.29 37.96q3.84-5.48 1.34-11.23c-2.95-6.79-11.73-7.01-18.02-6.48q-.48.04-.5.52-.48 11.01.1 16.64c.68 6.6 14.1 4.81 17.08.55Z"/><path fill="#442d22" d="M184.79 207.79a.51.51 0 0 0 .85.46c3.78-3.52 9.49-6.48 14.63-4.38 9.36 3.82 7.12 18.96 6.92 27.29a1.99 1.99 0 0 0 1.55 1.98l3.53.81a.68.67 10.4 0 1 .52.74l-.23 1.71q-.1.74-.84.67-7.73-.69-15.46-.01-.69.06-.76-.62l-.18-1.63q-.08-.69.6-.87l3.49-.94q.66-.18.73-.86.86-8.94-.23-17.78c-1.03-8.33-14.57-7.17-14.64-.69q-.1 8.32.07 16.64c.07 3.28 1.9 3.3 4.53 3.5q.77.05.69.82l-.23 2.17a.55.55 0 0 1-.62.49q-7.94-.99-15.89-.09-.78.09-.8-.69l-.03-1.15a1.7 1.7 0 0 1 1.61-1.74q3.06-.17 3.2-2.44.61-9.96.44-19.94a.84.84 0 0 0-.49-.75l-5.27-2.49a.78.76 10.2 0 1-.45-.63q-.11-1.13 1.42-1.37 5.58-.87 10.38-2.61a1.14 1.13 84.9 0 1 1.5 1.26l-.54 3.14ZM98.36 208.79c3.57-2.83 8.85-6.06 13.55-5.01 11.47 2.57 8.71 18.99 8.23 27.75a1.22 1.21 22.1 0 0 .42.98q1.95 1.66 4.65 1.71a.6.6 0 0 1 .59.68l-.24 1.74q-.08.64-.72.56-7.3-.85-14.67-.11a1.39 1.38-55.7 0 1-.51-2.71l2.27-.64a2.45 2.45 0 0 0 1.78-2.33c.06-5.04.98-14.93-.9-18.91-2.5-5.28-9.39-4.42-13.66-1.19q-.29.22-.29.59l.2 20.53a.76.74-82.1 0 0 .52.71l4.27 1.38a.47.46 2.4 0 1 .32.34c.37 1.55-.63 2.35-2.13 2.27q-7.03-.35-14.11.02a.72.71 85.2 0 1-.74-.63l-.15-1.21q-.09-.74.64-.89l3.41-.71a1.73 1.72-5.6 0 0 1.38-1.67c.06-5.2 1.09-16-1.09-20.17-2.61-4.99-10.22-3.93-13.77-.26a1.32 1.3-23.5 0 0-.36.9v19.19a2.16 2.16 0 0 0 1.75 2.12l2.67.53q.7.14.61.84l-.16 1.34q-.06.57-.64.56l-15.57-.31q-.5-.01-.69-.48-.49-1.18.44-2.11.34-.34.83-.32 4.49.12 4.3-4.28c-.28-6.17-.03-12.47-.04-18.64a.81.8-78.4 0 0-.47-.72l-5.07-2.29a.74.74 0 0 1 .13-1.39l11.59-2.9a.5.5 0 0 1 .62.53l-.32 3.6a.66.66 0 0 0 1.07.58c5.87-4.65 14.23-8.08 19.21.27q.34.56.85.16ZM159.06 206.44c8.86 6.13 7.72 21.32-.51 27.39-6.93 5.11-17.76 5.41-23.48-1.87-13.11-16.68 7.55-36.9 23.99-25.52Zm-1.49 11.25c-1.03-6.73-8.08-14.26-15.12-9.71-6.89 4.45-4.29 18.41.58 23.34 3.69 3.75 10.03 3.98 12.97-.32 2.35-3.43 2.22-9.09 1.57-13.31ZM246.32 210.43c2.54 10-5.41 17.23-14.88 17.2a1.97 1.97 0 0 0-1.62 3.1q.79 1.13 2.76 1.25 10.77.62 13.6 1.6c10.55 3.64 5.64 15.42-1.34 19.79-7.58 4.75-23.01 6.04-26.39-5.08-1.26-4.16 4.79-8.3 7.81-10.12a.59.59 0 0 0-.1-1.05q-2.67-1.02-4.08-3.49a2.04 2.04 0 0 1 .67-2.72l4.48-2.89a.63.63 0 0 0-.13-1.12q-7.3-2.61-7.35-10.89c-.05-8.93 9.66-13.05 17.3-12.45 5.5.43 9.51 4.31 15.24.89q.5-.3.59.28c.66 4.34-2.24 5.52-6.01 5.07a.51.5 86.4 0 0-.55.63Zm-11.265 13.593a9.02 7.07 79.3 0 0 5.272-10.176 9.02 7.07 79.3 0 0-8.622-7.55 9.02 7.07 79.3 0 0-5.272 10.176 9.02 7.07 79.3 0 0 8.622 7.55Zm8.755 16.417c-3.78-1.9-11.09-3.45-15.03-1.23-13.33 7.5 5.81 18.85 14.85 11.39 2.76-2.27 4.22-8.14.18-10.16ZM258.99 225.55c-5.78-22.57 26.38-30.69 32.48-11.74 7.37 22.88-26.78 33.98-32.48 11.74Zm15.58-18.72c-15.17-1.66-10.04 32.53 5.37 26.85 9.09-3.35 6.24-25.58-5.37-26.85Z"/></svg>