<svg xmlns="http://www.w3.org/2000/svg" viewBox="0 0 266 300"><path fill="#539e43" d="M130.82 0h5.22q5.38.88 9.63 3.34 33.31 19.22 98.21 56.96c12.69 7.39 20.1 10.51 22.12 23.99v131.74q-1.84 12.02-11.07 17.39-52.56 30.57-105.19 61c-11.61 6.72-19.73 7.18-31.21.42q-17.48-10.31-34.86-20.74-1.34-.81-1.72-1.76a1.28 1.28 0 0 1 .81-1.7q9.31-2.85 17.69-7.85a2.4 2.38-44.8 0 1 2.45 0l29.15 17.41q.48.29 1.01.11 1.56-.53 3.71-1.78 54.12-31.34 107.78-62.5a2.78 2.77 75 0 0 1.38-2.4L246 85.84a2.55 2.54-75.2 0 0-1.28-2.21L134.36 19.9a2.75 2.75 0 0 0-2.76 0Q76.8 51.56 22.69 82.8c-2.75 1.58-2.78 3.03-2.74 5.95q.75 51.12-.07 123.5c-.02 1.84.68 3.25 2.37 4.25q23.91 14.11 31.29 17.99c8.16 4.3 20.14 2.38 23.49-7.2q.98-2.81.98-10.21-.02-60.36-.01-120.11a2.9 2.89 87 0 1 2.59-2.88q7.45-.78 15.49.09c2.12.22 2.66 2.21 2.66 4.18q.02 61.32.03 122.64c0 21.98-10.56 36.35-33.54 36.04q-11.74-.16-22.52-6.02-13.7-7.45-27.15-15.34C4.21 229.02.53 223.47.52 210.6q-.05-59.55 0-119.1c.01-14.29 2.9-20.05 14.69-26.9Q68.27 33.78 121.36 3.02c3.04-1.76 6.12-2.34 9.46-3.02Z"/><path fill="#539e43" d="M144.19 190.08c10.47 3.13 22.42 3.1 33.38 2.34 10.59-.74 22.4-4.48 22.66-16.71q.16-7.47-6.82-10.12c-13.39-5.08-28.29-5.8-42.41-7.6-19.51-2.48-37.78-9.22-38.03-32.26-.42-37.7 49.46-38.62 74.25-32.89q25.22 5.82 29.77 30.68c.82 4.49 1.86 9.01-4.2 8.99q-6.09-.02-12.14-.01a3.36 3.35 82 0 1-3.24-2.45c-2.74-9.73-6.28-15.86-16.8-18.36-11.3-2.68-48.89-6.11-45.78 15.8.98 6.91 13.76 8.95 19.42 9.78q23.16 3.42 31.49 4.75c19.6 3.12 37.16 10.11 36.19 33.74-1.54 37.4-47.86 39.22-74.99 35.08-21.17-3.24-37.61-15.13-37.83-38.35q-.04-3.94 3.66-4.05 6.83-.2 14.25-.21a2.61 2.6 86.1 0 1 2.58 2.25c1.3 9.33 5.04 16.74 14.59 19.6Z"/></svg>